{"glyphs":{"0":{"ha":651,"x_min":39,"x_max":609,"o":"m 39 440 q 47 557 39 515 q 87 703 68 658 q 157 818 117 774 q 250 884 197 861 q 333 897 281 897 q 456 853 396 897 q 562 708 515 809 q 609 453 609 606 q 583 240 609 340 q 537 129 567 180 q 487 58 507 77 q 412 5 453 24 q 347 -15 372 -15 q 234 0 273 -15 q 160 52 195 14 q 96 149 124 90 q 56 263 68 208 q 39 440 39 340 m 214 351 q 224 149 214 201 q 260 70 233 96 q 317 44 287 44 q 369 60 347 44 q 406 112 391 77 q 427 222 421 146 q 437 397 437 345 l 435 487 l 435 583 q 426 709 435 650 q 400 792 416 767 q 362 828 385 818 q 320 838 340 838 q 266 813 295 838 q 224 722 237 788 q 211 498 211 656 l 212 450 q 214 351 214 380 z "},"1":{"ha":550,"x_min":35,"x_max":511,"o":"m 279 894 q 325 895 282 894 l 347 895 l 389 894 q 392 862 392 872 q 391 841 392 859 q 390 768 391 831 l 389 666 l 389 602 l 385 144 l 385 105 q 394 76 385 85 q 445 61 404 67 q 510 50 461 59 q 511 37 511 43 q 510 5 511 30 l 481 5 q 394 7 451 5 q 347 9 359 9 q 227 6 330 9 q 208 5 215 5 l 195 5 l 176 7 l 157 5 l 123 7 q 96 5 117 7 q 94 28 94 20 q 96 50 94 35 q 159 65 123 58 q 219 85 208 75 q 231 111 231 95 l 230 157 l 233 208 l 232 311 l 231 337 q 233 378 231 342 q 234 410 234 396 q 232 465 234 419 l 235 504 q 232 556 232 548 q 233 576 232 566 l 234 593 l 232 640 l 234 661 q 235 699 235 675 q 234 755 235 722 q 124 683 186 719 q 63 655 117 679 q 35 704 41 688 q 133 759 107 741 q 225 833 176 789 q 279 894 246 853 z "},"2":{"ha":651,"x_min":26,"x_max":625,"o":"m 591 3 l 521 3 q 481 3 496 3 q 454 4 459 4 l 408 2 l 396 3 q 356 5 380 5 q 279 3 334 5 q 248 3 254 3 l 180 4 l 70 3 l 26 3 l 26 49 q 171 219 123 171 q 309 380 220 268 q 395 519 372 458 q 418 625 418 580 q 404 715 418 675 q 352 778 389 755 q 272 801 315 801 q 193 779 228 801 q 141 724 157 758 q 111 624 116 676 l 61 624 q 59 673 59 653 q 110 799 59 739 q 332 892 189 892 q 519 825 451 892 q 588 655 588 758 q 575 578 588 614 q 531 494 557 530 q 387 340 505 458 q 175 140 302 256 l 250 138 l 374 141 l 446 140 q 521 152 503 140 q 555 210 540 164 q 568 242 559 220 l 612 245 l 621 242 q 625 232 625 237 q 621 205 625 221 q 613 151 618 189 q 591 3 609 114 z "},"3":{"ha":651,"x_min":20,"x_max":608,"o":"m 227 412 q 194 453 207 438 q 359 599 317 543 q 386 677 386 635 q 355 752 386 720 q 283 784 323 784 q 133 683 201 784 l 90 706 q 154 813 123 777 q 244 873 186 848 q 354 892 288 892 q 491 848 443 892 q 539 736 539 804 q 506 635 539 684 q 388 529 473 587 l 402 529 q 550 459 493 529 q 608 307 608 389 q 575 161 608 237 q 457 33 543 85 q 245 -19 371 -19 q 60 24 124 -19 q 20 87 20 51 q 39 132 20 113 q 90 151 59 151 q 137 138 115 151 q 196 77 159 124 q 233 45 215 52 q 278 33 264 33 q 353 57 314 33 q 415 138 392 81 q 438 270 438 195 q 398 397 438 351 q 309 444 357 444 q 227 412 274 444 z "},"4":{"ha":651,"x_min":33,"x_max":619,"o":"m 619 328 l 619 214 q 562 212 583 212 q 511 214 542 212 q 509 195 509 198 l 511 154 l 510 111 l 511 81 q 509 40 511 73 q 507 -15 508 22 l 449 -14 l 413 -14 q 391 -14 399 -14 l 380 -12 q 365 -15 375 -12 l 366 117 l 363 201 q 365 214 363 205 q 268 213 332 214 l 223 213 q 95 215 165 213 q 66 216 73 216 q 35 214 56 216 l 33 223 l 35 270 l 34 285 l 36 313 l 35 318 q 75 391 66 378 l 231 630 q 314 748 283 707 q 357 808 345 788 q 390 856 376 838 q 417 893 411 882 q 467 895 457 895 q 515 893 480 895 l 517 885 l 514 835 l 515 817 l 513 789 l 515 762 l 513 694 l 513 665 l 513 627 l 513 592 l 513 544 l 513 498 l 513 444 l 511 328 q 570 327 535 328 l 587 327 q 619 328 597 327 m 365 330 q 369 380 369 363 q 368 406 369 387 q 367 430 367 425 l 369 483 l 368 528 l 370 646 l 369 699 q 370 731 369 706 q 351 707 365 723 q 336 684 342 691 q 277 603 309 651 l 216 505 q 196 473 207 492 q 152 405 178 444 q 110 330 127 366 q 138 332 130 332 l 170 331 l 235 331 l 326 330 l 365 330 z "},"5":{"ha":651,"x_min":44,"x_max":595,"o":"m 503 890 l 528 891 q 553 890 533 891 q 511 732 524 754 q 495 718 503 719 q 409 714 414 714 l 391 714 l 347 713 q 315 715 336 713 q 232 717 258 717 q 210 716 224 717 q 207 689 207 697 l 203 601 l 201 537 q 262 558 230 551 q 329 566 294 566 q 428 546 380 566 q 513 490 477 526 q 566 418 541 463 q 587 369 585 385 q 595 306 595 309 q 584 211 595 254 q 534 115 572 168 q 466 41 496 62 q 366 -2 420 10 q 234 -15 312 -15 q 81 29 142 -15 q 44 96 44 56 q 65 146 44 125 q 118 167 87 167 q 216 105 166 167 q 260 60 245 68 q 312 47 283 47 q 388 70 351 47 q 448 141 425 94 q 471 231 471 189 q 423 353 471 302 q 307 404 374 404 q 247 396 273 404 q 199 368 234 392 l 170 349 q 154 346 161 346 q 137 351 144 346 q 132 364 132 356 l 140 579 q 142 604 140 593 q 144 661 143 615 q 146 726 145 707 q 149 774 149 755 q 151 801 149 788 q 151 814 151 810 l 151 839 q 172 861 151 854 q 281 865 184 865 l 437 863 q 485 868 474 863 q 503 890 495 873 z "},"6":{"ha":651,"x_min":41,"x_max":611,"o":"m 273 449 q 272 471 272 464 q 273 494 272 479 q 298 505 278 496 q 391 526 345 526 q 548 456 484 526 q 611 268 611 387 q 534 62 611 138 q 321 -15 457 -15 q 213 10 260 -15 q 129 81 165 35 q 73 176 92 127 q 41 352 41 258 q 69 524 41 433 q 154 683 97 614 q 282 797 210 752 q 409 863 354 842 q 569 901 515 901 q 585 895 579 901 q 591 873 591 888 q 587 850 591 859 q 535 835 573 844 q 385 763 449 813 q 289 659 320 713 q 230 493 246 585 q 214 311 214 401 q 227 145 214 210 q 272 52 240 80 q 334 35 294 35 q 370 41 357 35 q 412 74 399 56 q 443 152 435 107 q 451 245 451 197 q 417 414 451 368 q 332 460 382 460 q 273 449 309 460 z "},"7":{"ha":651,"x_min":47,"x_max":598,"o":"m 71 871 q 155 873 98 871 l 321 869 l 462 871 l 543 871 l 570 872 q 596 871 579 872 q 598 829 598 846 q 570 734 598 810 q 535 632 551 682 q 511 561 519 583 q 481 476 492 512 q 455 408 469 448 l 422 315 q 390 229 414 291 l 336 78 q 329 55 329 63 q 343 34 329 44 q 358 13 358 23 q 347 -14 358 0 l 329 -14 l 278 -14 q 254 -14 274 -13 q 223 -15 235 -15 q 196 -14 214 -15 q 224 60 198 6 q 290 226 239 92 l 411 542 l 441 623 q 461 673 450 641 q 474 709 465 684 q 366 712 408 712 l 265 711 l 184 712 q 133 702 146 712 q 114 664 119 691 q 100 630 109 637 q 71 623 92 623 q 54 629 60 623 q 47 649 47 636 q 56 749 47 682 q 63 815 60 783 q 71 871 66 847 z "},"8":{"ha":651,"x_min":59,"x_max":603,"o":"m 230 423 q 114 525 151 465 q 77 633 77 586 q 90 722 77 673 q 135 807 103 770 q 219 867 168 843 q 328 891 271 891 q 502 830 435 891 q 570 679 570 769 q 541 588 570 635 q 481 524 512 541 l 432 494 q 469 471 432 491 q 551 395 506 451 q 593 326 583 354 q 603 255 603 298 q 591 158 603 190 q 560 103 583 139 q 519 52 536 66 q 422 1 485 24 q 332 -15 382 -15 q 223 -3 274 -15 q 161 25 186 6 q 104 77 121 54 q 75 132 87 99 q 59 220 59 176 q 117 353 59 294 q 230 423 153 391 m 277 583 q 385 524 298 569 l 398 537 q 435 590 425 564 q 450 681 450 628 q 415 790 450 752 q 326 828 380 828 q 236 792 273 828 q 199 706 199 757 q 218 641 199 670 q 277 583 236 612 m 277 391 q 233 353 267 391 q 189 224 189 301 q 231 95 189 142 q 334 49 273 49 q 434 85 397 49 q 470 183 470 121 q 446 269 470 233 q 353 348 422 305 q 277 391 284 391 z "},"9":{"ha":651,"x_min":42,"x_max":614,"o":"m 123 -19 q 112 6 112 -6 q 119 24 112 18 q 158 43 122 29 q 279 108 229 70 q 365 201 330 146 q 414 319 399 256 q 430 419 429 382 q 436 478 431 431 q 440 562 440 513 q 398 799 440 734 q 319 847 366 847 q 245 806 276 847 q 204 645 204 749 q 212 524 204 581 q 237 456 218 487 q 260 429 249 435 q 313 416 286 416 q 348 422 330 416 l 358 424 q 373 416 366 424 q 380 393 380 408 q 359 360 380 368 q 265 344 316 344 q 225 347 233 344 q 146 381 161 370 q 86 439 106 410 q 55 507 65 469 q 42 608 42 557 q 78 757 42 688 q 178 861 115 826 q 314 895 241 895 q 529 797 443 895 q 614 513 614 699 q 579 317 614 421 q 530 221 570 292 q 420 92 489 150 q 274 7 351 34 q 149 -20 197 -20 q 123 -19 140 -20 z "}," ":{"ha":347,"x_min":0,"x_max":0,"o":""},"!":{"ha":361,"x_min":85,"x_max":281,"o":"m 207 262 q 155 260 193 261 l 117 513 q 90 728 96 661 q 86 790 86 770 q 89 814 86 795 q 110 875 92 855 q 160 898 127 895 q 184 902 178 902 q 247 874 221 902 q 272 797 272 847 q 261 640 272 750 l 232 420 q 207 262 221 325 m 85 85 q 112 149 85 123 q 184 182 148 182 q 253 154 224 182 q 281 85 281 125 q 255 16 281 43 q 186 -12 228 -12 q 114 17 143 -12 q 85 85 85 46 z "},"\"":{"ha":767,"x_min":119,"x_max":647,"o":"m 564 489 l 530 489 l 462 749 q 446 843 446 808 q 476 911 446 882 q 548 941 506 941 q 622 909 596 941 q 647 844 647 877 q 629 749 647 821 l 564 489 m 237 489 l 203 489 l 133 750 q 119 841 119 801 q 149 911 119 882 q 220 941 178 941 q 291 912 262 941 q 320 843 320 884 q 304 749 320 813 l 237 489 z "},"#":{"ha":926,"x_min":58,"x_max":868,"o":"m 58 669 l 275 669 l 333 939 l 430 939 l 372 669 l 644 669 l 701 939 l 798 939 l 740 669 l 868 669 l 868 572 l 722 572 l 672 334 l 868 334 l 868 237 l 653 237 l 596 -31 l 498 -31 l 556 237 l 283 237 l 227 -31 l 130 -31 l 186 237 l 58 237 l 58 334 l 206 334 l 256 572 l 58 572 l 58 669 m 353 572 l 303 336 l 575 336 l 625 572 l 353 572 z "},"$":{"ha":651,"x_min":55,"x_max":607,"o":"m 290 64 l 292 373 q 266 385 281 378 q 110 484 155 431 q 65 612 65 537 q 119 752 65 694 q 269 824 174 811 q 294 828 284 826 l 295 882 l 356 882 q 357 857 357 864 l 357 840 q 358 827 357 833 q 383 823 368 825 q 534 760 476 812 q 578 667 578 719 q 562 624 578 642 q 522 607 545 607 q 486 621 500 607 q 463 676 471 635 q 440 732 455 716 q 357 766 408 763 q 356 644 356 745 q 357 524 356 541 l 459 477 q 541 418 508 451 q 590 346 574 386 q 607 258 607 307 q 545 92 607 163 q 380 3 483 21 q 354 -2 365 1 l 353 -130 l 292 -131 l 291 -1 q 118 66 180 8 q 55 185 55 125 q 71 229 55 212 q 112 246 87 246 q 155 230 137 246 q 184 165 173 213 q 222 94 196 118 q 290 64 248 70 m 292 551 q 294 742 294 606 q 294 764 294 745 q 216 730 245 759 q 188 662 188 701 q 220 592 188 621 q 292 551 252 563 m 354 65 q 443 109 406 70 q 479 200 479 149 q 442 292 479 254 q 357 345 405 330 q 355 309 355 319 l 355 252 l 354 65 z "},"%":{"ha":1158,"x_min":44,"x_max":1112,"o":"m 237 -18 q 838 906 385 199 l 847 908 l 909 905 l 916 906 l 313 -18 q 294 -18 300 -18 l 252 -16 l 237 -18 m 44 660 q 51 726 44 701 q 75 799 66 783 q 111 850 94 835 q 164 886 137 875 q 221 898 191 898 q 345 836 293 898 q 397 666 397 774 q 382 558 397 605 q 340 479 367 511 q 293 441 319 454 q 235 422 259 422 q 146 438 176 422 q 74 517 104 461 q 44 660 44 574 m 162 679 q 164 614 164 631 q 173 496 165 511 l 195 468 q 217 461 204 461 q 251 476 235 461 q 273 538 266 490 q 279 638 279 587 l 278 684 l 278 732 q 258 838 278 808 q 222 858 245 858 q 188 844 203 858 q 166 785 174 829 q 162 679 163 768 m 759 230 q 766 295 759 271 q 789 369 781 353 q 825 420 808 405 q 879 456 852 445 q 936 467 905 467 q 1059 406 1007 467 q 1112 236 1112 345 q 1097 128 1112 175 q 1054 50 1082 81 q 1008 11 1034 24 q 949 -7 974 -7 q 861 8 891 -7 q 789 87 819 31 q 759 230 759 144 m 877 249 q 879 184 879 201 q 888 66 879 81 l 909 38 q 932 31 919 31 q 965 46 950 31 q 987 109 980 60 q 994 208 994 157 l 993 254 l 993 302 q 973 408 993 378 q 937 428 960 428 q 903 414 918 428 q 880 355 888 399 q 877 249 878 338 z "},"&":{"ha":1114,"x_min":63,"x_max":1059,"o":"m 306 477 q 243 553 258 533 q 219 601 229 572 q 210 659 210 630 q 251 771 210 721 q 370 842 292 821 q 389 847 382 844 q 458 852 404 852 q 610 802 554 852 q 667 689 667 752 q 650 617 667 651 q 595 563 637 591 q 527 525 553 534 q 514 517 518 522 q 573 455 527 499 q 618 405 591 438 l 696 310 q 718 283 707 294 q 783 368 758 323 q 802 420 802 403 q 790 447 802 433 q 751 471 779 461 l 753 514 q 794 522 785 521 q 905 530 841 527 l 954 533 l 988 533 q 1032 537 996 533 q 1030 517 1031 528 q 1028 497 1030 507 l 1026 485 q 955 447 977 462 q 878 372 933 431 q 760 230 844 337 q 776 208 762 221 l 793 188 q 861 127 829 147 q 919 106 892 106 q 947 112 937 106 q 998 155 969 125 q 1026 174 1016 174 q 1049 165 1040 174 q 1059 143 1059 156 q 1033 75 1059 117 q 955 5 1006 33 q 861 -14 920 -14 q 764 6 808 -14 q 635 96 705 33 q 338 -15 500 -15 q 131 47 199 -15 q 63 204 63 109 q 91 315 63 262 q 172 405 119 367 q 271 461 225 442 q 306 477 296 471 m 465 566 q 526 616 506 584 q 540 682 540 638 q 527 747 540 704 q 499 776 522 762 q 443 790 475 790 q 383 769 409 790 q 357 711 357 748 q 376 656 357 685 q 465 566 399 619 m 585 151 q 571 171 580 161 q 556 189 563 180 l 476 286 q 351 429 414 360 q 272 373 301 408 q 243 290 243 337 q 254 234 243 260 q 301 159 276 186 q 363 112 326 132 q 444 91 401 91 q 585 151 522 91 z "},"'":{"ha":391,"x_min":95,"x_max":296,"o":"m 212 490 l 180 490 l 109 749 q 95 839 95 797 q 124 911 95 882 q 195 941 153 941 q 266 912 237 941 q 296 842 296 884 q 279 749 296 812 l 212 490 z "},"(":{"ha":492,"x_min":95,"x_max":487,"o":"m 448 899 q 487 863 469 881 q 398 758 426 800 q 325 624 348 682 q 285 478 301 566 q 269 264 269 391 q 285 73 269 165 q 315 -49 302 -20 q 382 -175 349 -127 q 486 -294 416 -223 q 454 -329 472 -311 q 293 -197 386 -296 q 148 24 200 -97 q 95 283 95 146 q 147 552 95 436 q 294 766 199 668 q 448 899 389 864 z "},")":{"ha":492,"x_min":16,"x_max":410,"o":"m 16 865 q 31 881 22 874 q 48 899 39 888 q 170 806 120 857 q 310 632 261 715 q 378 486 358 549 q 410 283 410 384 q 388 105 410 190 q 319 -58 366 21 q 194 -214 273 -136 q 58 -329 116 -292 l 19 -292 q 115 -179 75 -237 q 179 -59 155 -120 q 220 90 204 2 q 236 292 236 178 q 225 446 236 371 q 191 608 215 520 q 175 645 187 623 q 49 830 138 738 q 16 865 26 853 z "},"*":{"ha":680,"x_min":45,"x_max":635,"o":"m 45 506 q 224 579 49 509 l 267 597 q 218 618 241 610 l 45 695 q 112 806 67 735 q 168 764 122 800 q 224 720 214 728 q 259 692 242 703 q 303 661 286 675 q 299 694 302 680 q 290 769 293 724 q 277 902 289 788 q 331 903 311 903 l 412 902 l 375 664 q 469 732 437 711 q 549 788 490 747 q 570 806 561 800 q 634 692 595 764 q 569 664 616 683 q 421 599 522 645 q 445 587 435 593 q 494 566 461 578 l 564 537 q 635 502 612 517 q 614 461 629 490 q 574 389 589 410 q 512 435 557 400 q 374 531 467 469 l 400 345 q 406 296 404 316 l 380 296 q 273 297 302 296 l 303 532 q 263 503 277 515 q 214 467 249 491 q 111 391 193 453 q 45 506 73 466 z "},"+":{"ha":926,"x_min":91,"x_max":835,"o":"m 91 494 l 408 494 l 408 812 l 515 812 l 515 494 l 835 494 l 835 387 l 515 387 l 515 71 l 408 71 l 408 387 l 91 387 l 91 494 z "},",":{"ha":361,"x_min":63,"x_max":308,"o":"m 65 -200 q 70 -192 66 -195 q 93 -179 73 -189 q 158 -125 132 -160 q 184 -56 184 -90 q 176 -26 184 -37 q 128 6 168 -16 q 76 46 89 28 q 63 94 63 64 q 91 160 63 133 q 166 186 119 186 q 264 138 220 186 q 308 17 308 90 q 294 -68 308 -24 q 259 -140 280 -113 q 194 -204 239 -168 q 121 -245 185 -211 q 104 -249 113 -249 q 86 -241 94 -249 q 65 -200 78 -234 z "},"-":{"ha":463,"x_min":48,"x_max":420,"o":"m 52 349 l 265 349 l 374 350 q 415 347 396 350 q 419 300 417 315 l 420 288 l 417 253 q 416 233 416 245 l 416 220 l 49 220 q 48 250 48 239 q 50 288 48 267 q 50 303 50 298 l 50 337 l 52 349 z "},".":{"ha":361,"x_min":85,"x_max":281,"o":"m 180 184 q 252 157 222 184 q 281 95 281 130 q 263 27 281 50 q 184 -12 231 -12 q 113 16 141 -12 q 85 87 85 44 q 99 137 85 115 q 140 175 109 155 q 180 184 152 184 z "},"/":{"ha":767,"x_min":79,"x_max":688,"o":"m 575 967 l 688 967 l 192 -188 l 79 -188 l 575 967 z "},":":{"ha":361,"x_min":79,"x_max":277,"o":"m 79 490 q 91 533 79 509 q 127 573 102 558 q 181 588 152 588 q 247 559 218 588 q 275 488 275 530 q 247 417 275 443 q 171 391 219 391 q 163 392 165 391 q 115 417 122 411 q 89 451 98 431 q 79 490 79 472 m 176 183 q 258 144 226 183 q 277 90 277 124 q 268 41 277 54 q 225 -1 251 14 q 172 -12 207 -12 q 107 17 135 -12 q 80 85 80 45 q 93 137 80 116 q 135 176 106 158 q 176 183 148 183 z "},";":{"ha":361,"x_min":67,"x_max":312,"o":"m 92 496 q 119 561 92 532 q 194 590 146 590 q 255 561 227 590 q 284 500 284 532 q 272 448 284 479 q 241 411 263 426 q 189 395 218 395 q 178 398 184 395 q 161 401 173 401 q 116 432 140 403 q 92 496 92 460 m 70 -199 q 87 -183 73 -190 q 162 -125 134 -161 q 189 -54 189 -90 q 179 -24 189 -35 q 118 15 169 -12 q 67 94 67 43 q 95 161 67 135 q 172 187 123 187 q 269 138 225 187 q 312 12 312 89 q 296 -72 312 -26 q 264 -138 280 -117 q 196 -205 237 -172 q 126 -243 193 -208 q 109 -248 117 -248 q 90 -240 98 -248 q 70 -199 83 -233 z "},"<":{"ha":926,"x_min":92,"x_max":834,"o":"m 834 82 l 92 393 l 92 490 l 834 801 l 834 686 l 237 442 l 834 197 l 834 82 z "},"=":{"ha":926,"x_min":92,"x_max":834,"o":"m 92 654 l 834 654 l 834 548 l 92 548 l 92 654 m 92 335 l 834 335 l 834 228 l 92 228 l 92 335 z "},">":{"ha":926,"x_min":92,"x_max":834,"o":"m 92 801 l 834 490 l 834 393 l 92 82 l 92 197 l 690 441 l 92 685 l 92 801 z "},"?":{"ha":578,"x_min":67,"x_max":522,"o":"m 223 265 l 205 265 l 173 264 q 156 265 169 264 q 140 408 155 269 q 130 485 132 474 l 130 492 q 142 512 130 503 q 193 521 155 521 l 267 521 q 408 551 369 521 q 446 637 446 582 q 405 734 446 693 q 313 774 363 774 q 234 755 287 774 q 148 736 181 736 q 88 755 109 736 q 67 810 67 774 q 95 878 67 852 q 185 903 123 903 q 427 811 332 903 q 522 583 522 720 q 495 461 522 513 q 423 382 469 408 q 298 341 378 356 q 253 330 261 334 q 235 313 240 323 q 223 265 230 302 m 196 180 q 267 153 239 180 q 294 83 294 125 q 266 15 294 43 q 196 -13 237 -13 q 127 15 155 -13 q 98 84 98 43 q 127 152 98 124 q 196 180 157 180 z "},"@":{"ha":1288,"x_min":62,"x_max":1261,"o":"m 800 627 l 965 634 l 841 208 q 820 101 820 138 q 836 65 820 81 q 874 49 852 49 q 996 103 922 49 q 1119 257 1070 157 q 1167 470 1167 357 q 1047 778 1167 657 q 733 898 926 898 q 430 820 566 898 q 214 592 294 741 q 134 272 134 443 q 283 -112 134 37 q 664 -262 433 -262 q 1006 -159 854 -262 q 1220 112 1157 -57 l 1261 112 q 1024 -194 1180 -87 q 663 -300 869 -300 q 232 -131 401 -300 q 62 296 62 37 q 147 625 62 473 q 383 859 231 777 q 719 941 534 941 q 981 881 869 941 q 1149 712 1093 821 q 1206 483 1206 604 q 1145 227 1206 342 q 994 55 1084 111 q 799 0 903 0 q 696 33 732 0 q 661 117 661 66 q 677 214 661 156 q 591 85 621 121 q 506 15 548 37 q 443 0 478 0 q 362 38 395 0 q 330 150 330 77 q 373 360 330 260 q 477 527 416 460 q 608 634 537 594 q 680 653 642 653 q 743 629 718 653 q 777 547 768 606 l 800 627 m 696 604 q 662 590 682 604 q 606 513 642 575 q 537 350 570 450 q 505 186 505 250 q 517 140 505 157 q 545 124 530 124 q 597 156 564 124 q 700 318 655 211 q 745 516 745 426 q 728 586 745 562 q 696 604 715 604 z "},"A":{"ha":911,"x_min":-18,"x_max":939,"o":"m -18 5 l -16 51 q 29 61 -3 55 q 93 79 81 71 q 120 119 104 87 l 257 477 l 418 899 q 460 899 440 899 l 491 899 l 497 886 l 615 607 q 687 434 655 518 q 742 298 719 351 q 779 202 755 266 q 817 115 791 168 q 837 82 830 87 q 877 68 849 72 q 936 53 904 65 q 939 20 939 31 q 939 5 939 15 q 828 9 888 5 q 720 14 768 14 q 642 13 666 14 l 527 7 l 494 5 q 496 51 494 29 l 571 67 q 610 81 605 76 q 617 96 617 87 q 614 115 617 105 l 587 181 l 533 314 l 274 315 q 215 155 260 282 q 202 106 202 119 q 212 81 202 89 q 271 63 227 68 q 319 56 277 62 q 320 22 320 31 q 319 6 320 14 q 118 18 277 6 l 90 13 q -5 5 40 5 l -18 5 m 301 386 q 488 384 460 384 l 505 385 q 452 525 485 445 q 399 648 420 606 l 301 386 z "},"B":{"ha":941,"x_min":50,"x_max":872,"o":"m 50 -1 l 51 53 q 90 60 67 57 q 162 78 134 66 q 174 108 172 94 q 180 220 180 146 l 178 508 q 174 742 178 553 q 167 805 172 793 q 160 812 165 809 q 119 821 149 819 q 53 828 106 821 l 51 876 l 203 880 l 425 887 l 451 888 q 467 888 459 888 q 503 888 474 888 l 547 888 q 659 872 598 888 q 714 849 680 867 q 774 805 749 832 q 812 745 800 779 q 824 675 824 712 q 806 601 824 633 q 750 540 787 568 q 663 495 731 526 q 819 411 765 472 q 872 274 872 349 q 855 180 872 229 q 814 113 843 144 q 732 50 775 71 q 613 16 689 29 q 498 9 575 9 l 382 12 q 208 5 309 12 q 50 -1 180 3 m 366 513 q 429 509 393 509 q 583 547 531 509 q 635 677 635 585 q 586 785 635 742 q 437 829 536 829 q 361 821 408 829 q 362 777 361 806 q 366 615 366 719 l 365 558 q 366 513 365 543 m 374 81 q 456 63 418 63 q 582 86 533 63 q 653 152 631 110 q 675 257 675 194 q 651 361 675 322 q 569 434 617 416 q 425 453 521 453 q 366 447 382 453 l 366 363 l 365 263 l 367 107 q 374 81 368 96 z "},"C":{"ha":941,"x_min":63,"x_max":897,"o":"m 833 868 q 869 752 842 848 q 882 660 882 709 l 821 660 q 686 792 755 752 q 532 833 617 833 q 362 751 427 833 q 275 441 275 640 q 290 277 275 326 q 351 147 314 197 q 426 87 380 109 q 553 56 486 56 q 697 103 628 56 q 831 241 767 149 q 897 247 856 246 q 888 193 894 221 q 872 107 886 182 l 866 87 l 857 55 q 740 7 815 23 q 556 -9 665 -9 q 398 7 473 -9 q 271 56 324 22 q 150 162 194 105 q 84 286 106 219 q 63 437 63 353 q 196 770 63 639 q 536 902 330 902 q 695 893 621 902 q 833 868 769 885 z "},"D":{"ha":1085,"x_min":34,"x_max":1023,"o":"m 35 60 q 77 68 45 62 q 159 97 140 79 q 175 141 172 109 q 180 348 176 149 l 179 422 l 180 513 l 177 744 l 178 771 q 168 798 178 789 q 142 803 163 803 q 101 799 124 803 q 47 793 71 798 q 35 791 43 793 l 34 851 q 149 876 74 864 q 452 897 272 897 q 673 880 603 897 q 845 801 779 853 q 978 639 934 731 q 1023 439 1023 547 q 963 204 1023 302 q 791 47 903 106 q 578 5 713 5 l 439 11 l 398 13 l 343 12 l 327 13 l 270 12 l 195 12 q 125 7 191 12 q 68 5 104 6 q 36 5 47 5 q 35 60 35 20 m 363 815 q 361 785 361 794 l 363 670 l 362 570 q 364 484 364 521 l 363 420 l 365 312 l 363 245 q 398 119 363 153 q 536 72 448 72 q 635 85 604 72 q 741 153 702 111 q 800 274 780 196 q 821 436 821 353 q 777 660 821 573 q 657 790 733 747 q 483 834 581 834 q 363 815 414 834 z "},"E":{"ha":984,"x_min":24,"x_max":932,"o":"m 28 882 q 95 876 66 880 q 219 869 149 869 q 345 873 243 869 q 618 879 496 879 l 741 880 q 863 870 782 880 q 875 833 875 857 l 875 694 l 876 666 q 876 654 876 662 l 848 652 q 825 654 842 652 q 808 694 819 667 l 781 742 q 738 804 766 772 q 694 810 721 809 q 653 813 688 810 q 517 819 590 819 q 370 816 435 819 q 368 682 368 799 l 369 568 l 369 483 q 398 481 386 481 q 571 486 519 481 q 635 499 623 490 q 656 528 647 507 q 680 628 663 543 l 689 629 l 728 628 q 731 536 731 568 q 730 445 731 465 q 729 413 729 425 q 731 354 729 395 q 733 294 733 314 l 733 279 l 685 279 q 675 324 682 290 q 650 403 661 387 q 623 421 642 415 q 523 426 610 426 q 369 420 420 426 q 368 397 368 403 q 371 263 368 317 l 370 117 q 388 81 370 91 q 558 67 416 67 q 718 81 652 67 q 798 127 764 92 q 875 254 844 172 q 909 256 896 256 q 932 256 917 256 q 928 227 930 239 l 924 207 l 899 79 l 887 1 q 817 -1 843 -1 q 614 6 779 -1 q 335 11 498 11 q 135 4 254 11 l 106 4 l 24 1 l 24 48 q 76 56 37 52 q 174 77 146 64 q 181 127 181 97 q 180 166 181 138 l 181 187 l 179 443 l 180 519 l 176 628 l 177 705 l 171 789 q 170 802 171 792 q 149 812 163 810 q 129 816 142 813 q 54 825 90 824 q 24 828 41 826 l 28 882 z "},"F":{"ha":854,"x_min":41,"x_max":813,"o":"m 41 0 l 42 49 q 92 59 57 52 q 161 75 126 66 l 174 83 q 180 138 180 110 l 180 142 l 178 299 l 178 365 l 176 462 l 177 577 l 169 804 q 103 823 159 814 q 64 834 90 826 l 47 838 l 47 886 l 137 882 q 376 874 218 874 q 542 878 456 874 l 555 879 l 588 878 l 602 879 l 630 879 l 751 883 q 773 884 760 883 q 798 886 786 886 q 803 846 802 866 l 813 718 q 809 687 813 698 q 773 684 785 684 q 751 690 760 684 q 736 720 747 694 q 687 801 707 789 q 576 814 667 814 l 482 811 q 388 804 422 810 q 366 798 380 803 q 357 758 357 782 l 359 677 l 357 585 q 362 498 357 514 q 372 493 368 494 l 420 492 l 502 492 q 585 498 529 492 q 633 509 624 503 q 656 537 649 520 q 667 618 663 553 q 685 618 670 618 q 698 619 694 619 q 728 617 705 619 l 724 509 q 721 449 723 474 l 722 434 q 723 334 723 427 q 722 313 723 328 q 702 311 709 311 q 675 315 696 311 q 662 352 669 328 q 628 414 646 406 q 423 431 595 431 q 365 426 398 431 q 360 360 360 397 l 363 157 q 376 87 364 100 q 427 71 383 79 l 440 70 q 494 61 471 68 l 512 57 q 515 30 515 39 q 513 4 515 20 l 500 5 l 479 4 l 382 9 q 231 9 366 9 q 159 5 193 9 q 101 -1 106 -1 q 41 0 57 -1 z "},"G":{"ha":1013,"x_min":64,"x_max":988,"o":"m 878 825 q 888 748 882 806 q 895 663 895 690 q 890 638 895 653 q 840 644 861 639 q 768 743 789 723 q 667 808 728 781 q 562 827 621 827 q 363 726 449 827 q 277 423 277 624 q 310 240 277 329 q 411 101 344 151 q 569 50 478 50 q 663 62 613 50 q 703 83 688 67 q 718 116 714 94 q 723 228 723 155 q 721 325 723 298 q 712 338 716 335 q 684 348 707 341 l 624 364 q 600 376 604 369 q 598 389 598 385 q 603 415 598 398 q 620 419 615 419 q 748 414 694 419 q 789 412 767 412 l 897 414 l 942 415 q 987 414 950 416 q 988 384 988 396 q 983 367 988 376 q 944 350 972 360 q 913 336 916 340 q 905 319 907 331 q 903 239 903 308 q 903 143 903 159 q 900 86 900 93 q 893 55 900 61 q 775 12 874 36 q 546 -12 677 -12 q 387 2 454 -12 q 272 45 319 17 q 163 138 208 83 q 95 255 117 192 q 64 433 64 345 q 110 635 64 533 q 205 769 144 709 q 359 863 267 828 q 559 899 451 899 q 604 895 573 899 q 758 874 686 895 q 878 825 830 854 z "},"H":{"ha":1201,"x_min":43,"x_max":1148,"o":"m 43 7 q 47 55 43 27 l 132 70 q 170 81 148 73 l 178 250 q 176 387 176 342 l 176 404 q 178 543 178 431 l 177 563 l 178 620 l 178 679 l 178 708 q 172 800 178 747 q 166 817 171 805 q 154 819 161 819 q 141 821 148 820 q 85 828 115 826 l 75 831 q 47 836 56 833 q 45 861 45 856 q 49 884 45 869 q 87 886 62 886 q 121 887 111 886 q 243 878 203 878 q 280 877 262 878 q 313 876 299 876 q 422 882 336 876 q 454 886 437 886 q 496 883 479 886 q 496 863 496 869 q 494 836 496 852 l 374 817 q 359 798 359 810 l 361 772 l 362 762 l 361 732 l 360 709 l 360 703 q 361 690 361 696 l 360 604 q 361 586 361 592 q 359 564 361 583 q 359 542 359 553 q 361 494 359 532 q 393 490 380 490 l 493 488 l 542 488 l 664 487 l 783 490 q 831 495 806 490 q 833 608 833 518 l 835 639 l 831 754 l 826 802 q 817 810 824 806 q 722 841 793 824 q 697 848 709 844 q 703 886 699 871 q 721 887 718 887 l 787 886 q 915 878 850 878 q 939 879 930 878 l 1027 882 q 1050 883 1039 882 q 1101 888 1075 888 q 1148 886 1120 888 q 1145 838 1147 860 q 1063 820 1082 825 q 1024 804 1044 814 l 1020 790 l 1020 779 l 1021 761 l 1020 752 q 1019 730 1019 738 l 1019 713 q 1019 680 1019 683 l 1019 593 l 1020 528 l 1019 442 q 1021 320 1018 412 l 1021 224 l 1022 144 q 1021 90 1022 121 q 1047 83 1035 85 q 1143 55 1111 69 l 1145 7 q 1114 7 1118 7 q 1039 11 1081 7 q 860 17 983 17 q 716 8 804 17 q 693 12 707 8 q 696 56 694 43 l 749 68 l 804 77 q 825 83 812 79 q 833 266 832 138 l 833 323 q 829 410 829 359 q 775 412 804 412 l 460 416 l 454 416 l 450 417 q 439 416 445 417 q 409 416 421 416 l 390 416 q 361 411 377 416 l 358 360 l 358 351 q 359 328 359 333 l 359 117 q 361 81 359 100 l 368 77 l 468 62 q 479 58 475 59 q 494 52 488 56 q 496 31 496 37 q 494 7 496 22 q 452 6 469 6 q 425 7 437 6 q 413 7 418 7 l 317 12 q 222 15 283 15 l 208 14 q 175 12 180 13 q 43 7 133 7 z "},"I":{"ha":550,"x_min":56,"x_max":489,"o":"m 56 4 l 56 53 q 100 64 69 57 q 166 87 144 75 q 178 145 178 108 l 178 225 l 179 380 l 178 416 q 183 555 183 551 l 182 645 l 184 682 l 180 759 l 180 788 q 175 810 179 795 q 85 826 147 823 q 61 828 70 827 l 59 888 l 253 880 q 298 878 289 878 q 426 884 338 878 q 488 888 475 887 q 489 866 489 875 q 488 836 489 854 q 426 818 460 827 q 368 801 391 810 q 364 750 364 783 q 366 703 364 721 q 364 526 364 588 l 365 347 l 363 256 l 364 121 l 363 95 q 366 79 363 90 q 441 67 408 71 q 483 62 448 66 q 486 28 486 41 q 485 5 486 20 q 471 4 476 5 q 446 3 450 3 q 429 5 441 3 q 338 14 419 6 l 218 16 q 114 9 182 16 q 56 4 69 5 z "},"J":{"ha":521,"x_min":-81,"x_max":480,"o":"m 69 -173 q 117 -233 96 -220 q 136 -238 129 -238 q 162 -222 151 -238 q 178 -146 178 -199 l 178 -106 q 180 -36 178 -69 q 182 -4 182 -17 q 180 42 182 2 l 181 93 l 179 347 q 178 380 179 368 q 176 432 176 407 l 177 579 l 174 704 l 170 749 q 170 812 170 799 q 78 823 155 815 l 62 823 l 44 825 q 31 827 40 825 l 28 885 q 142 881 94 885 q 269 876 189 876 q 418 884 337 876 q 445 886 435 886 q 479 884 456 886 q 480 860 480 868 q 478 833 480 851 q 412 826 428 826 q 359 820 376 825 q 359 800 359 804 q 360 720 359 734 q 362 642 362 706 l 362 585 l 365 498 l 363 429 l 366 360 l 365 289 l 366 237 q 353 3 366 86 q 313 -133 340 -80 q 241 -239 273 -208 q 138 -308 189 -288 q 37 -327 87 -327 q -46 -294 -11 -327 q -81 -216 -81 -260 q -56 -157 -81 -180 q 3 -133 -31 -133 q 69 -173 35 -133 z "},"K":{"ha":941,"x_min":37,"x_max":986,"o":"m 37 46 q 158 96 106 81 q 176 118 172 104 q 180 224 180 132 q 178 273 180 237 l 178 290 l 178 433 l 178 535 l 179 565 l 179 592 q 181 623 179 602 l 178 652 l 178 660 q 180 687 180 671 q 170 793 180 759 q 88 826 144 812 q 39 844 56 834 l 44 886 q 68 888 56 888 q 170 882 123 888 q 302 876 218 876 l 371 879 q 450 883 422 880 q 478 885 470 885 q 498 884 487 885 q 500 869 500 878 q 498 840 500 849 q 416 817 455 824 q 371 805 376 810 q 362 781 362 797 l 362 728 q 363 691 362 717 q 365 635 365 651 q 363 590 365 625 l 363 538 l 362 490 q 363 480 362 486 q 493 607 412 522 q 553 668 531 647 q 649 768 562 677 q 679 812 677 806 l 673 817 q 610 826 631 825 q 564 836 596 827 q 563 876 563 846 l 564 884 l 593 884 q 651 881 615 884 q 705 878 686 878 l 869 881 q 954 888 907 885 l 954 835 q 909 825 942 832 q 799 785 827 800 q 742 748 770 771 q 637 654 713 726 q 513 536 533 558 q 544 501 526 521 l 566 478 q 581 461 572 471 l 725 295 l 844 146 q 872 112 865 121 l 883 100 q 899 82 895 85 q 927 72 905 78 q 985 48 939 69 q 986 29 986 36 q 983 4 986 21 l 909 5 q 867 9 896 7 l 801 12 l 787 12 l 693 12 q 618 7 680 12 q 574 5 585 5 q 558 5 569 5 q 555 23 555 16 q 557 47 555 31 q 618 64 587 58 q 648 76 641 68 q 656 92 656 83 q 654 102 656 98 q 633 137 648 118 q 536 247 627 143 l 364 440 q 361 385 361 416 q 364 313 361 342 q 366 224 365 307 l 365 162 l 368 95 q 435 65 387 78 q 487 43 464 58 q 489 23 489 30 q 488 6 489 18 q 438 5 456 5 q 406 5 419 5 l 310 10 q 271 12 290 12 q 222 9 252 12 l 102 10 q 37 8 94 10 l 37 46 z "},"L":{"ha":882,"x_min":26,"x_max":878,"o":"m 31 60 q 91 72 52 66 q 136 78 129 78 q 171 87 162 79 q 175 114 175 103 l 174 201 l 178 289 l 178 345 l 178 412 l 177 482 l 180 633 l 180 702 l 180 711 q 171 790 176 783 q 132 808 167 797 q 106 818 129 809 q 76 827 90 825 q 43 842 52 833 q 41 869 41 859 q 42 885 41 874 q 55 888 48 888 q 173 883 71 888 l 270 884 l 342 882 q 462 888 389 882 q 487 890 484 890 q 501 885 497 890 q 507 858 507 878 q 499 834 507 842 q 469 826 495 829 l 385 806 q 374 801 382 805 q 370 793 371 796 l 369 774 l 367 731 l 367 719 l 368 711 q 366 674 368 708 q 365 656 365 665 q 366 620 365 646 q 368 549 368 579 q 366 468 368 513 q 366 424 366 451 l 363 102 q 370 76 363 82 l 434 73 l 474 74 l 517 73 q 688 98 626 73 q 749 136 735 117 q 787 180 772 156 q 820 258 802 203 l 842 258 q 878 256 858 258 l 878 237 q 866 66 878 188 q 857 6 861 17 q 837 3 841 3 l 812 3 l 777 3 q 696 8 770 3 q 566 13 682 9 q 339 17 450 17 l 201 13 q 51 5 121 11 l 41 5 q 28 6 37 5 q 26 19 26 14 q 31 60 26 47 z "},"M":{"ha":1273,"x_min":28,"x_max":1242,"o":"m 28 5 l 30 51 q 138 85 115 62 q 161 170 153 102 l 170 412 l 180 657 q 181 684 181 680 q 170 795 181 780 q 83 824 159 810 q 53 831 64 828 q 52 859 52 848 l 52 880 q 111 882 77 882 l 309 876 q 328 874 316 875 l 359 873 q 382 837 371 859 q 449 692 408 787 l 456 673 l 562 444 q 573 420 566 435 q 594 373 583 395 q 617 325 605 351 q 640 278 629 298 q 658 314 649 294 q 711 429 685 376 q 832 711 755 521 q 872 803 844 741 q 903 867 901 864 q 928 873 909 873 q 949 873 935 873 q 1034 877 984 876 q 1148 881 1105 878 q 1196 885 1191 885 q 1213 884 1203 885 q 1213 869 1213 874 l 1212 848 q 1211 830 1212 842 q 1107 802 1147 821 q 1080 768 1080 788 l 1080 758 l 1091 550 q 1102 267 1093 522 q 1111 123 1104 210 q 1112 106 1112 112 q 1119 85 1113 90 q 1241 45 1126 80 q 1242 29 1242 35 q 1241 1 1242 15 q 1149 8 1223 1 q 1010 16 1075 16 q 819 8 912 16 q 795 6 807 7 l 797 53 q 871 71 825 64 q 912 90 903 77 q 921 161 921 102 q 920 201 921 184 q 916 399 917 272 l 905 638 q 900 709 903 689 l 731 321 q 713 281 725 307 q 692 236 697 248 q 619 44 640 111 q 603 0 614 27 l 551 1 l 514 104 q 458 228 498 145 q 422 306 435 276 q 414 324 416 318 l 406 341 q 404 348 405 345 l 302 566 l 241 698 l 235 377 l 231 169 q 250 95 231 117 q 333 58 269 73 l 366 50 l 366 0 q 281 6 326 1 q 161 11 236 11 q 28 5 146 11 z "},"N":{"ha":1172,"x_min":5,"x_max":1131,"o":"m 7 829 l 5 876 l 62 876 l 82 877 q 138 879 123 879 q 186 878 146 879 q 201 877 195 877 q 243 878 207 877 q 285 880 280 880 q 306 879 292 880 q 476 715 410 784 q 956 236 542 647 l 956 253 l 954 332 q 948 441 951 401 q 944 537 945 481 q 939 639 943 593 q 931 741 931 728 q 922 795 930 785 q 857 817 907 810 q 801 833 819 823 l 802 873 l 819 875 l 953 879 l 1102 883 q 1131 884 1117 884 l 1131 840 q 1099 827 1116 831 q 1049 813 1056 817 q 1012 789 1015 793 q 1006 764 1006 781 q 1007 736 1006 760 q 1008 679 1008 724 q 1013 524 1008 581 q 1015 482 1015 505 l 1023 244 q 1023 209 1023 219 l 1023 125 l 1025 90 l 1023 54 q 1026 20 1026 26 l 1026 -16 l 948 -18 l 867 65 l 703 229 l 587 344 l 503 431 q 352 574 420 512 l 241 673 l 248 421 q 248 374 248 398 l 248 326 l 252 237 q 259 116 254 181 q 262 91 260 98 q 271 71 264 84 q 386 56 297 61 q 404 52 392 55 l 406 -3 l 380 -4 q 243 6 358 -4 q 99 2 135 5 q 60 -1 63 -1 q 37 2 52 -1 q 36 29 36 18 q 37 54 36 37 q 68 57 56 57 q 94 56 72 57 q 162 64 151 56 q 174 110 172 73 q 178 241 178 218 l 178 279 l 180 499 l 178 637 q 168 746 177 715 q 152 773 163 762 q 99 810 128 798 q 7 829 81 817 z "},"O":{"ha":1099,"x_min":61,"x_max":1034,"o":"m 61 454 q 94 623 61 538 q 160 735 117 684 q 267 826 203 786 q 399 883 332 865 q 549 900 466 900 q 793 847 690 900 q 957 704 897 794 q 1034 458 1034 587 q 904 129 1034 266 q 541 -8 773 -8 q 433 -1 483 -8 q 366 14 395 5 q 309 34 315 31 q 190 120 235 76 q 114 220 145 164 q 75 332 97 251 q 61 454 61 385 m 523 833 q 418 805 464 833 q 350 745 373 778 q 295 622 311 688 q 279 459 279 555 q 283 376 279 401 q 288 348 285 368 q 302 275 294 298 q 343 168 331 189 q 404 100 363 134 q 463 67 424 82 q 540 53 501 53 q 676 87 613 53 q 777 203 739 121 q 814 417 814 286 q 807 564 814 471 l 804 577 q 797 605 802 583 q 701 774 772 716 q 523 833 630 833 z "},"P":{"ha":854,"x_min":33,"x_max":816,"o":"m 33 837 l 33 888 l 195 878 l 267 879 l 294 879 q 423 884 335 879 q 486 887 473 887 q 615 878 572 887 q 721 834 682 864 q 788 749 760 804 q 816 646 816 694 q 742 455 816 528 q 554 381 667 381 q 479 391 515 381 q 412 419 444 400 q 409 473 409 439 q 438 471 425 472 q 462 471 452 471 q 559 503 519 471 q 611 637 611 544 q 588 746 611 703 q 534 803 566 788 q 437 823 491 823 q 364 808 386 823 q 356 791 359 800 l 361 472 l 359 445 l 361 416 q 362 389 362 407 l 362 333 l 363 244 l 361 138 q 366 78 361 116 l 500 61 q 503 35 503 45 q 500 7 503 25 q 474 4 483 4 q 395 9 453 4 q 262 14 336 14 q 102 3 178 14 q 61 0 89 1 q 58 29 58 20 q 60 48 58 35 l 101 62 q 175 93 144 75 q 181 129 181 113 q 180 144 181 136 q 180 203 180 165 l 178 394 l 170 609 q 163 774 165 762 q 146 805 158 794 q 108 821 135 817 q 33 837 52 831 z "},"Q":{"ha":1099,"x_min":61,"x_max":1042,"o":"m 724 14 q 771 -19 755 -6 q 945 -136 869 -98 q 1041 -164 977 -153 q 1042 -207 1042 -191 q 1041 -235 1042 -220 q 1004 -237 1024 -237 q 842 -223 909 -237 q 713 -177 794 -213 q 498 -58 632 -141 q 386 3 435 -18 q 212 108 281 48 q 102 252 142 168 q 61 437 61 336 q 121 674 61 563 q 316 854 182 785 q 547 901 407 901 q 732 874 657 901 q 861 802 806 847 q 954 703 916 758 q 1012 583 991 648 q 1034 446 1034 518 q 1006 288 1034 362 q 934 160 978 214 q 831 65 890 106 q 724 14 795 41 m 553 50 q 666 81 603 50 q 773 199 730 113 q 817 438 817 286 q 793 627 817 553 q 739 739 769 700 q 663 804 709 779 q 539 838 603 838 q 444 819 481 838 q 353 745 385 789 q 295 603 309 684 q 281 451 281 523 q 297 288 281 371 q 344 156 313 205 q 429 78 376 106 q 553 50 482 50 z "},"R":{"ha":969,"x_min":55,"x_max":987,"o":"m 57 46 q 109 60 75 56 q 172 75 144 64 q 176 94 175 88 q 177 159 177 104 l 176 311 l 179 392 l 178 455 l 179 492 q 181 630 181 566 q 178 810 181 771 l 138 819 q 64 825 83 822 l 63 866 l 66 873 q 128 879 100 879 q 191 880 144 879 q 244 876 240 876 l 280 878 l 365 882 q 532 890 444 890 q 753 819 671 890 q 836 656 836 748 q 791 532 836 588 q 654 448 747 476 q 676 414 663 433 q 722 345 705 374 l 831 170 q 884 88 871 100 q 936 62 897 76 q 983 39 966 50 q 987 18 987 27 q 986 3 987 12 l 968 3 l 954 2 l 919 7 l 891 7 q 838 10 869 10 l 770 11 q 722 6 762 11 q 693 3 704 4 l 670 47 q 630 123 642 98 q 528 333 600 189 q 480 408 494 399 q 410 422 460 422 q 364 421 397 422 q 362 374 362 401 l 365 224 l 361 96 q 411 79 380 85 q 502 53 464 68 q 499 3 502 20 q 483 3 486 3 l 455 2 q 282 15 309 15 q 257 14 264 15 l 163 8 q 85 3 121 3 l 56 3 q 55 25 55 20 q 57 46 55 33 m 362 485 q 410 484 395 484 q 573 525 525 484 q 621 635 621 566 q 609 716 621 678 q 580 772 597 753 q 514 812 555 798 q 418 822 484 822 q 365 819 387 822 l 364 806 l 365 714 l 363 659 l 364 585 q 362 504 363 553 l 362 485 z "},"S":{"ha":709,"x_min":69,"x_max":662,"o":"m 573 863 q 585 793 580 840 q 593 684 593 723 q 591 658 593 672 l 584 656 l 535 659 l 527 661 q 467 782 497 750 q 346 836 416 836 q 240 801 279 836 q 201 715 201 766 q 240 631 201 671 q 401 555 278 591 q 502 515 443 543 q 591 456 560 488 q 647 375 631 414 q 662 278 662 336 q 638 153 662 214 q 597 91 625 120 q 534 43 576 71 q 445 3 491 16 q 328 -9 399 -9 q 214 5 280 -9 l 133 28 q 90 45 99 38 q 84 58 87 48 l 84 66 q 81 159 84 73 q 79 221 79 203 l 79 247 l 142 248 q 184 157 174 173 q 230 101 205 123 q 291 67 256 80 q 368 55 326 55 q 448 71 404 55 q 519 122 492 86 q 546 198 546 157 q 499 291 546 248 q 346 361 471 317 q 173 440 221 406 q 97 533 125 475 q 69 644 69 591 q 146 827 69 752 q 374 903 224 903 q 471 891 407 903 q 573 863 509 884 z "},"T":{"ha":955,"x_min":-1,"x_max":913,"o":"m 73 920 l 115 920 q 121 909 119 913 q 151 867 140 877 q 243 864 159 864 q 336 865 296 864 l 350 867 l 432 867 l 585 866 l 795 866 l 835 872 q 854 905 844 878 q 861 922 857 911 l 891 922 q 911 922 898 922 q 912 781 912 875 l 913 720 l 912 686 q 909 655 912 668 q 861 644 882 646 q 822 721 843 671 q 796 777 802 771 q 777 788 788 785 q 633 791 761 791 q 586 789 614 791 q 582 745 582 762 l 583 654 l 583 455 l 585 240 l 585 152 q 593 81 585 105 q 633 73 604 77 q 683 62 638 72 q 719 51 703 57 q 722 21 722 26 q 720 3 722 15 q 696 3 705 3 q 577 8 626 3 q 400 13 528 13 q 281 5 380 13 q 231 2 242 2 q 229 18 230 12 l 229 33 l 229 39 q 285 68 243 58 q 382 98 355 85 q 391 132 389 111 q 395 391 395 214 l 392 648 q 388 776 392 753 q 383 785 387 782 q 374 789 380 788 q 237 791 353 791 q 151 779 173 791 q 64 687 122 762 q 39 665 47 665 q -1 692 7 682 q 57 868 20 736 q 73 920 68 907 z "},"U":{"ha":1056,"x_min":24,"x_max":998,"o":"m 26 825 l 24 879 q 50 880 37 880 q 121 878 83 880 q 226 873 210 873 q 332 875 280 873 q 424 878 384 878 q 479 880 465 879 l 478 871 l 479 831 l 479 826 q 401 821 441 821 q 351 806 363 821 q 342 725 342 796 q 343 690 342 703 l 344 665 l 342 602 l 347 547 l 344 430 l 353 260 q 385 137 356 186 q 446 81 407 101 q 558 52 503 52 q 680 69 623 52 q 742 100 713 79 q 783 139 772 121 q 817 209 808 176 q 830 348 830 254 q 812 718 830 512 l 810 753 q 795 807 808 793 q 746 828 773 828 l 682 827 l 673 829 l 675 880 l 728 880 l 858 875 q 982 881 923 875 l 994 880 q 998 848 998 857 q 995 830 998 841 q 942 821 970 823 q 892 811 897 815 q 882 786 882 803 q 884 751 882 774 q 886 692 886 734 q 887 654 886 668 q 888 627 887 641 q 891 528 890 578 l 898 390 q 888 205 898 252 q 863 131 879 158 q 791 56 838 90 q 676 2 745 22 q 515 -18 607 -18 q 334 10 410 -18 q 221 84 259 38 q 168 203 182 130 q 158 347 158 253 l 159 670 q 148 800 159 785 q 55 823 133 821 q 26 825 38 823 z "},"V":{"ha":926,"x_min":-16,"x_max":938,"o":"m -16 831 l -16 889 q 27 888 20 888 q 246 878 111 878 q 329 882 267 878 q 396 889 374 886 l 446 889 q 447 833 447 840 q 368 822 379 825 q 323 800 338 814 q 316 783 316 793 q 317 768 316 775 l 340 709 q 418 521 363 640 l 496 346 q 536 250 518 295 l 576 346 l 656 570 l 675 617 q 684 646 679 627 q 714 737 702 706 q 726 788 726 768 q 713 810 726 801 q 648 829 693 825 q 623 834 639 832 q 595 838 608 836 q 591 859 591 852 q 594 890 591 867 q 664 884 606 890 q 777 879 722 879 q 873 884 833 879 q 938 890 913 889 l 938 868 q 937 844 938 860 q 835 800 850 812 q 817 778 825 793 q 738 594 791 732 l 651 370 q 624 301 639 337 q 593 221 610 264 q 562 140 590 211 l 555 127 q 510 -5 525 32 q 476 -6 483 -6 q 440 -5 463 -6 q 425 37 433 16 q 368 184 418 58 l 239 471 l 163 656 q 98 791 104 783 q 73 816 87 808 q 14 827 58 823 l -16 831 z "},"W":{"ha":1244,"x_min":-1,"x_max":1249,"o":"m 2 833 l -1 875 q 12 880 7 880 q 124 873 68 876 q 154 873 147 873 q 211 875 178 873 l 299 879 q 305 871 304 876 l 300 840 q 275 826 287 832 q 248 802 248 811 q 254 779 248 793 q 265 751 258 771 q 330 590 277 718 l 506 180 q 614 397 541 245 l 514 636 q 466 747 486 703 q 454 774 459 761 q 444 794 450 781 q 422 815 437 807 q 355 837 408 824 l 357 878 q 417 876 379 878 q 488 871 472 871 l 583 873 l 700 880 q 709 879 703 879 l 710 856 l 710 848 q 707 837 710 844 q 671 831 696 833 q 646 823 653 829 q 639 809 639 817 q 653 760 639 789 q 669 720 659 747 q 722 593 703 633 l 769 692 q 812 791 802 760 q 814 803 814 798 l 814 807 q 799 819 806 816 q 741 837 782 827 q 740 857 740 850 q 742 879 740 864 q 869 876 764 879 q 947 873 930 873 q 972 874 962 873 q 996 874 983 874 l 997 869 l 995 838 l 994 835 q 906 804 920 814 q 879 773 892 795 q 753 524 845 713 l 756 517 l 800 417 l 873 243 q 890 205 885 217 l 975 429 l 1095 733 l 1114 790 q 1115 801 1115 795 l 1113 812 q 1075 824 1090 820 q 1050 834 1061 827 q 1048 862 1048 857 q 1053 876 1048 867 l 1063 878 l 1165 873 l 1232 878 l 1246 876 q 1249 854 1249 863 q 1244 834 1249 842 q 1230 826 1240 829 q 1192 800 1202 812 q 1171 755 1185 792 q 1049 449 1112 596 q 863 -20 987 302 l 794 -20 q 779 21 787 4 q 756 77 760 65 l 681 250 q 651 315 663 294 q 646 324 649 318 q 574 188 644 321 q 471 -19 504 56 l 402 -20 q 307 210 378 55 l 87 722 q 38 815 53 800 q 18 827 33 821 q 2 833 12 829 z "},"X":{"ha":955,"x_min":7,"x_max":954,"o":"m 8 882 q 47 883 33 883 q 74 882 64 883 l 111 880 l 127 880 q 152 877 131 880 q 261 871 190 871 q 428 882 349 871 q 452 880 439 881 q 450 835 450 857 q 436 829 440 830 l 369 817 q 347 810 361 815 q 349 792 347 798 q 442 651 399 707 l 508 557 l 515 546 l 554 593 l 638 716 q 677 784 669 762 q 680 797 680 791 l 677 808 q 656 817 664 815 q 630 819 651 818 q 567 824 595 819 q 565 844 565 838 q 566 861 565 848 q 567 876 566 865 q 581 880 574 877 q 833 876 642 876 q 876 878 857 876 q 899 880 895 880 q 920 878 906 880 q 923 853 923 864 q 922 831 923 846 l 818 809 q 789 790 805 804 q 705 688 774 777 l 607 561 q 579 524 590 538 q 559 499 568 510 l 569 485 q 645 377 606 431 l 780 178 q 859 80 833 98 q 952 53 878 67 q 954 35 954 39 q 951 10 954 32 l 953 4 l 905 3 q 844 6 889 3 l 760 12 l 751 13 q 732 14 737 14 q 631 9 689 14 q 545 4 572 4 q 488 5 528 4 l 488 23 q 489 48 488 35 q 598 71 541 62 q 615 80 606 75 l 616 87 q 614 100 616 94 q 595 137 610 113 q 514 252 565 184 l 433 359 q 324 209 418 341 q 274 136 294 175 q 260 104 260 111 l 261 98 l 270 86 q 332 63 295 75 q 380 47 370 51 l 385 16 l 385 12 l 383 5 q 357 2 363 2 q 292 7 346 2 q 226 10 273 9 l 194 11 l 44 4 q 12 5 39 4 l 9 35 q 12 53 9 41 q 41 56 23 54 q 122 75 94 61 q 165 117 134 81 q 252 220 213 170 q 287 265 274 250 q 395 407 323 315 l 355 467 q 288 556 311 521 l 248 614 q 217 662 224 652 q 140 774 184 704 q 96 812 123 800 q 10 828 70 825 l 10 838 q 9 849 10 846 q 7 866 7 862 l 8 882 z "},"Y":{"ha":911,"x_min":-26,"x_max":935,"o":"m -24 878 q 61 883 -5 883 l 68 882 q 92 879 85 879 l 98 880 q 154 875 109 878 q 288 869 238 869 q 394 876 342 869 q 405 878 401 878 l 410 877 q 414 863 414 868 l 413 828 q 376 819 397 822 l 345 813 q 300 806 328 810 l 296 803 l 294 794 q 389 644 317 746 q 427 583 408 612 q 466 520 433 576 q 473 508 469 514 q 486 490 479 498 q 500 467 497 473 q 524 434 514 446 l 594 533 q 684 663 629 578 l 687 667 l 745 769 q 758 798 758 789 q 756 810 758 802 q 739 818 746 817 q 711 821 736 819 q 684 825 696 823 q 663 829 671 827 q 659 880 661 838 l 798 872 q 814 869 804 871 l 847 869 l 859 870 q 915 876 880 873 q 935 878 925 876 l 934 827 l 925 824 q 847 799 868 814 q 765 688 817 776 l 677 555 q 574 408 597 448 q 564 385 568 399 l 564 363 l 564 304 l 564 288 q 562 252 562 271 l 564 78 q 572 71 567 73 q 615 64 581 68 q 688 52 680 57 q 693 39 693 49 q 692 22 693 33 q 691 3 692 16 l 613 5 l 541 11 l 490 14 l 415 12 l 359 12 q 328 9 349 12 q 277 3 294 3 l 231 4 q 230 26 230 18 q 231 48 230 33 l 355 74 q 371 81 363 77 q 372 119 372 112 q 370 261 372 223 q 369 304 369 298 l 369 320 q 324 418 369 363 q 300 450 305 442 l 168 652 l 105 752 q 63 808 102 758 q 39 823 51 819 q -22 837 33 825 q -26 848 -26 843 q -25 858 -26 852 q -24 878 -24 865 z "},"Z":{"ha":926,"x_min":31,"x_max":862,"o":"m 33 7 q 31 61 31 31 q 219 312 75 124 l 260 365 q 293 408 272 378 q 375 515 324 452 q 504 687 425 578 q 557 759 537 732 q 598 813 587 795 l 581 813 l 522 814 q 339 804 446 814 q 195 781 231 794 q 147 752 167 770 q 94 694 109 717 q 83 678 88 686 q 54 675 57 675 q 37 677 47 675 q 96 914 41 704 l 137 917 q 166 863 159 869 q 217 853 180 853 q 229 854 224 853 l 234 854 q 496 867 288 858 q 701 873 628 873 l 752 872 l 839 873 q 841 845 840 858 q 793 777 838 836 q 744 709 762 735 l 713 664 l 711 661 l 522 413 l 376 218 q 273 78 315 138 q 378 71 315 71 l 425 71 l 454 69 q 587 77 536 69 q 672 104 637 85 q 736 151 707 122 q 814 253 765 179 q 845 255 836 255 l 862 255 l 850 110 l 850 104 q 840 3 850 90 l 568 11 q 514 12 534 12 l 435 12 l 359 12 l 345 12 l 159 7 q 115 5 134 5 q 79 5 99 5 q 33 7 52 7 z "},"[":{"ha":507,"x_min":170,"x_max":473,"o":"m 170 876 q 448 878 208 878 l 473 878 l 473 835 q 465 827 469 827 q 330 788 344 799 q 321 751 321 781 l 321 745 q 324 536 323 695 l 327 427 q 322 298 327 410 l 324 145 l 323 95 l 326 -5 l 323 -67 l 323 -152 l 323 -172 q 324 -203 323 -179 q 326 -229 325 -212 q 418 -251 346 -238 q 468 -261 454 -258 q 471 -294 471 -284 q 469 -313 471 -302 l 173 -312 q 172 -284 172 -289 l 172 -216 l 172 -102 l 174 -27 l 172 45 l 172 79 l 172 583 l 172 649 q 172 694 172 676 q 171 726 171 722 l 173 782 q 171 824 173 785 q 170 876 170 842 z "},"\\":{"ha":767,"x_min":81,"x_max":686,"o":"m 81 967 l 194 967 l 686 -188 l 573 -188 l 81 967 z "},"]":{"ha":507,"x_min":28,"x_max":334,"o":"m 180 795 q 77 820 149 808 q 37 828 50 824 q 35 857 35 844 q 35 879 35 866 q 100 880 73 880 q 332 878 292 880 q 334 851 334 854 l 332 648 l 331 598 q 333 463 330 587 l 333 444 l 330 290 q 332 220 330 271 l 330 -28 l 331 -61 l 330 -107 l 331 -166 l 330 -220 q 331 -265 329 -224 q 332 -284 332 -275 q 329 -311 332 -296 l 29 -311 q 28 -277 28 -292 q 32 -263 28 -267 q 56 -256 36 -260 q 170 -224 150 -237 q 178 -205 178 -218 l 178 -100 l 178 32 l 177 96 l 179 140 l 179 254 l 180 339 q 180 385 180 363 l 179 418 l 180 484 l 178 621 q 180 701 178 650 q 181 739 181 728 q 180 795 181 747 z "},"^":{"ha":810,"x_min":102,"x_max":710,"o":"m 102 452 l 380 939 l 436 939 l 710 452 l 602 452 l 402 799 l 205 452 l 102 452 z "},"_":{"ha":694,"x_min":-8,"x_max":703,"o":"m -8 -104 l 703 -104 l 703 -174 l -8 -174 l -8 -104 z "},"`":{"ha":463,"x_min":82,"x_max":337,"o":"m 82 868 l 267 868 q 281 827 274 850 q 299 771 291 795 q 337 650 330 680 l 283 652 l 82 868 z "},"a":{"ha":665,"x_min":68,"x_max":651,"o":"m 627 132 l 643 121 q 650 110 649 117 l 651 106 q 608 23 635 46 q 543 1 582 1 q 474 23 503 1 q 421 100 445 45 q 339 23 392 49 q 210 -3 286 -3 q 106 26 139 -3 q 73 104 73 56 q 82 149 73 126 q 114 195 92 172 q 185 245 136 218 q 237 268 193 249 l 406 336 q 408 388 408 361 q 385 513 408 479 q 338 533 372 533 q 275 520 304 533 q 234 487 247 507 q 218 431 224 472 q 209 396 213 401 q 172 373 199 383 q 136 357 145 362 q 77 340 99 340 q 68 363 68 348 q 84 429 68 401 q 158 506 109 469 q 250 557 207 543 q 392 576 308 576 q 485 556 446 576 q 539 497 524 536 q 555 355 555 458 l 553 243 l 554 161 l 554 140 q 562 101 554 112 q 582 91 570 91 q 595 95 589 91 l 615 127 l 627 132 m 405 289 q 318 246 366 276 q 250 185 269 216 q 237 130 237 163 q 254 82 237 101 q 295 63 272 63 q 359 85 333 63 q 401 131 395 114 q 408 229 408 149 q 405 289 408 259 z "},"b":{"ha":767,"x_min":28,"x_max":718,"o":"m 28 821 l 86 842 q 199 899 108 850 l 229 899 q 250 897 241 899 q 250 870 250 878 l 250 842 l 253 587 l 252 490 q 304 535 272 511 q 342 554 311 540 q 391 573 372 569 q 448 581 423 581 q 558 564 515 581 q 638 510 600 547 q 701 409 675 474 q 718 308 718 368 q 704 221 718 269 q 661 126 691 172 q 600 61 640 93 q 509 10 560 29 q 393 -3 475 -3 q 224 53 317 -3 q 189 73 199 68 q 158 26 175 54 q 136 -11 142 -2 l 102 -12 q 103 22 102 5 q 105 54 105 39 l 104 104 l 106 121 q 108 159 108 132 l 108 655 q 103 752 108 730 q 98 762 102 759 q 28 789 94 765 l 28 821 m 254 450 l 254 344 q 262 134 254 168 q 307 74 271 99 q 385 48 344 48 q 444 60 414 48 q 490 87 474 73 q 525 135 513 110 q 548 207 543 174 q 554 278 554 252 q 531 388 554 334 q 468 470 509 443 q 378 496 427 496 q 308 479 349 496 q 254 450 267 463 z "},"c":{"ha":651,"x_min":54,"x_max":622,"o":"m 581 181 q 597 173 591 175 q 622 156 612 166 q 533 39 604 88 q 355 -11 463 -11 q 220 18 287 -11 q 115 93 154 46 q 69 181 84 129 q 54 270 54 233 q 73 370 54 314 q 136 475 92 426 q 249 554 181 525 q 403 583 317 583 q 566 547 520 583 q 612 473 612 510 q 594 417 612 437 q 543 396 575 396 q 491 414 515 396 q 452 476 468 433 q 421 522 440 507 q 376 535 402 535 q 262 480 312 535 q 212 332 212 426 q 273 152 212 218 q 412 85 334 85 q 478 94 451 85 q 524 120 495 100 q 552 149 532 125 q 581 181 573 173 z "},"d":{"ha":767,"x_min":53,"x_max":755,"o":"m 179 524 q 243 557 212 547 q 330 573 274 568 l 368 573 q 510 522 442 573 l 511 538 l 511 584 l 513 656 q 496 802 513 771 q 460 821 486 820 q 419 830 435 823 l 419 863 q 452 867 432 867 q 532 881 473 867 l 555 886 l 622 901 q 647 906 642 906 q 658 905 650 906 q 662 884 662 890 l 661 873 l 661 861 q 663 760 661 842 l 663 724 l 664 704 l 663 670 l 665 600 l 664 558 q 663 473 663 531 q 663 456 663 463 l 663 431 q 663 414 663 420 q 665 385 663 404 l 665 348 l 664 334 q 663 279 663 314 q 664 216 663 244 q 665 195 665 204 l 665 144 q 666 85 665 119 q 726 75 678 78 q 752 71 741 74 q 755 56 755 61 q 751 38 755 50 q 692 28 723 31 q 560 -5 600 16 q 534 -16 541 -16 q 517 -14 526 -16 q 517 1 517 -2 q 515 60 517 47 q 490 46 505 55 q 408 8 445 19 q 322 -2 370 -2 q 186 31 237 -2 q 82 144 111 78 q 53 290 53 211 q 179 524 53 427 m 388 75 q 412 74 402 74 q 460 83 435 74 q 514 111 486 93 q 515 139 515 134 q 509 398 515 354 q 464 489 500 457 q 375 521 427 521 q 318 510 345 521 q 275 479 292 499 q 237 411 250 449 q 219 312 219 358 q 266 143 219 201 q 388 75 313 84 z "},"e":{"ha":651,"x_min":49,"x_max":605,"o":"m 58 363 q 90 440 76 421 q 171 527 127 496 q 248 568 214 558 q 321 581 293 581 q 424 571 385 581 q 490 543 463 562 q 551 490 528 517 q 588 426 574 463 q 604 337 603 389 l 529 338 q 392 345 498 338 q 338 347 353 347 q 264 347 333 347 l 206 347 q 205 330 205 337 q 214 255 205 294 q 240 185 222 215 q 284 133 258 155 q 338 102 310 111 l 377 89 q 447 92 429 89 q 504 110 479 99 q 564 145 529 120 q 605 113 589 127 q 481 18 545 47 q 338 -12 417 -12 q 250 -2 284 -12 q 168 35 205 10 q 105 98 132 60 q 66 174 79 135 q 49 257 49 226 q 58 363 49 316 m 452 393 q 437 465 452 431 q 393 519 423 500 q 333 538 363 538 q 251 498 288 538 q 210 390 214 458 l 364 389 q 406 391 379 389 q 434 393 426 393 q 452 393 440 393 z "},"f":{"ha":420,"x_min":37,"x_max":546,"o":"m 37 3 l 37 42 q 85 58 47 47 q 127 73 123 68 q 134 94 134 81 l 134 109 q 137 180 137 172 q 136 197 137 186 l 136 205 l 136 214 l 136 220 l 132 336 l 132 467 l 130 479 q 94 481 118 479 l 52 481 q 40 484 47 481 q 39 513 39 502 q 49 543 39 532 q 129 548 69 543 q 155 700 131 629 q 216 813 179 770 l 233 833 q 316 886 278 871 q 405 901 353 901 q 488 885 455 901 q 533 843 521 869 q 546 796 546 818 q 524 746 546 769 q 474 724 501 724 q 434 737 454 724 q 401 780 420 747 q 371 821 382 812 q 342 829 360 829 q 306 812 321 829 q 284 766 290 796 q 278 644 278 735 l 277 569 l 278 549 l 291 549 l 372 551 q 391 549 378 551 q 399 535 399 541 l 399 522 l 399 504 q 397 488 399 500 q 382 485 391 485 l 376 485 l 325 484 q 305 485 312 484 l 299 485 q 279 482 292 485 l 278 449 q 279 434 278 444 q 280 381 280 395 l 279 281 l 281 209 l 280 151 q 292 76 278 89 q 374 50 311 56 q 395 45 385 49 q 397 24 397 28 q 395 3 397 16 l 346 3 q 267 7 340 3 l 230 10 q 148 7 177 10 q 37 3 132 5 z "},"g":{"ha":752,"x_min":34,"x_max":749,"o":"m 196 -87 q 74 -33 104 -64 q 43 36 43 -2 q 60 83 43 66 q 208 174 76 99 q 116 252 141 214 q 83 348 83 300 q 101 439 83 391 q 205 542 139 508 q 376 576 271 576 q 448 571 418 576 q 496 556 463 568 l 522 547 q 582 502 556 525 q 676 526 640 513 q 720 533 701 533 q 741 522 733 533 q 749 467 749 510 q 739 415 749 430 q 718 401 729 401 q 694 410 714 401 q 621 433 648 431 q 637 344 637 386 q 608 249 637 294 q 529 178 579 204 q 389 140 459 140 q 328 142 345 140 q 262 155 304 145 q 181 100 204 123 q 170 75 170 90 q 181 50 170 61 q 221 35 193 39 q 236 33 227 35 q 332 30 272 30 q 380 32 339 30 q 399 33 391 33 q 627 -19 562 33 q 691 -145 691 -71 q 668 -223 691 -185 q 607 -286 646 -262 q 495 -329 568 -310 q 339 -348 422 -348 q 177 -330 249 -348 q 65 -273 106 -313 q 34 -209 34 -243 q 60 -150 34 -176 q 196 -87 86 -123 m 366 186 q 443 225 411 186 q 475 346 475 264 q 447 492 475 454 q 366 529 418 529 q 330 526 359 529 q 270 479 297 519 q 243 372 243 439 q 248 300 243 354 q 258 260 250 277 q 283 219 270 233 q 320 195 297 204 q 366 186 342 186 m 404 -302 q 560 -248 505 -290 q 595 -193 595 -220 q 588 -163 595 -178 q 561 -135 581 -149 q 517 -116 542 -121 q 426 -109 483 -109 l 342 -108 q 195 -135 233 -108 q 157 -207 157 -162 q 178 -254 157 -231 q 249 -291 199 -277 q 355 -304 298 -304 q 404 -302 372 -304 z "},"h":{"ha":767,"x_min":26,"x_max":751,"o":"m 26 47 q 86 55 37 50 q 113 64 108 58 q 120 113 120 75 l 120 161 l 122 212 l 122 267 l 123 281 l 122 315 l 123 326 l 126 572 l 126 591 q 119 747 126 718 q 100 775 115 765 q 28 794 85 785 l 28 808 q 30 833 28 819 l 87 846 q 119 854 104 850 q 215 888 157 862 q 234 898 225 894 l 271 895 l 269 490 q 382 559 331 538 q 488 579 433 579 q 578 561 540 579 q 637 514 616 542 q 667 448 659 487 q 673 346 673 421 l 673 302 l 674 207 l 671 68 q 677 60 673 62 q 717 51 685 57 q 745 45 735 47 q 751 28 751 35 l 750 23 q 749 1 749 16 l 733 0 q 693 3 723 0 q 597 8 636 8 q 530 5 572 8 q 454 4 500 4 q 441 6 447 4 l 441 22 l 439 31 q 443 46 439 37 q 479 56 458 54 q 518 61 500 58 q 522 77 521 74 l 525 176 l 525 342 q 517 443 525 416 q 483 485 509 469 q 420 502 457 502 q 337 482 378 502 q 269 435 297 462 l 269 316 q 267 170 269 218 q 265 133 265 140 q 271 68 265 86 q 286 54 274 60 q 328 51 311 52 q 355 48 345 51 q 356 24 356 31 q 353 1 356 15 l 278 5 q 201 8 235 8 l 106 3 l 40 4 q 26 38 33 14 l 26 47 z "},"i":{"ha":391,"x_min":20,"x_max":373,"o":"m 117 813 q 140 873 117 850 q 201 897 164 897 q 268 872 241 897 q 294 816 294 847 q 284 770 294 793 q 251 733 273 747 q 204 719 228 719 q 144 747 172 719 q 117 813 117 774 m 22 4 l 20 48 l 97 58 q 120 72 114 63 q 127 113 127 81 l 127 121 q 128 150 127 129 q 129 188 129 172 q 127 237 129 201 l 127 271 l 127 303 l 128 414 q 124 457 128 435 q 97 475 117 467 q 28 486 77 482 l 28 524 q 151 553 98 528 q 229 610 187 569 l 275 610 q 277 392 277 526 l 273 115 q 275 64 273 87 q 344 49 296 56 q 373 42 362 46 l 372 5 q 345 4 354 4 q 314 5 335 4 q 129 9 245 9 q 64 6 96 9 q 22 4 33 4 z "},"j":{"ha":361,"x_min":30,"x_max":277,"o":"m 103 810 q 129 873 103 848 q 195 897 154 897 q 252 876 227 897 q 277 812 277 854 q 253 748 277 774 q 191 723 228 723 q 126 747 150 723 q 103 810 103 771 m 31 482 l 30 519 q 126 539 99 528 q 234 612 153 551 l 250 612 l 258 612 q 267 611 262 612 l 267 599 l 269 553 l 268 515 q 270 406 268 443 l 271 387 l 270 347 q 272 247 270 271 q 273 201 273 222 l 273 -49 q 250 -145 273 -98 q 175 -243 227 -193 q 77 -319 122 -294 l 40 -286 q 62 -257 46 -277 q 120 -162 110 -196 q 131 -7 131 -128 l 127 105 l 127 153 l 127 199 l 123 452 q 113 463 119 461 q 31 482 87 473 z "},"k":{"ha":738,"x_min":21,"x_max":749,"o":"m 22 43 q 46 51 34 49 q 64 54 58 53 q 109 61 103 58 q 115 106 114 75 l 119 393 l 119 431 l 120 460 l 120 655 q 115 755 120 724 q 111 777 115 762 q 84 793 97 789 q 30 802 71 798 q 29 816 29 811 q 31 838 29 823 q 180 879 57 846 q 240 900 214 888 l 267 899 l 269 597 q 267 554 269 594 q 266 498 266 540 l 264 396 l 264 299 q 405 390 298 319 q 487 451 441 414 q 515 475 506 466 q 494 483 504 480 q 432 503 468 489 q 431 517 431 513 q 433 538 431 524 l 484 539 q 518 537 490 539 q 576 536 547 536 q 643 538 600 536 q 696 541 686 541 q 729 540 707 541 q 730 529 730 532 q 727 510 730 522 l 673 493 q 606 467 629 480 q 416 345 550 435 q 450 311 433 328 l 468 294 l 518 244 l 629 133 l 692 69 q 749 40 707 59 q 749 18 749 21 q 749 1 749 12 q 705 5 741 1 q 668 7 684 7 q 427 4 527 7 q 426 20 427 14 l 425 30 q 429 45 425 35 q 474 54 446 51 q 499 56 486 54 q 474 90 489 75 l 298 277 l 262 258 l 262 116 q 262 94 262 110 l 263 68 q 284 56 277 59 q 328 49 296 52 q 344 46 336 48 l 344 29 l 345 17 q 343 6 345 14 l 338 4 q 239 9 276 6 q 208 10 220 10 q 178 9 202 10 l 140 9 l 81 4 l 64 5 l 24 3 q 21 24 21 14 q 22 43 21 31 z "},"l":{"ha":361,"x_min":5,"x_max":361,"o":"m 5 34 q 44 47 20 44 q 98 61 91 52 q 111 133 111 79 l 111 324 l 111 370 l 111 507 l 109 663 l 109 690 q 100 772 109 746 q 49 787 76 787 q 18 790 33 787 q 16 815 16 807 q 18 827 16 821 q 129 855 71 833 q 217 899 186 876 l 236 899 q 254 899 242 899 q 257 577 257 664 q 256 536 257 551 l 256 532 l 257 519 l 257 218 l 258 119 l 258 103 q 267 62 258 74 q 302 51 275 53 q 358 44 316 50 q 361 21 361 30 q 360 2 361 14 l 307 5 q 194 8 262 8 l 169 9 q 57 3 130 9 l 7 3 l 5 34 z "},"m":{"ha":1172,"x_min":28,"x_max":1158,"o":"m 32 49 q 47 52 37 52 q 111 66 87 55 q 116 75 115 68 q 120 199 117 82 l 120 238 l 121 308 l 120 380 l 120 397 q 105 444 120 429 q 29 477 91 459 l 29 505 q 60 512 42 508 q 163 549 122 525 q 224 604 194 567 l 262 604 l 262 593 l 264 538 l 263 513 l 264 501 q 372 568 329 552 q 471 585 415 585 q 574 562 524 585 q 657 484 624 538 q 738 550 705 531 q 799 573 760 563 q 873 583 838 583 q 1022 526 967 583 q 1077 370 1077 468 l 1077 262 q 1075 147 1077 229 l 1075 95 q 1083 68 1075 81 q 1128 54 1109 57 q 1154 44 1142 52 q 1158 24 1156 32 l 1157 10 q 1130 7 1138 7 q 1097 10 1124 7 q 1027 13 1069 13 q 865 6 925 13 q 860 33 860 23 l 861 43 q 919 66 869 47 q 929 82 928 75 q 932 155 932 99 l 929 346 q 922 426 928 394 q 902 475 915 457 q 866 505 888 493 q 819 516 844 516 q 742 495 781 516 q 672 430 703 473 l 671 410 l 673 323 l 671 252 l 671 184 l 671 124 q 680 71 671 79 q 746 53 693 58 l 767 45 q 772 21 772 30 q 770 5 772 16 l 750 5 l 723 5 l 709 6 q 609 12 661 11 l 536 13 q 445 7 510 13 l 433 9 l 432 49 q 505 59 452 55 q 514 62 509 60 q 523 77 522 71 q 526 132 526 90 l 526 269 l 527 306 q 519 437 527 412 q 480 490 510 469 q 408 511 450 511 q 312 485 353 511 q 265 438 271 458 q 264 426 264 430 l 265 419 l 265 412 q 262 393 265 406 l 264 199 l 264 97 q 266 79 264 92 l 269 69 q 302 60 288 63 q 340 48 327 55 q 342 32 342 37 q 336 7 342 23 q 321 6 326 6 q 253 12 313 6 l 179 13 q 51 5 126 13 l 31 6 q 28 31 30 17 q 32 49 28 37 z "},"n":{"ha":767,"x_min":27,"x_max":749,"o":"m 28 39 q 60 50 45 47 q 104 60 98 56 q 117 75 114 66 q 121 134 121 88 l 121 193 l 122 241 l 120 313 l 120 355 q 113 425 120 398 q 96 446 111 435 q 32 472 77 459 l 31 505 q 47 508 40 507 q 102 522 54 509 q 150 541 139 535 q 161 547 153 543 q 179 560 169 553 q 228 610 199 574 l 264 612 l 262 536 q 262 517 262 524 q 262 486 262 512 q 365 554 319 535 q 479 579 425 579 q 591 548 543 579 q 654 475 640 516 q 669 308 669 433 l 667 87 q 672 61 667 71 q 709 51 679 56 l 743 45 q 749 23 749 36 q 748 1 749 15 l 615 10 l 576 9 l 545 9 l 455 2 l 432 2 q 431 16 431 11 q 433 42 431 28 q 480 49 442 44 q 503 54 490 50 q 518 64 516 59 q 524 109 524 76 q 522 196 524 165 l 523 275 q 505 453 524 418 q 428 504 479 504 q 349 485 390 504 q 265 426 309 465 l 264 414 l 265 372 l 264 326 l 267 218 l 266 201 q 275 76 266 90 q 342 45 283 62 q 344 28 344 33 q 339 3 344 20 q 304 2 318 2 q 259 6 290 2 l 186 7 q 30 3 132 7 q 27 17 27 9 q 28 39 27 22 z "},"o":{"ha":724,"x_min":51,"x_max":673,"o":"m 587 498 q 652 402 631 456 q 673 299 673 347 q 646 153 673 208 q 532 28 604 68 q 367 -12 461 -12 q 188 36 261 -12 q 82 144 114 83 q 51 294 51 204 q 66 385 51 339 q 107 465 81 431 q 164 522 133 498 q 255 568 210 554 q 366 582 301 582 q 587 498 508 582 m 216 264 q 225 167 222 180 q 253 89 234 121 q 296 52 266 68 q 367 35 326 35 q 450 67 416 35 q 499 165 484 98 q 509 310 509 210 q 468 485 509 433 q 361 536 427 536 q 274 507 309 536 q 227 420 240 477 q 216 264 218 384 z "},"p":{"ha":767,"x_min":-2,"x_max":715,"o":"m -2 -340 l -2 -310 q 16 -300 10 -302 l 68 -281 q 104 -260 100 -268 q 114 -189 115 -240 l 109 81 l 102 417 q 87 469 100 454 q 15 502 73 485 l 14 537 q 126 569 81 550 q 216 621 159 583 l 251 621 l 252 602 l 251 529 q 252 509 251 525 q 349 556 311 545 q 471 572 404 572 q 594 537 541 572 q 606 530 598 534 q 655 483 640 505 q 704 388 689 435 q 715 300 715 353 q 697 180 715 229 q 634 82 679 132 q 538 12 589 33 q 431 -9 487 -9 q 351 -3 375 -9 q 261 35 306 10 q 259 20 259 24 l 261 2 q 262 -16 262 -5 q 260 -70 262 -21 l 262 -193 q 262 -220 262 -197 l 262 -228 q 265 -264 262 -253 q 277 -279 268 -271 q 290 -286 283 -282 q 327 -294 311 -290 q 360 -300 342 -298 q 366 -320 366 -308 q 366 -342 366 -328 l 353 -342 q 298 -340 314 -342 l 196 -332 l 171 -332 l 147 -331 l 123 -333 l 87 -335 q 42 -338 66 -336 q 7 -341 18 -341 l -2 -340 m 255 144 q 258 132 258 136 q 277 88 266 101 q 326 56 298 64 q 397 44 366 44 q 466 59 432 44 q 519 99 499 74 q 528 109 522 102 q 535 125 532 119 q 562 237 562 178 q 497 422 562 347 q 368 476 452 476 q 256 450 319 476 q 254 302 254 424 l 256 171 q 255 144 256 166 z "},"q":{"ha":767,"x_min":54,"x_max":758,"o":"m 596 502 q 606 616 601 521 l 663 616 l 663 604 l 664 545 l 663 505 l 665 426 l 665 350 l 663 303 l 663 237 q 662 181 662 201 q 663 138 662 159 q 663 79 663 108 l 663 57 l 661 -117 l 659 -245 q 673 -273 659 -261 q 722 -292 684 -281 q 756 -305 747 -300 q 758 -321 758 -314 q 756 -345 758 -328 q 675 -341 717 -345 q 555 -336 604 -336 q 430 -343 491 -336 q 411 -345 417 -345 q 397 -345 406 -345 l 399 -304 q 427 -299 410 -302 q 458 -293 444 -295 q 507 -272 497 -286 q 516 -187 516 -258 l 515 -105 l 517 -10 q 516 60 517 12 q 495 46 507 54 q 325 -9 416 -9 q 246 1 277 -9 q 151 56 196 18 q 79 152 105 94 q 54 277 54 211 q 74 376 54 328 q 128 464 94 425 q 211 528 163 503 q 312 565 245 547 q 389 573 341 573 q 492 553 431 573 q 596 502 532 540 m 396 75 q 420 76 411 76 q 438 75 427 76 q 517 104 476 77 l 517 117 q 516 161 516 142 l 516 210 q 507 421 516 374 q 464 492 497 467 q 379 516 431 516 q 319 503 358 516 q 264 466 292 494 q 229 402 243 446 q 215 299 215 359 q 265 148 215 207 q 396 75 315 88 z "},"r":{"ha":477,"x_min":24,"x_max":477,"o":"m 26 37 q 50 48 35 45 q 115 75 84 56 q 121 185 121 92 q 114 417 121 357 q 103 436 113 428 q 57 452 86 445 q 41 467 43 455 l 39 492 q 130 526 89 498 q 191 582 170 553 q 210 606 201 597 l 257 608 q 260 582 260 592 q 260 564 260 574 q 259 524 259 540 q 260 468 259 517 q 300 532 288 515 q 336 565 307 539 q 389 582 359 582 q 451 557 425 582 q 477 501 477 533 q 457 444 477 469 q 404 418 437 418 q 343 443 375 418 q 313 458 324 458 l 308 457 q 282 431 294 452 q 263 361 263 397 l 264 342 q 269 107 267 292 q 281 73 271 90 q 306 60 294 64 q 350 53 319 56 q 388 44 381 50 q 395 26 395 39 q 391 6 395 18 l 327 6 l 197 13 q 109 9 149 13 l 97 9 q 26 5 92 9 q 24 22 24 16 q 26 37 24 27 z "},"s":{"ha":578,"x_min":61,"x_max":519,"o":"m 61 194 q 91 198 81 198 q 105 197 96 198 l 111 191 q 159 113 148 126 q 206 68 183 85 q 255 45 222 57 q 302 37 277 37 q 376 65 345 37 q 406 124 406 92 q 395 161 406 146 q 349 191 383 176 q 263 216 332 199 q 181 238 195 233 q 124 272 149 250 q 87 321 100 294 q 69 387 69 359 q 84 472 69 439 q 126 530 99 505 q 185 564 146 549 q 271 580 225 580 q 384 571 335 580 q 467 545 433 562 q 478 473 471 529 q 486 406 486 416 q 484 396 486 401 q 454 391 466 391 q 435 392 448 391 q 418 420 429 401 q 352 506 386 481 q 273 530 317 530 q 194 503 226 530 q 171 450 171 484 q 195 404 171 427 q 278 368 219 380 q 409 329 367 349 q 495 262 470 300 q 519 172 519 223 q 460 41 519 94 q 287 -12 401 -12 q 209 -5 272 -12 q 142 9 180 -1 q 92 28 132 12 q 82 38 85 33 q 73 95 79 44 q 61 194 62 178 z "},"t":{"ha":434,"x_min":39,"x_max":419,"o":"m 40 518 q 156 585 120 552 q 232 690 191 617 l 270 690 q 276 653 276 673 q 275 598 276 618 l 273 558 q 274 543 273 555 l 290 542 q 353 545 293 542 q 404 546 358 545 q 408 513 408 528 q 404 477 408 498 q 370 474 381 474 q 348 475 364 474 l 313 475 l 300 476 l 268 475 l 267 216 q 270 122 266 140 q 286 86 273 103 q 320 79 301 79 q 347 82 338 79 q 377 102 356 85 q 390 111 381 105 q 416 85 406 98 l 419 77 q 352 19 395 40 q 260 -3 309 -3 q 158 37 197 -3 q 119 161 119 77 l 121 281 l 121 474 l 100 475 l 52 474 l 43 476 q 39 488 39 482 q 40 518 39 492 z "},"u":{"ha":767,"x_min":28,"x_max":745,"o":"m 32 553 q 44 557 39 556 l 246 557 l 261 556 l 262 511 l 260 444 l 261 410 l 260 307 l 260 237 q 268 130 260 169 q 301 84 278 100 q 356 69 323 69 q 406 75 387 69 q 449 98 425 81 q 481 123 474 115 q 508 163 500 144 l 513 332 q 514 375 514 358 q 513 419 514 393 q 512 450 512 446 l 513 475 l 511 490 q 466 503 495 500 l 420 506 q 413 511 416 508 q 410 531 410 524 q 412 554 410 539 q 451 557 435 557 l 555 556 q 659 557 597 556 l 660 507 l 658 441 l 659 360 l 659 243 l 657 191 l 658 156 q 655 116 655 121 q 661 91 655 99 q 673 83 667 83 l 735 85 l 743 83 q 745 56 745 60 q 743 41 745 52 q 692 37 707 40 q 533 -12 619 20 l 506 -10 l 505 100 q 481 79 497 94 q 379 8 422 26 q 290 -11 336 -11 q 193 12 234 -11 q 134 69 153 35 q 115 145 119 96 q 113 278 113 158 l 114 300 q 117 398 117 366 q 115 471 117 452 q 109 491 115 479 q 86 497 99 495 q 32 511 43 505 q 28 520 28 513 q 30 531 28 524 q 32 553 31 538 z "},"v":{"ha":637,"x_min":-9,"x_max":648,"o":"m -6 557 l 9 557 l 151 554 l 193 553 l 282 557 l 298 557 q 302 537 302 544 q 299 512 302 529 q 269 508 286 510 q 228 497 236 503 q 222 488 222 493 q 231 460 222 477 q 250 416 235 453 q 272 367 256 399 q 345 203 323 262 q 366 153 357 169 q 468 431 413 262 q 484 502 482 475 q 410 508 444 508 l 401 508 l 391 509 q 389 532 389 522 q 395 557 389 549 l 418 559 l 477 558 l 511 558 q 574 555 541 555 l 629 558 q 648 557 635 558 q 648 538 648 545 q 648 519 648 530 q 552 488 578 503 q 546 475 547 479 l 543 469 q 457 254 516 388 l 384 77 q 363 31 370 43 q 343 -9 351 7 l 288 -9 q 233 101 262 36 l 141 307 q 64 480 107 389 q 55 494 58 492 q -8 517 0 509 q -9 536 -9 526 q -6 557 -9 549 z "},"w":{"ha":984,"x_min":-9,"x_max":997,"o":"m -7 555 l 5 555 l 15 555 q 62 551 20 555 q 139 547 104 547 q 215 551 166 547 q 275 555 264 555 q 300 555 283 555 q 301 534 301 542 q 298 518 301 527 q 275 513 288 515 q 233 500 245 507 q 228 491 230 498 q 239 455 233 471 l 306 303 q 363 186 338 228 q 381 145 376 155 q 477 359 445 258 l 447 423 q 408 500 428 465 q 381 507 395 503 q 335 519 356 513 l 335 557 q 404 554 385 556 q 494 551 434 551 q 568 553 524 551 q 621 555 611 555 l 654 555 l 652 516 q 618 513 644 515 q 571 504 591 510 q 616 400 605 420 l 624 385 l 696 227 l 722 172 l 748 231 q 787 317 781 302 q 810 376 806 368 q 842 475 842 443 q 827 494 842 484 q 777 511 823 496 q 733 519 745 515 l 736 554 q 753 555 747 555 q 815 551 759 555 q 880 547 871 547 q 959 552 906 547 q 997 554 982 554 l 997 534 q 996 513 997 529 q 913 481 930 494 q 904 469 909 479 l 801 235 q 711 24 774 180 q 698 -9 703 3 l 647 -9 l 531 250 l 519 276 q 506 301 513 288 l 500 290 l 418 122 q 384 54 400 83 q 356 -7 368 24 l 332 -7 l 296 -7 l 190 218 l 75 465 q 55 492 64 485 q 18 508 39 505 q -8 517 -3 512 q -9 536 -9 530 q -7 555 -9 546 z "},"x":{"ha":694,"x_min":13,"x_max":675,"o":"m 13 35 q 71 60 47 47 q 97 78 86 68 q 149 127 109 87 l 273 250 l 282 260 q 201 339 278 263 l 193 352 q 146 401 163 382 l 133 413 q 68 482 86 467 q 33 501 62 487 q 18 509 28 504 q 14 531 14 524 q 18 553 14 547 q 26 556 21 555 q 42 555 37 555 l 62 555 l 72 554 l 107 552 q 237 557 159 552 l 311 557 q 312 540 312 547 q 307 517 312 531 q 265 497 277 507 l 262 490 q 271 477 262 485 l 380 359 l 475 474 q 487 498 487 491 l 487 503 q 428 520 471 513 q 425 546 425 534 l 425 557 l 437 557 q 480 553 450 557 q 558 551 526 553 q 586 553 568 551 q 616 557 611 557 l 629 556 l 658 556 l 658 546 q 654 522 658 534 q 624 510 643 515 q 562 486 578 497 q 519 445 555 482 q 412 328 447 370 l 534 188 q 627 79 606 100 q 671 45 643 64 q 675 24 675 37 l 675 5 q 648 5 660 5 q 522 11 560 11 q 492 9 513 11 l 470 9 q 389 3 420 3 l 380 4 q 379 23 379 17 q 380 37 379 28 q 416 56 397 47 q 438 69 426 61 q 431 92 436 84 q 401 126 424 103 q 353 182 393 132 q 315 221 336 201 q 214 118 234 146 q 201 85 201 100 q 209 64 201 74 q 235 48 216 55 q 257 40 248 44 l 266 37 q 267 26 267 30 q 262 5 267 19 q 233 8 252 5 q 167 12 203 12 q 64 7 115 12 q 14 5 31 5 q 13 23 13 17 l 13 35 z "},"y":{"ha":651,"x_min":-10,"x_max":654,"o":"m -10 551 q 29 555 14 555 q 47 554 37 555 q 148 550 109 550 l 183 550 l 279 555 q 289 547 285 551 q 286 509 287 517 q 270 506 275 507 q 247 502 254 504 q 231 499 239 500 q 219 490 220 496 q 227 463 223 473 l 260 396 q 339 221 298 301 l 377 143 q 429 277 381 151 q 492 444 487 425 q 494 462 494 454 q 490 484 494 469 q 466 498 475 495 q 422 505 456 501 l 400 511 l 398 520 q 397 530 397 527 q 399 548 397 536 q 429 549 420 549 l 484 546 l 520 545 q 600 551 543 545 q 653 556 635 555 q 654 530 654 539 q 654 518 654 526 q 627 509 642 512 q 584 497 602 503 q 570 484 574 489 q 524 371 559 458 l 475 240 l 361 -30 l 283 -209 q 223 -298 258 -260 q 193 -319 210 -312 q 130 -330 165 -330 q 93 -326 127 -330 q 45 -296 65 -319 q 31 -262 31 -280 q 62 -193 31 -224 q 104 -175 91 -175 q 176 -207 135 -175 q 206 -222 195 -222 q 224 -210 218 -222 q 300 -47 283 -95 l 175 229 q 67 462 104 395 q 40 502 48 496 q 16 513 33 508 q -4 521 7 515 q -10 551 -7 536 z "},"z":{"ha":651,"x_min":41,"x_max":592,"o":"m 393 502 q 304 503 357 503 q 180 488 210 503 q 106 414 134 465 l 87 388 l 41 389 q 48 418 42 401 q 94 563 63 455 q 114 622 104 600 l 128 622 q 155 621 137 622 q 159 591 158 608 q 165 555 159 570 l 174 552 l 208 550 l 587 557 q 591 532 591 541 q 590 519 591 529 q 477 379 495 404 q 267 102 380 246 l 253 86 l 230 59 l 254 58 q 409 72 298 58 q 465 86 452 77 q 533 182 481 97 q 549 207 543 198 l 592 206 l 585 149 q 581 111 583 125 q 576 75 580 96 q 570 27 572 54 q 568 5 569 16 l 284 7 l 66 6 l 41 7 l 41 45 q 65 77 56 65 l 193 235 l 299 374 q 393 502 351 442 z "},"{":{"ha":550,"x_min":112,"x_max":488,"o":"m 488 941 l 488 910 q 388 862 420 897 q 356 783 356 827 q 372 670 356 737 q 389 552 389 602 q 361 458 389 506 q 282 376 334 410 q 168 332 246 353 q 290 279 252 305 q 365 198 340 245 q 390 109 390 151 q 373 1 390 68 q 357 -117 357 -67 q 388 -200 357 -165 q 488 -249 418 -235 l 488 -281 l 465 -281 q 266 -199 345 -281 q 208 -66 208 -138 q 229 62 208 -19 q 245 170 245 123 q 211 261 245 224 q 112 310 177 299 l 112 351 q 211 401 177 362 q 245 497 245 441 q 230 601 245 543 q 209 724 209 682 q 235 813 209 768 q 302 887 262 859 q 389 928 342 916 q 488 941 426 939 z "},"|":{"ha":752,"x_min":322,"x_max":430,"o":"m 322 895 l 430 895 l 430 -346 l 322 -346 l 322 895 z "},"}":{"ha":550,"x_min":62,"x_max":438,"o":"m 62 -281 l 62 -250 q 161 -202 129 -237 q 194 -122 194 -167 q 178 -10 194 -77 q 161 108 161 58 q 189 202 161 155 q 268 284 216 250 q 382 329 304 307 q 260 381 298 355 q 184 463 210 416 q 159 551 159 509 q 176 660 159 592 q 193 777 193 728 q 162 861 193 826 q 62 909 132 895 l 62 941 l 85 941 q 284 859 205 941 q 342 726 342 799 q 321 598 342 680 q 305 490 305 538 q 339 399 305 437 q 438 351 372 361 l 438 309 q 339 259 372 298 q 305 163 305 220 q 320 60 305 117 q 340 -63 340 -21 q 314 -153 340 -108 q 248 -227 288 -198 q 161 -268 208 -255 q 62 -281 124 -278 z "},"~":{"ha":926,"x_min":94,"x_max":833,"o":"m 793 551 l 833 551 q 777 387 829 444 q 650 331 725 331 q 574 342 614 331 q 395 412 534 354 q 253 454 296 454 q 174 425 205 454 q 133 332 143 396 l 94 332 q 149 498 99 444 q 270 551 199 551 q 341 542 307 551 q 519 475 409 523 q 673 427 630 427 q 754 459 722 427 q 793 551 787 490 z "},"":{"ha":911,"x_min":-18,"x_max":939,"o":"m -18 5 l -16 51 q 29 61 -3 55 q 93 79 81 71 q 120 119 104 87 l 257 477 l 418 899 q 460 899 440 899 l 491 899 l 497 886 l 615 607 q 687 434 655 518 q 742 298 719 351 q 779 202 755 266 q 817 115 791 168 q 837 82 830 87 q 877 68 849 72 q 936 53 904 65 q 939 20 939 31 q 939 5 939 15 q 828 9 888 5 q 720 14 768 14 q 642 13 666 14 l 527 7 l 494 5 q 496 51 494 29 l 571 67 q 610 81 605 76 q 617 96 617 87 q 614 115 617 105 l 587 181 l 533 314 l 274 315 q 215 155 260 282 q 202 106 202 119 q 212 81 202 89 q 271 63 227 68 q 319 56 277 62 q 320 22 320 31 q 319 6 320 14 q 118 18 277 6 l 90 13 q -5 5 40 5 l -18 5 m 301 386 q 488 384 460 384 l 505 385 q 452 525 485 445 q 399 648 420 606 l 301 386 m 473 1055 q 497 1118 473 1093 q 557 1143 522 1143 q 616 1118 592 1143 q 641 1059 641 1093 q 616 999 641 1023 q 557 975 592 975 q 498 999 523 975 q 473 1055 473 1023 m 332 1143 q 388 1118 363 1143 q 412 1058 412 1093 q 387 999 412 1023 q 328 974 363 974 q 268 998 292 974 q 244 1058 244 1023 q 269 1118 244 1093 q 326 1143 293 1143 l 332 1143 z "},"":{"ha":911,"x_min":-18,"x_max":939,"o":"m -18 5 l -16 51 q 29 61 -3 55 q 93 79 81 71 q 120 119 104 87 l 257 477 l 418 899 q 460 899 440 899 l 491 899 l 497 886 l 615 607 q 687 434 655 518 q 742 298 719 351 q 779 202 755 266 q 817 115 791 168 q 837 82 830 87 q 877 68 849 72 q 936 53 904 65 q 939 20 939 31 q 939 5 939 15 q 828 9 888 5 q 720 14 768 14 q 642 13 666 14 l 527 7 l 494 5 q 496 51 494 29 l 571 67 q 610 81 605 76 q 617 96 617 87 q 614 115 617 105 l 587 181 l 533 314 l 274 315 q 215 155 260 282 q 202 106 202 119 q 212 81 202 89 q 271 63 227 68 q 319 56 277 62 q 320 22 320 31 q 319 6 320 14 q 118 18 277 6 l 90 13 q -5 5 40 5 l -18 5 m 301 386 q 488 384 460 384 l 505 385 q 452 525 485 445 q 399 648 420 606 l 301 386 m 343 1002 q 376 1082 343 1048 q 455 1115 408 1115 q 535 1082 503 1115 q 568 1002 568 1049 q 535 922 568 956 q 455 889 503 889 q 376 923 410 889 q 343 1002 343 956 m 455 941 q 499 959 481 941 q 517 1002 517 977 q 499 1045 517 1027 q 456 1063 481 1063 q 413 1046 431 1063 q 395 1002 395 1028 q 412 959 395 977 q 455 941 430 941 z "},"":{"ha":941,"x_min":63,"x_max":897,"o":"m 833 868 q 869 752 842 848 q 882 660 882 709 l 821 660 q 686 792 755 752 q 532 833 617 833 q 362 751 427 833 q 275 441 275 640 q 290 277 275 326 q 351 147 314 197 q 426 87 380 109 q 553 56 486 56 q 697 103 628 56 q 831 241 767 149 q 897 247 856 246 q 888 193 894 221 q 872 107 886 182 l 866 87 l 857 55 q 740 7 815 23 q 556 -9 665 -9 q 398 7 473 -9 q 271 56 324 22 q 150 162 194 105 q 84 286 106 219 q 63 437 63 353 q 196 770 63 639 q 536 902 330 902 q 695 893 621 902 q 833 868 769 885 m 553 11 l 627 11 q 596 -22 616 -2 q 576 -46 576 -42 q 583 -59 576 -51 q 633 -121 623 -100 q 643 -170 643 -142 q 579 -279 643 -240 q 439 -317 515 -317 q 323 -290 367 -317 q 300 -258 300 -276 q 322 -219 300 -240 q 364 -198 344 -198 q 385 -203 373 -198 q 434 -235 396 -209 q 498 -261 473 -261 q 535 -249 522 -261 q 548 -220 548 -237 q 529 -179 548 -199 q 450 -139 510 -159 q 431 -128 437 -134 q 427 -120 427 -124 q 468 -74 427 -103 q 553 11 499 -52 z "},"":{"ha":984,"x_min":24,"x_max":932,"o":"m 28 882 q 95 876 66 880 q 219 869 149 869 q 345 873 243 869 q 618 879 496 879 l 741 880 q 863 870 782 880 q 875 833 875 857 l 875 694 l 876 666 q 876 654 876 662 l 848 652 q 825 654 842 652 q 808 694 819 667 l 781 742 q 738 804 766 772 q 694 810 721 809 q 653 813 688 810 q 517 819 590 819 q 370 816 435 819 q 368 682 368 799 l 369 568 l 369 483 q 398 481 386 481 q 571 486 519 481 q 635 499 623 490 q 656 528 647 507 q 680 628 663 543 l 689 629 l 728 628 q 731 536 731 568 q 730 445 731 465 q 729 413 729 425 q 731 354 729 395 q 733 294 733 314 l 733 279 l 685 279 q 675 324 682 290 q 650 403 661 387 q 623 421 642 415 q 523 426 610 426 q 369 420 420 426 q 368 397 368 403 q 371 263 368 317 l 370 117 q 388 81 370 91 q 558 67 416 67 q 718 81 652 67 q 798 127 764 92 q 875 254 844 172 q 909 256 896 256 q 932 256 917 256 q 928 227 930 239 l 924 207 l 899 79 l 887 1 q 817 -1 843 -1 q 614 6 779 -1 q 335 11 498 11 q 135 4 254 11 l 106 4 l 24 1 l 24 48 q 76 56 37 52 q 174 77 146 64 q 181 127 181 97 q 180 166 181 138 l 181 187 l 179 443 l 180 519 l 176 628 l 177 705 l 171 789 q 170 802 171 792 q 149 812 163 810 q 129 816 142 813 q 54 825 90 824 q 24 828 41 826 l 28 882 m 420 946 q 489 1164 441 1021 l 675 1162 l 471 945 q 441 945 446 945 q 420 946 431 945 z "},"":{"ha":1172,"x_min":5,"x_max":1131,"o":"m 7 829 l 5 876 l 62 876 l 82 877 q 138 879 123 879 q 186 878 146 879 q 201 877 195 877 q 243 878 207 877 q 285 880 280 880 q 306 879 292 880 q 476 715 410 784 q 956 236 542 647 l 956 253 l 954 332 q 948 441 951 401 q 944 537 945 481 q 939 639 943 593 q 931 741 931 728 q 922 795 930 785 q 857 817 907 810 q 801 833 819 823 l 802 873 l 819 875 l 953 879 l 1102 883 q 1131 884 1117 884 l 1131 840 q 1099 827 1116 831 q 1049 813 1056 817 q 1012 789 1015 793 q 1006 764 1006 781 q 1007 736 1006 760 q 1008 679 1008 724 q 1013 524 1008 581 q 1015 482 1015 505 l 1023 244 q 1023 209 1023 219 l 1023 125 l 1025 90 l 1023 54 q 1026 20 1026 26 l 1026 -16 l 948 -18 l 867 65 l 703 229 l 587 344 l 503 431 q 352 574 420 512 l 241 673 l 248 421 q 248 374 248 398 l 248 326 l 252 237 q 259 116 254 181 q 262 91 260 98 q 271 71 264 84 q 386 56 297 61 q 404 52 392 55 l 406 -3 l 380 -4 q 243 6 358 -4 q 99 2 135 5 q 60 -1 63 -1 q 37 2 52 -1 q 36 29 36 18 q 37 54 36 37 q 68 57 56 57 q 94 56 72 57 q 162 64 151 56 q 174 110 172 73 q 178 241 178 218 l 178 279 l 180 499 l 178 637 q 168 746 177 715 q 152 773 163 762 q 99 810 128 798 q 7 829 81 817 m 780 1150 l 800 1150 q 819 1149 807 1150 q 777 1017 819 1063 q 677 971 736 971 q 623 978 650 971 q 554 1004 605 983 q 496 1026 503 1025 q 469 1029 483 1029 q 432 1018 445 1029 q 410 972 418 1006 l 370 972 q 370 997 370 977 q 414 1105 372 1061 q 509 1149 456 1149 q 559 1143 535 1149 q 631 1117 584 1137 q 691 1094 678 1097 q 725 1090 709 1090 q 758 1101 745 1090 q 780 1150 771 1113 z "},"":{"ha":1099,"x_min":61,"x_max":1034,"o":"m 61 454 q 94 623 61 538 q 160 735 117 684 q 267 826 203 786 q 399 883 332 865 q 549 900 466 900 q 793 847 690 900 q 957 704 897 794 q 1034 458 1034 587 q 904 129 1034 266 q 541 -8 773 -8 q 433 -1 483 -8 q 366 14 395 5 q 309 34 315 31 q 190 120 235 76 q 114 220 145 164 q 75 332 97 251 q 61 454 61 385 m 523 833 q 418 805 464 833 q 350 745 373 778 q 295 622 311 688 q 279 459 279 555 q 283 376 279 401 q 288 348 285 368 q 302 275 294 298 q 343 168 331 189 q 404 100 363 134 q 463 67 424 82 q 540 53 501 53 q 676 87 613 53 q 777 203 739 121 q 814 417 814 286 q 807 564 814 471 l 804 577 q 797 605 802 583 q 701 774 772 716 q 523 833 630 833 m 594 1055 q 618 1118 594 1093 q 677 1143 642 1143 q 737 1118 713 1143 q 762 1059 762 1093 q 737 999 762 1023 q 677 975 713 975 q 619 999 644 975 q 594 1055 594 1023 m 452 1143 q 508 1118 484 1143 q 532 1058 532 1093 q 508 999 532 1023 q 448 974 484 974 q 389 998 413 974 q 365 1058 365 1023 q 389 1118 365 1093 q 446 1143 414 1143 l 452 1143 z "},"":{"ha":1056,"x_min":24,"x_max":998,"o":"m 26 825 l 24 879 q 50 880 37 880 q 121 878 83 880 q 226 873 210 873 q 332 875 280 873 q 424 878 384 878 q 479 880 465 879 l 478 871 l 479 831 l 479 826 q 401 821 441 821 q 351 806 363 821 q 342 725 342 796 q 343 690 342 703 l 344 665 l 342 602 l 347 547 l 344 430 l 353 260 q 385 137 356 186 q 446 81 407 101 q 558 52 503 52 q 680 69 623 52 q 742 100 713 79 q 783 139 772 121 q 817 209 808 176 q 830 348 830 254 q 812 718 830 512 l 810 753 q 795 807 808 793 q 746 828 773 828 l 682 827 l 673 829 l 675 880 l 728 880 l 858 875 q 982 881 923 875 l 994 880 q 998 848 998 857 q 995 830 998 841 q 942 821 970 823 q 892 811 897 815 q 882 786 882 803 q 884 751 882 774 q 886 692 886 734 q 887 654 886 668 q 888 627 887 641 q 891 528 890 578 l 898 390 q 888 205 898 252 q 863 131 879 158 q 791 56 838 90 q 676 2 745 22 q 515 -18 607 -18 q 334 10 410 -18 q 221 84 259 38 q 168 203 182 130 q 158 347 158 253 l 159 670 q 148 800 159 785 q 55 823 133 821 q 26 825 38 823 m 572 1055 q 596 1118 572 1093 q 656 1143 621 1143 q 715 1118 691 1143 q 740 1059 740 1093 q 715 999 740 1023 q 656 975 691 975 q 597 999 622 975 q 572 1055 572 1023 m 431 1143 q 487 1118 463 1143 q 511 1058 511 1093 q 486 999 511 1023 q 427 974 462 974 q 367 998 391 974 q 343 1058 343 1023 q 368 1118 343 1093 q 425 1143 392 1143 l 431 1143 z "},"":{"ha":665,"x_min":68,"x_max":651,"o":"m 627 132 l 643 121 q 650 110 649 117 l 651 106 q 608 23 635 46 q 543 1 582 1 q 474 23 503 1 q 421 100 445 45 q 339 23 392 49 q 210 -3 286 -3 q 106 26 139 -3 q 73 104 73 56 q 82 149 73 126 q 114 195 92 172 q 185 245 136 218 q 237 268 193 249 l 406 336 q 408 388 408 361 q 385 513 408 479 q 338 533 372 533 q 275 520 304 533 q 234 487 247 507 q 218 431 224 472 q 209 396 213 401 q 172 373 199 383 q 136 357 145 362 q 77 340 99 340 q 68 363 68 348 q 84 429 68 401 q 158 506 109 469 q 250 557 207 543 q 392 576 308 576 q 485 556 446 576 q 539 497 524 536 q 555 355 555 458 l 553 243 l 554 161 l 554 140 q 562 101 554 112 q 582 91 570 91 q 595 95 589 91 l 615 127 l 627 132 m 405 289 q 318 246 366 276 q 250 185 269 216 q 237 130 237 163 q 254 82 237 101 q 295 63 272 63 q 359 85 333 63 q 401 131 395 114 q 408 229 408 149 q 405 289 408 259 m 260 650 q 330 868 281 725 l 515 866 l 311 650 q 281 649 286 649 q 260 650 272 649 z "},"":{"ha":665,"x_min":68,"x_max":651,"o":"m 627 132 l 643 121 q 650 110 649 117 l 651 106 q 608 23 635 46 q 543 1 582 1 q 474 23 503 1 q 421 100 445 45 q 339 23 392 49 q 210 -3 286 -3 q 106 26 139 -3 q 73 104 73 56 q 82 149 73 126 q 114 195 92 172 q 185 245 136 218 q 237 268 193 249 l 406 336 q 408 388 408 361 q 385 513 408 479 q 338 533 372 533 q 275 520 304 533 q 234 487 247 507 q 218 431 224 472 q 209 396 213 401 q 172 373 199 383 q 136 357 145 362 q 77 340 99 340 q 68 363 68 348 q 84 429 68 401 q 158 506 109 469 q 250 557 207 543 q 392 576 308 576 q 485 556 446 576 q 539 497 524 536 q 555 355 555 458 l 553 243 l 554 161 l 554 140 q 562 101 554 112 q 582 91 570 91 q 595 95 589 91 l 615 127 l 627 132 m 405 289 q 318 246 366 276 q 250 185 269 216 q 237 130 237 163 q 254 82 237 101 q 295 63 272 63 q 359 85 333 63 q 401 131 395 114 q 408 229 408 149 q 405 289 408 259 m 142 868 l 328 868 q 342 827 334 850 q 359 771 351 795 q 397 650 391 680 l 344 652 l 142 868 z "},"":{"ha":665,"x_min":68,"x_max":651,"o":"m 627 132 l 643 121 q 650 110 649 117 l 651 106 q 608 23 635 46 q 543 1 582 1 q 474 23 503 1 q 421 100 445 45 q 339 23 392 49 q 210 -3 286 -3 q 106 26 139 -3 q 73 104 73 56 q 82 149 73 126 q 114 195 92 172 q 185 245 136 218 q 237 268 193 249 l 406 336 q 408 388 408 361 q 385 513 408 479 q 338 533 372 533 q 275 520 304 533 q 234 487 247 507 q 218 431 224 472 q 209 396 213 401 q 172 373 199 383 q 136 357 145 362 q 77 340 99 340 q 68 363 68 348 q 84 429 68 401 q 158 506 109 469 q 250 557 207 543 q 392 576 308 576 q 485 556 446 576 q 539 497 524 536 q 555 355 555 458 l 553 243 l 554 161 l 554 140 q 562 101 554 112 q 582 91 570 91 q 595 95 589 91 l 615 127 l 627 132 m 405 289 q 318 246 366 276 q 250 185 269 216 q 237 130 237 163 q 254 82 237 101 q 295 63 272 63 q 359 85 333 63 q 401 131 395 114 q 408 229 408 149 q 405 289 408 259 m 166 643 l 297 880 q 323 880 311 880 l 442 880 q 513 748 472 827 l 570 640 l 517 640 l 369 770 q 312 721 349 755 q 220 641 274 686 l 166 643 z "},"":{"ha":665,"x_min":68,"x_max":651,"o":"m 627 132 l 643 121 q 650 110 649 117 l 651 106 q 608 23 635 46 q 543 1 582 1 q 474 23 503 1 q 421 100 445 45 q 339 23 392 49 q 210 -3 286 -3 q 106 26 139 -3 q 73 104 73 56 q 82 149 73 126 q 114 195 92 172 q 185 245 136 218 q 237 268 193 249 l 406 336 q 408 388 408 361 q 385 513 408 479 q 338 533 372 533 q 275 520 304 533 q 234 487 247 507 q 218 431 224 472 q 209 396 213 401 q 172 373 199 383 q 136 357 145 362 q 77 340 99 340 q 68 363 68 348 q 84 429 68 401 q 158 506 109 469 q 250 557 207 543 q 392 576 308 576 q 485 556 446 576 q 539 497 524 536 q 555 355 555 458 l 553 243 l 554 161 l 554 140 q 562 101 554 112 q 582 91 570 91 q 595 95 589 91 l 615 127 l 627 132 m 405 289 q 318 246 366 276 q 250 185 269 216 q 237 130 237 163 q 254 82 237 101 q 295 63 272 63 q 359 85 333 63 q 401 131 395 114 q 408 229 408 149 q 405 289 408 259 m 377 759 q 401 822 377 798 q 460 847 425 847 q 520 822 496 847 q 545 763 545 798 q 520 703 545 728 q 460 679 496 679 q 402 703 427 679 q 377 759 377 728 m 235 847 q 291 822 267 847 q 315 762 315 797 q 291 703 315 728 q 231 678 267 678 q 172 703 196 678 q 148 762 148 727 q 172 822 148 797 q 229 847 197 847 l 235 847 z "},"":{"ha":665,"x_min":68,"x_max":651,"o":"m 627 132 l 643 121 q 650 110 649 117 l 651 106 q 608 23 635 46 q 543 1 582 1 q 474 23 503 1 q 421 100 445 45 q 339 23 392 49 q 210 -3 286 -3 q 106 26 139 -3 q 73 104 73 56 q 82 149 73 126 q 114 195 92 172 q 185 245 136 218 q 237 268 193 249 l 406 336 q 408 388 408 361 q 385 513 408 479 q 338 533 372 533 q 275 520 304 533 q 234 487 247 507 q 218 431 224 472 q 209 396 213 401 q 172 373 199 383 q 136 357 145 362 q 77 340 99 340 q 68 363 68 348 q 84 429 68 401 q 158 506 109 469 q 250 557 207 543 q 392 576 308 576 q 485 556 446 576 q 539 497 524 536 q 555 355 555 458 l 553 243 l 554 161 l 554 140 q 562 101 554 112 q 582 91 570 91 q 595 95 589 91 l 615 127 l 627 132 m 405 289 q 318 246 366 276 q 250 185 269 216 q 237 130 237 163 q 254 82 237 101 q 295 63 272 63 q 359 85 333 63 q 401 131 395 114 q 408 229 408 149 q 405 289 408 259 m 526 854 l 547 854 q 566 854 553 854 q 524 721 565 767 q 424 675 482 675 q 370 682 397 675 q 300 708 351 687 q 242 730 249 729 q 215 734 229 734 q 178 722 191 734 q 156 677 165 711 l 116 676 q 117 701 117 682 q 160 809 118 766 q 255 853 202 853 q 306 847 281 853 q 377 821 330 841 q 437 798 425 802 q 471 794 456 794 q 505 806 492 794 q 526 854 517 817 z "},"":{"ha":665,"x_min":68,"x_max":651,"o":"m 627 132 l 643 121 q 650 110 649 117 l 651 106 q 608 23 635 46 q 543 1 582 1 q 474 23 503 1 q 421 100 445 45 q 339 23 392 49 q 210 -3 286 -3 q 106 26 139 -3 q 73 104 73 56 q 82 149 73 126 q 114 195 92 172 q 185 245 136 218 q 237 268 193 249 l 406 336 q 408 388 408 361 q 385 513 408 479 q 338 533 372 533 q 275 520 304 533 q 234 487 247 507 q 218 431 224 472 q 209 396 213 401 q 172 373 199 383 q 136 357 145 362 q 77 340 99 340 q 68 363 68 348 q 84 429 68 401 q 158 506 109 469 q 250 557 207 543 q 392 576 308 576 q 485 556 446 576 q 539 497 524 536 q 555 355 555 458 l 553 243 l 554 161 l 554 140 q 562 101 554 112 q 582 91 570 91 q 595 95 589 91 l 615 127 l 627 132 m 405 289 q 318 246 366 276 q 250 185 269 216 q 237 130 237 163 q 254 82 237 101 q 295 63 272 63 q 359 85 333 63 q 401 131 395 114 q 408 229 408 149 q 405 289 408 259 m 254 762 q 286 842 254 808 q 366 875 319 875 q 446 842 413 875 q 479 762 479 809 q 446 682 479 715 q 366 649 413 649 q 287 683 320 649 q 254 762 254 716 m 366 701 q 409 719 391 701 q 427 762 427 737 q 409 805 427 787 q 367 823 391 823 q 323 806 341 823 q 305 762 305 788 q 323 719 305 737 q 366 701 340 701 z "},"":{"ha":651,"x_min":54,"x_max":622,"o":"m 581 181 q 597 173 591 175 q 622 156 612 166 q 533 39 604 88 q 355 -11 463 -11 q 220 18 287 -11 q 115 93 154 46 q 69 181 84 129 q 54 270 54 233 q 73 370 54 314 q 136 475 92 426 q 249 554 181 525 q 403 583 317 583 q 566 547 520 583 q 612 473 612 510 q 594 417 612 437 q 543 396 575 396 q 491 414 515 396 q 452 476 468 433 q 421 522 440 507 q 376 535 402 535 q 262 480 312 535 q 212 332 212 426 q 273 152 212 218 q 412 85 334 85 q 478 94 451 85 q 524 120 495 100 q 552 149 532 125 q 581 181 573 173 m 402 11 l 475 11 q 445 -22 465 -2 q 425 -46 425 -42 q 432 -59 425 -51 q 481 -121 471 -100 q 492 -170 492 -142 q 428 -279 492 -240 q 288 -317 364 -317 q 172 -290 216 -317 q 149 -258 149 -276 q 171 -219 149 -240 q 213 -198 193 -198 q 233 -203 222 -198 q 283 -235 245 -209 q 347 -261 321 -261 q 384 -249 370 -261 q 397 -220 397 -237 q 378 -179 397 -199 q 299 -139 359 -159 q 279 -128 286 -134 q 275 -120 275 -124 q 317 -74 275 -103 q 402 11 348 -52 z "},"":{"ha":651,"x_min":49,"x_max":605,"o":"m 58 363 q 90 440 76 421 q 171 527 127 496 q 248 568 214 558 q 321 581 293 581 q 424 571 385 581 q 490 543 463 562 q 551 490 528 517 q 588 426 574 463 q 604 337 603 389 l 529 338 q 392 345 498 338 q 338 347 353 347 q 264 347 333 347 l 206 347 q 205 330 205 337 q 214 255 205 294 q 240 185 222 215 q 284 133 258 155 q 338 102 310 111 l 377 89 q 447 92 429 89 q 504 110 479 99 q 564 145 529 120 q 605 113 589 127 q 481 18 545 47 q 338 -12 417 -12 q 250 -2 284 -12 q 168 35 205 10 q 105 98 132 60 q 66 174 79 135 q 49 257 49 226 q 58 363 49 316 m 452 393 q 437 465 452 431 q 393 519 423 500 q 333 538 363 538 q 251 498 288 538 q 210 390 214 458 l 364 389 q 406 391 379 389 q 434 393 426 393 q 452 393 440 393 m 254 650 q 323 868 275 725 l 509 866 l 304 650 q 275 649 279 649 q 254 650 265 649 z "},"":{"ha":651,"x_min":49,"x_max":605,"o":"m 58 363 q 90 440 76 421 q 171 527 127 496 q 248 568 214 558 q 321 581 293 581 q 424 571 385 581 q 490 543 463 562 q 551 490 528 517 q 588 426 574 463 q 604 337 603 389 l 529 338 q 392 345 498 338 q 338 347 353 347 q 264 347 333 347 l 206 347 q 205 330 205 337 q 214 255 205 294 q 240 185 222 215 q 284 133 258 155 q 338 102 310 111 l 377 89 q 447 92 429 89 q 504 110 479 99 q 564 145 529 120 q 605 113 589 127 q 481 18 545 47 q 338 -12 417 -12 q 250 -2 284 -12 q 168 35 205 10 q 105 98 132 60 q 66 174 79 135 q 49 257 49 226 q 58 363 49 316 m 452 393 q 437 465 452 431 q 393 519 423 500 q 333 538 363 538 q 251 498 288 538 q 210 390 214 458 l 364 389 q 406 391 379 389 q 434 393 426 393 q 452 393 440 393 m 176 868 l 361 868 q 376 827 368 850 q 393 771 385 795 q 431 650 425 680 l 378 652 l 176 868 z "},"":{"ha":651,"x_min":49,"x_max":605,"o":"m 58 363 q 90 440 76 421 q 171 527 127 496 q 248 568 214 558 q 321 581 293 581 q 424 571 385 581 q 490 543 463 562 q 551 490 528 517 q 588 426 574 463 q 604 337 603 389 l 529 338 q 392 345 498 338 q 338 347 353 347 q 264 347 333 347 l 206 347 q 205 330 205 337 q 214 255 205 294 q 240 185 222 215 q 284 133 258 155 q 338 102 310 111 l 377 89 q 447 92 429 89 q 504 110 479 99 q 564 145 529 120 q 605 113 589 127 q 481 18 545 47 q 338 -12 417 -12 q 250 -2 284 -12 q 168 35 205 10 q 105 98 132 60 q 66 174 79 135 q 49 257 49 226 q 58 363 49 316 m 452 393 q 437 465 452 431 q 393 519 423 500 q 333 538 363 538 q 251 498 288 538 q 210 390 214 458 l 364 389 q 406 391 379 389 q 434 393 426 393 q 452 393 440 393 m 139 643 l 270 880 q 296 880 283 880 l 415 880 q 486 748 445 827 l 543 640 l 490 640 l 342 770 q 284 721 322 755 q 193 641 247 686 l 139 643 z "},"":{"ha":651,"x_min":49,"x_max":605,"o":"m 58 363 q 90 440 76 421 q 171 527 127 496 q 248 568 214 558 q 321 581 293 581 q 424 571 385 581 q 490 543 463 562 q 551 490 528 517 q 588 426 574 463 q 604 337 603 389 l 529 338 q 392 345 498 338 q 338 347 353 347 q 264 347 333 347 l 206 347 q 205 330 205 337 q 214 255 205 294 q 240 185 222 215 q 284 133 258 155 q 338 102 310 111 l 377 89 q 447 92 429 89 q 504 110 479 99 q 564 145 529 120 q 605 113 589 127 q 481 18 545 47 q 338 -12 417 -12 q 250 -2 284 -12 q 168 35 205 10 q 105 98 132 60 q 66 174 79 135 q 49 257 49 226 q 58 363 49 316 m 452 393 q 437 465 452 431 q 393 519 423 500 q 333 538 363 538 q 251 498 288 538 q 210 390 214 458 l 364 389 q 406 391 379 389 q 434 393 426 393 q 452 393 440 393 m 370 759 q 394 822 370 798 q 454 847 418 847 q 513 822 489 847 q 538 763 538 798 q 513 703 538 728 q 454 679 489 679 q 395 703 420 679 q 370 759 370 728 m 229 847 q 284 822 260 847 q 309 762 309 797 q 284 703 309 728 q 224 678 260 678 q 165 703 189 678 q 141 762 141 727 q 165 822 141 797 q 222 847 190 847 l 229 847 z "},"":{"ha":391,"x_min":22,"x_max":378,"o":"m 22 48 q 61 53 33 50 q 111 63 101 57 q 125 84 121 69 q 130 175 130 99 l 127 245 l 128 360 q 127 413 128 385 q 126 431 126 425 q 119 464 126 457 q 67 481 105 477 l 29 487 l 29 522 q 103 534 91 530 q 170 563 140 545 q 230 612 201 581 l 272 611 q 275 572 275 580 l 275 514 q 277 444 275 500 l 273 175 l 273 79 q 275 64 273 71 q 370 44 300 58 q 373 24 373 31 q 371 5 373 18 l 330 5 l 203 9 q 75 8 93 9 q 32 4 36 4 l 23 5 q 22 32 22 22 l 22 48 m 123 650 q 192 868 144 725 l 378 866 l 174 650 q 144 649 149 649 q 123 650 134 649 z "},"":{"ha":391,"x_min":22,"x_max":373,"o":"m 22 48 q 61 53 33 50 q 111 63 101 57 q 125 84 121 69 q 130 175 130 99 l 127 245 l 128 360 q 127 413 128 385 q 126 431 126 425 q 119 464 126 457 q 67 481 105 477 l 29 487 l 29 522 q 103 534 91 530 q 170 563 140 545 q 230 612 201 581 l 272 611 q 275 572 275 580 l 275 514 q 277 444 275 500 l 273 175 l 273 79 q 275 64 273 71 q 370 44 300 58 q 373 24 373 31 q 371 5 373 18 l 330 5 l 203 9 q 75 8 93 9 q 32 4 36 4 l 23 5 q 22 32 22 22 l 22 48 m 45 868 l 231 868 q 245 827 237 850 q 262 771 254 795 q 300 650 294 680 l 247 652 l 45 868 z "},"":{"ha":391,"x_min":8,"x_max":412,"o":"m 22 48 q 61 53 33 50 q 111 63 101 57 q 125 84 121 69 q 130 175 130 99 l 127 245 l 128 360 q 127 413 128 385 q 126 431 126 425 q 119 464 126 457 q 67 481 105 477 l 29 487 l 29 522 q 103 534 91 530 q 170 563 140 545 q 230 612 201 581 l 272 611 q 275 572 275 580 l 275 514 q 277 444 275 500 l 273 175 l 273 79 q 275 64 273 71 q 370 44 300 58 q 373 24 373 31 q 371 5 373 18 l 330 5 l 203 9 q 75 8 93 9 q 32 4 36 4 l 23 5 q 22 32 22 22 l 22 48 m 8 643 l 139 880 q 165 880 153 880 l 284 880 q 355 748 314 827 l 412 640 l 359 640 l 211 770 q 154 721 191 755 q 62 641 116 686 l 8 643 z "},"":{"ha":391,"x_min":10,"x_max":407,"o":"m 22 48 q 61 53 33 50 q 111 63 101 57 q 125 84 121 69 q 130 175 130 99 l 127 245 l 128 360 q 127 413 128 385 q 126 431 126 425 q 119 464 126 457 q 67 481 105 477 l 29 487 l 29 522 q 103 534 91 530 q 170 563 140 545 q 230 612 201 581 l 272 611 q 275 572 275 580 l 275 514 q 277 444 275 500 l 273 175 l 273 79 q 275 64 273 71 q 370 44 300 58 q 373 24 373 31 q 371 5 373 18 l 330 5 l 203 9 q 75 8 93 9 q 32 4 36 4 l 23 5 q 22 32 22 22 l 22 48 m 239 759 q 263 822 239 798 q 323 847 288 847 q 382 822 358 847 q 407 763 407 798 q 382 703 407 728 q 323 679 358 679 q 264 703 289 679 q 239 759 239 728 m 98 847 q 154 822 130 847 q 178 762 178 797 q 153 703 178 728 q 94 678 129 678 q 34 703 58 678 q 10 762 10 727 q 35 822 10 797 q 92 847 59 847 l 98 847 z "},"":{"ha":767,"x_min":27,"x_max":749,"o":"m 28 39 q 60 50 45 47 q 104 60 98 56 q 117 75 114 66 q 121 134 121 88 l 121 193 l 122 241 l 120 313 l 120 355 q 113 425 120 398 q 96 446 111 435 q 32 472 77 459 l 31 505 q 47 508 40 507 q 102 522 54 509 q 150 541 139 535 q 161 547 153 543 q 179 560 169 553 q 228 610 199 574 l 264 612 l 262 536 q 262 517 262 524 q 262 486 262 512 q 365 554 319 535 q 479 579 425 579 q 591 548 543 579 q 654 475 640 516 q 669 308 669 433 l 667 87 q 672 61 667 71 q 709 51 679 56 l 743 45 q 749 23 749 36 q 748 1 749 15 l 615 10 l 576 9 l 545 9 l 455 2 l 432 2 q 431 16 431 11 q 433 42 431 28 q 480 49 442 44 q 503 54 490 50 q 518 64 516 59 q 524 109 524 76 q 522 196 524 165 l 523 275 q 505 453 524 418 q 428 504 479 504 q 349 485 390 504 q 265 426 309 465 l 264 414 l 265 372 l 264 326 l 267 218 l 266 201 q 275 76 266 90 q 342 45 283 62 q 344 28 344 33 q 339 3 344 20 q 304 2 318 2 q 259 6 290 2 l 186 7 q 30 3 132 7 q 27 17 27 9 q 28 39 27 22 m 577 854 l 597 854 q 616 854 604 854 q 574 721 616 767 q 475 675 533 675 q 420 682 448 675 q 351 708 402 687 q 293 730 300 729 q 266 734 280 734 q 229 722 242 734 q 207 677 216 711 l 167 676 q 168 701 168 682 q 211 809 169 766 q 306 853 253 853 q 357 847 332 853 q 428 821 381 841 q 488 798 475 802 q 522 794 507 794 q 555 806 543 794 q 577 854 568 817 z "},"":{"ha":724,"x_min":51,"x_max":673,"o":"m 587 498 q 652 402 631 456 q 673 299 673 347 q 646 153 673 208 q 532 28 604 68 q 367 -12 461 -12 q 188 36 261 -12 q 82 144 114 83 q 51 294 51 204 q 66 385 51 339 q 107 465 81 431 q 164 522 133 498 q 255 568 210 554 q 366 582 301 582 q 587 498 508 582 m 216 264 q 225 167 222 180 q 253 89 234 121 q 296 52 266 68 q 367 35 326 35 q 450 67 416 35 q 499 165 484 98 q 509 310 509 210 q 468 485 509 433 q 361 536 427 536 q 274 507 309 536 q 227 420 240 477 q 216 264 218 384 m 290 650 q 359 868 311 725 l 545 866 l 340 650 q 311 649 315 649 q 290 650 301 649 z "},"":{"ha":724,"x_min":51,"x_max":673,"o":"m 587 498 q 652 402 631 456 q 673 299 673 347 q 646 153 673 208 q 532 28 604 68 q 367 -12 461 -12 q 188 36 261 -12 q 82 144 114 83 q 51 294 51 204 q 66 385 51 339 q 107 465 81 431 q 164 522 133 498 q 255 568 210 554 q 366 582 301 582 q 587 498 508 582 m 216 264 q 225 167 222 180 q 253 89 234 121 q 296 52 266 68 q 367 35 326 35 q 450 67 416 35 q 499 165 484 98 q 509 310 509 210 q 468 485 509 433 q 361 536 427 536 q 274 507 309 536 q 227 420 240 477 q 216 264 218 384 m 212 868 l 397 868 q 412 827 404 850 q 429 771 421 795 q 467 650 460 680 l 414 652 l 212 868 z "},"":{"ha":724,"x_min":51,"x_max":673,"o":"m 587 498 q 652 402 631 456 q 673 299 673 347 q 646 153 673 208 q 532 28 604 68 q 367 -12 461 -12 q 188 36 261 -12 q 82 144 114 83 q 51 294 51 204 q 66 385 51 339 q 107 465 81 431 q 164 522 133 498 q 255 568 210 554 q 366 582 301 582 q 587 498 508 582 m 216 264 q 225 167 222 180 q 253 89 234 121 q 296 52 266 68 q 367 35 326 35 q 450 67 416 35 q 499 165 484 98 q 509 310 509 210 q 468 485 509 433 q 361 536 427 536 q 274 507 309 536 q 227 420 240 477 q 216 264 218 384 m 175 643 l 306 880 q 332 880 319 880 l 451 880 q 522 748 481 827 l 578 640 l 526 640 l 378 770 q 320 721 358 755 q 229 641 283 686 l 175 643 z "},"":{"ha":724,"x_min":51,"x_max":673,"o":"m 587 498 q 652 402 631 456 q 673 299 673 347 q 646 153 673 208 q 532 28 604 68 q 367 -12 461 -12 q 188 36 261 -12 q 82 144 114 83 q 51 294 51 204 q 66 385 51 339 q 107 465 81 431 q 164 522 133 498 q 255 568 210 554 q 366 582 301 582 q 587 498 508 582 m 216 264 q 225 167 222 180 q 253 89 234 121 q 296 52 266 68 q 367 35 326 35 q 450 67 416 35 q 499 165 484 98 q 509 310 509 210 q 468 485 509 433 q 361 536 427 536 q 274 507 309 536 q 227 420 240 477 q 216 264 218 384 m 406 759 q 430 822 406 798 q 490 847 454 847 q 549 822 525 847 q 574 763 574 798 q 549 703 574 728 q 490 679 525 679 q 431 703 456 679 q 406 759 406 728 m 264 847 q 320 822 296 847 q 345 762 345 797 q 320 703 345 728 q 260 678 296 678 q 201 703 225 678 q 177 762 177 727 q 201 822 177 797 q 258 847 226 847 l 264 847 z "},"":{"ha":724,"x_min":51,"x_max":673,"o":"m 587 498 q 652 402 631 456 q 673 299 673 347 q 646 153 673 208 q 532 28 604 68 q 367 -12 461 -12 q 188 36 261 -12 q 82 144 114 83 q 51 294 51 204 q 66 385 51 339 q 107 465 81 431 q 164 522 133 498 q 255 568 210 554 q 366 582 301 582 q 587 498 508 582 m 216 264 q 225 167 222 180 q 253 89 234 121 q 296 52 266 68 q 367 35 326 35 q 450 67 416 35 q 499 165 484 98 q 509 310 509 210 q 468 485 509 433 q 361 536 427 536 q 274 507 309 536 q 227 420 240 477 q 216 264 218 384 m 555 854 l 576 854 q 595 854 583 854 q 553 721 594 767 q 453 675 511 675 q 399 682 426 675 q 329 708 380 687 q 271 730 278 729 q 244 734 258 734 q 207 722 220 734 q 185 677 194 711 l 145 676 q 146 701 146 682 q 189 809 147 766 q 284 853 231 853 q 335 847 311 853 q 407 821 359 841 q 467 798 454 802 q 500 794 485 794 q 534 806 521 794 q 555 854 547 817 z "},"":{"ha":767,"x_min":28,"x_max":745,"o":"m 32 553 q 44 557 39 556 l 246 557 l 261 556 l 262 511 l 260 444 l 261 410 l 260 307 l 260 237 q 268 130 260 169 q 301 84 278 100 q 356 69 323 69 q 406 75 387 69 q 449 98 425 81 q 481 123 474 115 q 508 163 500 144 l 513 332 q 514 375 514 358 q 513 419 514 393 q 512 450 512 446 l 513 475 l 511 490 q 466 503 495 500 l 420 506 q 413 511 416 508 q 410 531 410 524 q 412 554 410 539 q 451 557 435 557 l 555 556 q 659 557 597 556 l 660 507 l 658 441 l 659 360 l 659 243 l 657 191 l 658 156 q 655 116 655 121 q 661 91 655 99 q 673 83 667 83 l 735 85 l 743 83 q 745 56 745 60 q 743 41 745 52 q 692 37 707 40 q 533 -12 619 20 l 506 -10 l 505 100 q 481 79 497 94 q 379 8 422 26 q 290 -11 336 -11 q 193 12 234 -11 q 134 69 153 35 q 115 145 119 96 q 113 278 113 158 l 114 300 q 117 398 117 366 q 115 471 117 452 q 109 491 115 479 q 86 497 99 495 q 32 511 43 505 q 28 520 28 513 q 30 531 28 524 q 32 553 31 538 m 311 650 q 380 868 332 725 l 566 866 l 362 650 q 332 649 337 649 q 311 650 323 649 z "},"":{"ha":767,"x_min":28,"x_max":745,"o":"m 32 553 q 44 557 39 556 l 246 557 l 261 556 l 262 511 l 260 444 l 261 410 l 260 307 l 260 237 q 268 130 260 169 q 301 84 278 100 q 356 69 323 69 q 406 75 387 69 q 449 98 425 81 q 481 123 474 115 q 508 163 500 144 l 513 332 q 514 375 514 358 q 513 419 514 393 q 512 450 512 446 l 513 475 l 511 490 q 466 503 495 500 l 420 506 q 413 511 416 508 q 410 531 410 524 q 412 554 410 539 q 451 557 435 557 l 555 556 q 659 557 597 556 l 660 507 l 658 441 l 659 360 l 659 243 l 657 191 l 658 156 q 655 116 655 121 q 661 91 655 99 q 673 83 667 83 l 735 85 l 743 83 q 745 56 745 60 q 743 41 745 52 q 692 37 707 40 q 533 -12 619 20 l 506 -10 l 505 100 q 481 79 497 94 q 379 8 422 26 q 290 -11 336 -11 q 193 12 234 -11 q 134 69 153 35 q 115 145 119 96 q 113 278 113 158 l 114 300 q 117 398 117 366 q 115 471 117 452 q 109 491 115 479 q 86 497 99 495 q 32 511 43 505 q 28 520 28 513 q 30 531 28 524 q 32 553 31 538 m 234 868 l 419 868 q 433 827 426 850 q 451 771 443 795 q 489 650 482 680 l 435 652 l 234 868 z "},"":{"ha":767,"x_min":28,"x_max":745,"o":"m 32 553 q 44 557 39 556 l 246 557 l 261 556 l 262 511 l 260 444 l 261 410 l 260 307 l 260 237 q 268 130 260 169 q 301 84 278 100 q 356 69 323 69 q 406 75 387 69 q 449 98 425 81 q 481 123 474 115 q 508 163 500 144 l 513 332 q 514 375 514 358 q 513 419 514 393 q 512 450 512 446 l 513 475 l 511 490 q 466 503 495 500 l 420 506 q 413 511 416 508 q 410 531 410 524 q 412 554 410 539 q 451 557 435 557 l 555 556 q 659 557 597 556 l 660 507 l 658 441 l 659 360 l 659 243 l 657 191 l 658 156 q 655 116 655 121 q 661 91 655 99 q 673 83 667 83 l 735 85 l 743 83 q 745 56 745 60 q 743 41 745 52 q 692 37 707 40 q 533 -12 619 20 l 506 -10 l 505 100 q 481 79 497 94 q 379 8 422 26 q 290 -11 336 -11 q 193 12 234 -11 q 134 69 153 35 q 115 145 119 96 q 113 278 113 158 l 114 300 q 117 398 117 366 q 115 471 117 452 q 109 491 115 479 q 86 497 99 495 q 32 511 43 505 q 28 520 28 513 q 30 531 28 524 q 32 553 31 538 m 197 643 l 328 880 q 353 880 341 880 l 473 880 q 544 748 503 827 l 600 640 l 547 640 l 399 770 q 342 721 380 755 q 250 641 304 686 l 197 643 z "},"":{"ha":767,"x_min":28,"x_max":745,"o":"m 32 553 q 44 557 39 556 l 246 557 l 261 556 l 262 511 l 260 444 l 261 410 l 260 307 l 260 237 q 268 130 260 169 q 301 84 278 100 q 356 69 323 69 q 406 75 387 69 q 449 98 425 81 q 481 123 474 115 q 508 163 500 144 l 513 332 q 514 375 514 358 q 513 419 514 393 q 512 450 512 446 l 513 475 l 511 490 q 466 503 495 500 l 420 506 q 413 511 416 508 q 410 531 410 524 q 412 554 410 539 q 451 557 435 557 l 555 556 q 659 557 597 556 l 660 507 l 658 441 l 659 360 l 659 243 l 657 191 l 658 156 q 655 116 655 121 q 661 91 655 99 q 673 83 667 83 l 735 85 l 743 83 q 745 56 745 60 q 743 41 745 52 q 692 37 707 40 q 533 -12 619 20 l 506 -10 l 505 100 q 481 79 497 94 q 379 8 422 26 q 290 -11 336 -11 q 193 12 234 -11 q 134 69 153 35 q 115 145 119 96 q 113 278 113 158 l 114 300 q 117 398 117 366 q 115 471 117 452 q 109 491 115 479 q 86 497 99 495 q 32 511 43 505 q 28 520 28 513 q 30 531 28 524 q 32 553 31 538 m 401 759 q 425 822 401 798 q 484 847 449 847 q 544 822 519 847 q 568 763 568 798 q 544 703 568 728 q 484 679 519 679 q 426 703 450 679 q 401 759 401 728 m 259 847 q 315 822 291 847 q 339 762 339 797 q 315 703 339 728 q 255 678 290 678 q 196 703 220 678 q 172 762 172 727 q 196 822 172 797 q 253 847 220 847 l 259 847 z "},"":{"ha":694,"x_min":20,"x_max":676,"o":"m 292 553 l 281 616 q 257 751 269 694 q 245 855 245 809 q 258 892 245 882 q 334 901 271 901 l 388 901 l 398 901 q 430 888 418 901 q 441 844 441 875 q 408 637 441 810 q 395 553 395 567 q 417 559 405 555 q 558 591 461 572 q 627 601 605 601 q 664 583 651 601 q 676 496 676 565 q 664 436 676 451 q 625 420 651 420 q 553 427 617 420 l 453 448 l 402 460 q 392 461 398 460 l 392 454 q 395 432 392 450 q 413 230 407 276 q 437 -41 420 184 q 439 -74 438 -59 q 443 -102 441 -89 q 450 -170 450 -161 l 450 -233 l 450 -263 q 440 -305 451 -292 q 401 -322 429 -318 q 332 -328 355 -328 q 254 -315 269 -328 q 239 -248 239 -301 l 242 -142 l 297 463 q 229 448 280 460 q 60 414 88 414 q 32 428 43 414 q 20 473 20 441 l 22 496 l 20 519 q 26 582 20 573 q 58 600 35 600 q 245 564 97 600 l 292 553 z "},"":{"ha":550,"x_min":40,"x_max":509,"o":"m 275 939 q 441 870 372 939 q 509 704 509 802 q 440 538 509 607 q 275 469 372 469 q 109 538 178 469 q 40 704 40 607 q 109 870 40 802 q 275 939 177 939 m 275 850 q 171 808 214 850 q 129 705 129 765 q 172 602 129 644 q 275 559 214 559 q 378 602 335 559 q 420 705 420 644 q 378 808 420 765 q 275 850 335 850 z "},"":{"ha":651,"x_min":39,"x_max":606,"o":"m 410 581 l 492 812 l 537 812 q 463 595 534 803 q 457 578 460 588 q 483 573 468 575 q 565 533 536 565 q 595 469 595 502 q 576 416 595 436 q 527 397 557 397 q 467 424 494 397 q 434 484 452 440 q 429 497 433 488 l 293 119 q 400 84 344 84 q 488 105 453 84 q 562 180 523 125 q 606 155 587 173 q 516 40 587 89 q 346 -9 446 -9 q 252 2 298 -9 l 168 -237 l 122 -238 l 211 14 q 115 78 138 54 q 57 169 76 117 q 39 273 39 221 q 67 395 39 331 q 151 505 95 459 q 281 570 208 551 q 410 581 321 581 m 233 182 q 258 150 241 170 l 391 529 q 357 536 375 536 q 244 481 294 536 q 195 328 195 427 q 233 182 195 241 z "},"":{"ha":941,"x_min":65,"x_max":897,"o":"m 227 -100 q 232 -54 229 -85 q 237 -4 235 -24 q 253 81 248 62 q 256 99 255 90 l 248 100 l 203 100 l 95 101 l 66 99 l 87 178 q 92 187 88 181 q 168 197 136 194 l 268 199 l 316 423 q 392 642 345 539 q 499 806 439 744 q 592 871 542 850 q 714 899 665 899 q 808 888 768 899 q 857 860 833 881 q 885 830 880 840 q 897 787 897 807 q 874 739 897 759 q 814 711 844 711 q 781 720 797 711 q 753 743 770 724 q 706 794 713 785 q 651 825 681 825 q 621 817 633 825 q 587 777 602 806 q 555 679 579 762 l 522 545 q 515 496 517 505 q 507 465 513 488 q 484 362 491 399 q 446 208 446 220 q 446 200 446 205 q 515 197 463 198 l 555 196 l 574 197 q 650 189 616 197 q 644 154 650 173 q 639 133 642 145 q 630 102 634 114 q 581 100 599 100 l 481 99 q 456 96 475 99 l 405 95 l 355 -8 q 342 -33 349 -21 q 321 -75 330 -55 q 389 -66 363 -66 q 456 -77 425 -66 q 522 -117 488 -89 q 591 -182 573 -161 q 654 -227 633 -217 q 682 -233 667 -233 q 722 -220 708 -233 q 736 -182 736 -207 q 720 -131 736 -159 q 692 -50 692 -79 q 717 11 692 -16 q 778 37 743 37 q 847 6 817 37 q 878 -74 878 -25 q 793 -242 878 -165 q 587 -319 709 -319 q 315 -189 452 -319 q 283 -163 296 -172 q 221 -282 244 -254 q 147 -319 191 -319 q 86 -298 107 -319 q 65 -242 65 -278 q 99 -173 65 -213 q 206 -108 134 -134 q 227 -100 217 -104 z "},"":{"ha":694,"x_min":57,"x_max":644,"o":"m 376 -264 q 422 -240 400 -264 q 444 -178 444 -216 q 429 -118 444 -156 q 395 -57 414 -79 l 226 172 q 114 333 138 287 q 73 439 90 379 q 57 562 57 500 q 60 607 57 587 q 83 694 62 614 q 114 754 90 714 q 159 809 128 779 q 225 859 191 840 q 311 890 259 878 q 395 899 348 899 q 571 860 515 899 q 611 790 611 832 q 586 724 611 751 q 533 698 562 698 q 478 711 506 698 q 400 767 450 724 q 340 817 351 811 q 309 826 323 826 q 268 806 287 826 q 250 760 250 787 q 258 709 250 734 q 297 629 268 677 q 347 557 327 580 q 495 365 366 534 l 555 274 q 601 191 583 233 q 635 83 627 126 q 644 -8 644 40 q 627 -87 644 -39 q 590 -177 604 -156 q 504 -272 553 -235 q 415 -320 454 -310 q 314 -336 351 -336 q 120 -290 186 -336 q 80 -215 80 -262 q 106 -155 80 -181 q 163 -129 132 -129 q 306 -215 229 -129 q 323 -233 316 -224 q 376 -264 354 -264 m 482 -229 q 544 -146 517 -207 q 571 -8 571 -85 q 563 63 571 34 q 529 145 555 92 q 465 251 503 198 l 382 368 q 277 509 298 476 q 235 583 243 566 q 195 674 207 640 q 205 774 204 766 q 146 698 165 745 q 126 587 126 651 q 144 474 126 521 q 231 315 178 389 q 349 156 336 172 q 460 0 430 56 q 490 -75 479 -35 q 500 -156 500 -114 q 489 -210 500 -185 q 482 -229 485 -220 z "},"":{"ha":492,"x_min":52,"x_max":439,"o":"m 246 652 q 383 596 327 652 q 439 458 439 539 q 383 321 439 378 q 246 264 326 264 q 109 321 165 264 q 52 458 52 378 q 109 596 52 539 q 246 652 165 652 z "},"":{"ha":752,"x_min":1,"x_max":752,"o":"m 433 868 l 433 -300 l 366 -300 l 366 291 q 161 333 239 296 q 42 445 83 370 q 1 612 1 519 q 56 795 1 720 q 186 895 112 870 q 454 920 261 920 l 752 920 l 752 890 l 722 890 q 658 875 679 890 q 629 836 637 861 q 624 752 624 821 l 624 -300 l 557 -300 l 557 868 l 433 868 z "},"":{"ha":752,"x_min":24,"x_max":714,"o":"m 24 35 q 74 54 46 45 q 98 68 87 59 q 104 85 104 80 q 106 153 106 105 l 104 274 l 104 371 l 104 433 l 104 567 q 189 834 104 761 q 237 866 227 861 q 302 890 264 880 q 389 900 340 900 q 500 885 448 900 q 585 849 551 869 q 629 810 602 838 q 645 787 640 798 q 661 718 661 749 q 634 625 661 663 q 548 553 608 587 l 540 547 q 469 513 479 519 l 468 506 q 471 496 468 499 q 505 480 479 489 q 568 448 520 475 q 647 386 616 420 q 696 308 677 351 q 714 222 714 264 q 683 109 714 165 q 594 20 651 52 q 492 -3 553 -3 q 377 27 412 -3 q 341 96 341 58 q 359 140 341 121 q 401 158 378 158 q 440 143 425 158 q 460 93 456 128 q 467 60 463 68 q 479 41 470 52 q 496 39 489 39 q 522 58 512 39 q 542 215 542 96 q 532 316 542 270 q 506 386 522 362 q 440 447 485 418 q 396 500 396 475 q 397 511 396 505 q 432 541 406 523 q 466 570 458 559 q 498 628 488 600 q 507 694 507 656 q 470 816 507 774 q 376 859 432 859 q 345 855 359 859 q 303 839 336 853 q 261 781 273 814 q 249 647 249 747 l 249 630 l 253 385 l 253 350 q 252 273 253 311 l 252 254 l 254 207 l 253 90 q 259 68 253 74 q 308 42 265 62 q 312 18 312 29 q 311 7 312 14 q 281 5 288 5 q 214 8 275 5 l 180 8 q 77 3 113 8 q 25 -2 41 -2 l 24 35 z "},"":{"ha":1042,"x_min":40,"x_max":1002,"o":"m 521 941 q 758 879 642 941 q 938 701 873 817 q 1002 460 1002 585 q 939 220 1002 335 q 760 42 875 106 q 521 -21 646 -21 q 282 42 396 -21 q 104 220 168 106 q 40 460 40 335 q 105 701 40 585 q 285 879 170 817 q 521 941 400 941 m 521 880 q 314 826 415 880 q 157 670 214 772 q 100 460 100 569 q 156 251 100 351 q 312 95 212 151 q 521 39 412 39 q 730 95 630 39 q 886 251 830 151 q 941 460 941 351 q 885 670 941 569 q 728 826 829 772 q 521 880 627 880 m 264 739 l 509 739 q 682 709 633 739 q 750 591 750 667 q 720 505 750 543 q 629 450 690 467 l 722 281 q 764 226 742 244 q 793 214 774 217 l 793 191 l 629 191 l 490 440 l 458 440 l 458 306 q 474 232 458 248 q 540 214 489 216 l 540 191 l 253 191 l 253 214 q 307 228 295 214 q 324 306 324 248 l 324 626 q 312 697 324 682 q 264 716 300 712 l 264 739 m 458 475 q 496 471 481 471 q 573 505 541 471 q 604 593 604 538 q 575 680 604 650 q 484 709 545 709 l 458 709 l 458 475 z "},"":{"ha":1042,"x_min":40,"x_max":1002,"o":"m 521 941 q 758 879 642 941 q 938 701 873 817 q 1002 460 1002 585 q 939 220 1002 335 q 760 42 875 106 q 521 -21 646 -21 q 282 42 396 -21 q 104 220 168 106 q 40 460 40 335 q 105 701 40 585 q 285 879 170 817 q 521 941 400 941 m 521 880 q 314 826 415 880 q 157 670 214 772 q 100 460 100 569 q 156 251 100 351 q 312 95 212 151 q 521 39 412 39 q 730 95 630 39 q 886 251 830 151 q 941 460 941 351 q 885 670 941 569 q 728 826 829 772 q 521 880 627 880 m 748 750 l 748 571 l 722 571 q 663 679 709 640 q 555 718 617 718 q 431 658 481 718 q 380 471 380 599 q 430 275 380 334 q 552 217 479 217 q 729 311 652 217 l 729 263 q 513 177 647 177 q 307 254 386 177 q 228 453 228 331 q 313 667 228 583 q 526 751 397 751 q 660 724 585 751 q 691 715 682 715 q 712 724 703 715 q 722 750 720 732 l 748 750 z "},"":{"ha":1389,"x_min":-2,"x_max":1396,"o":"m -2 920 l 525 920 l 525 766 l 501 766 q 468 855 498 826 q 370 884 437 884 l 344 884 l 344 486 q 356 414 344 429 q 414 395 371 395 l 414 372 l 106 372 l 106 395 q 165 412 154 399 q 176 488 176 425 l 176 884 l 152 884 q 56 857 87 884 q 20 766 25 829 l -2 766 l -2 920 m 600 920 l 849 920 l 1006 584 l 1161 920 l 1396 920 l 1396 894 q 1351 887 1364 894 q 1332 863 1339 880 q 1328 803 1328 851 l 1328 483 q 1338 418 1328 431 q 1396 395 1354 398 l 1396 372 l 1084 372 l 1084 395 q 1147 412 1133 397 q 1161 483 1161 427 l 1161 826 l 944 372 l 928 372 l 712 826 l 712 486 q 716 429 712 439 q 737 405 722 414 q 790 395 753 396 l 790 372 l 600 372 l 600 395 q 650 404 638 397 q 668 425 663 410 q 674 487 674 439 l 674 804 q 661 878 674 862 q 613 894 647 894 l 600 894 l 600 920 z "},"":{"ha":463,"x_min":159,"x_max":414,"o":"m 159 650 q 229 868 180 725 l 414 866 l 210 650 q 180 649 185 649 q 159 650 171 649 z "},"":{"ha":463,"x_min":47,"x_max":444,"o":"m 276 759 q 300 822 276 798 q 359 847 324 847 q 419 822 395 847 q 444 763 444 798 q 419 703 444 728 q 359 679 395 679 q 301 703 326 679 q 276 759 276 728 m 134 847 q 190 822 166 847 q 214 762 214 797 q 190 703 214 728 q 130 678 165 678 q 71 703 95 678 q 47 762 47 727 q 71 822 47 797 q 128 847 96 847 l 134 847 z "},"":{"ha":926,"x_min":92,"x_max":834,"o":"m 92 654 l 500 654 l 642 1013 l 733 1013 l 592 654 l 834 654 l 834 548 l 551 548 l 468 335 l 834 335 l 834 229 l 426 229 l 286 -129 l 193 -129 l 334 229 l 92 229 l 92 335 l 376 335 l 458 548 l 92 548 l 92 654 z "},"":{"ha":1273,"x_min":-62,"x_max":1168,"o":"m -62 36 q -26 52 -52 42 q 42 91 29 74 q 180 358 58 114 l 332 660 l 393 785 q 403 814 403 809 l 401 821 q 385 827 393 827 l 317 825 q 278 831 302 825 q 277 848 277 842 q 279 876 277 857 q 326 878 301 878 q 430 875 361 878 q 503 872 483 872 q 528 873 516 872 l 585 874 l 840 877 l 1004 880 q 1107 879 1078 880 l 1120 757 q 1132 663 1131 682 l 1076 663 q 1028 765 1039 748 q 999 797 1013 789 q 941 808 985 805 q 765 816 857 816 q 690 808 721 816 q 688 710 688 789 q 691 481 688 555 l 861 484 q 949 496 923 486 q 967 511 960 500 q 987 576 977 525 q 997 623 994 612 l 1025 624 q 1046 623 1034 624 l 1045 355 l 1044 302 l 1045 297 q 1033 298 1037 298 q 1021 298 1029 298 q 1009 297 1015 297 q 992 298 1003 297 q 959 404 980 385 q 810 422 939 422 q 691 421 739 422 l 694 73 q 735 62 722 63 q 821 58 768 58 q 986 90 921 58 q 1098 191 1052 123 q 1127 228 1116 218 q 1162 222 1155 227 q 1168 212 1168 218 q 1162 176 1168 203 l 1127 -1 l 772 5 q 623 6 691 6 q 363 -1 556 6 q 361 22 361 12 q 362 46 361 31 l 484 62 q 501 71 498 64 q 507 172 507 82 q 503 418 507 286 l 486 418 q 272 411 315 418 q 182 215 245 357 l 142 125 q 133 102 136 107 q 126 86 126 90 q 137 69 126 77 q 210 48 147 61 q 243 39 220 46 l 240 -3 q 76 6 149 6 q -11 2 27 6 q -62 -3 -49 -3 l -62 36 m 302 474 q 348 471 337 471 q 504 475 482 471 q 505 555 505 514 q 500 823 505 692 l 482 823 l 356 583 q 302 474 311 496 z "},"":{"ha":1099,"x_min":61,"x_max":1034,"o":"m 831 827 q 874 877 862 862 q 897 903 886 892 q 937 880 910 897 q 951 870 941 876 q 928 840 942 856 l 885 789 q 993 646 952 730 q 1034 463 1034 562 q 1008 292 1034 359 q 934 164 982 224 q 822 65 886 104 q 678 9 757 26 q 550 -8 600 -8 q 434 1 493 -8 q 378 11 396 6 q 314 33 338 22 q 264 62 298 39 q 235 28 252 48 q 201 -10 218 7 q 144 25 190 -3 l 210 102 q 130 193 151 159 q 100 248 109 226 q 68 358 83 298 q 61 460 61 385 q 62 479 61 470 l 62 505 q 100 643 62 548 q 175 754 123 701 q 287 841 227 808 q 409 888 347 873 q 552 903 471 903 q 705 883 632 903 q 831 827 777 863 m 318 231 q 378 298 342 255 l 682 654 q 744 729 736 719 q 656 806 712 777 q 531 836 601 836 q 432 815 473 836 q 351 748 378 787 q 296 632 310 686 q 277 431 277 557 q 282 379 277 406 q 286 353 285 367 q 318 231 296 283 m 538 54 l 549 53 q 627 66 580 53 q 697 102 661 76 q 753 160 734 129 q 800 275 785 210 q 816 432 816 340 q 802 587 816 531 q 794 622 796 610 q 776 661 789 647 l 518 359 q 349 161 364 180 q 436 79 393 103 q 538 54 479 55 z "},"":{"ha":984,"x_min":33,"x_max":951,"o":"m 440 537 q 541 684 486 644 q 691 725 596 725 q 876 646 800 725 q 951 442 951 568 q 878 238 951 318 q 714 158 804 158 q 605 195 654 158 q 486 352 555 233 q 391 231 442 268 q 266 194 339 194 q 101 264 168 194 q 33 444 33 334 q 96 624 33 555 q 241 692 158 692 q 348 660 304 692 q 440 537 391 628 m 505 400 q 603 260 553 298 q 717 221 652 221 q 856 281 800 221 q 912 443 912 341 q 853 607 912 543 q 721 672 794 672 q 639 648 674 672 q 576 572 604 625 q 505 400 559 542 m 420 485 q 345 595 387 559 q 239 631 302 631 q 119 580 168 631 q 71 445 71 530 q 118 301 71 355 q 227 247 166 247 q 340 304 291 247 q 420 485 372 342 z "},"":{"ha":926,"x_min":91,"x_max":835,"o":"m 91 621 l 408 621 l 408 940 l 515 940 l 515 621 l 835 621 l 835 515 l 515 515 l 515 197 l 408 197 l 408 515 l 91 515 l 91 621 m 91 73 l 835 73 l 835 -33 l 91 -33 l 91 73 z "},"":{"ha":926,"x_min":92,"x_max":835,"o":"m 834 231 l 92 543 l 92 639 l 834 950 l 834 835 l 237 591 l 834 347 l 834 231 m 92 62 l 835 62 l 835 -44 l 92 -44 l 92 62 z "},"":{"ha":926,"x_min":92,"x_max":835,"o":"m 92 950 l 834 639 l 834 543 l 92 231 l 92 347 l 690 591 l 92 835 l 92 950 m 92 62 l 835 62 l 835 -44 l 92 -44 l 92 62 z "},"":{"ha":911,"x_min":-26,"x_max":935,"o":"m 562 263 q 827 262 734 263 l 827 198 l 671 195 l 562 195 l 564 78 q 572 71 567 73 q 615 64 581 68 q 688 52 680 57 q 693 39 693 49 q 692 22 693 33 q 691 3 692 16 l 613 5 l 541 11 l 490 14 l 415 12 l 359 12 q 328 9 349 12 q 277 3 294 3 l 231 4 q 230 26 230 18 q 231 48 230 33 l 355 74 q 371 81 363 77 q 372 134 372 115 q 371 197 372 153 l 96 198 l 96 262 q 136 260 132 260 l 370 263 l 369 305 l 369 322 q 357 368 369 346 q 96 366 181 368 l 96 430 l 138 432 l 180 432 l 307 441 l 300 450 l 168 652 l 105 752 q 63 808 102 758 q 39 823 51 819 q -22 837 33 825 q -26 848 -26 843 q -25 858 -26 852 q -24 878 -24 865 q 61 883 -5 883 l 68 882 q 92 879 85 879 l 98 880 q 154 875 109 878 q 288 869 238 869 q 394 876 342 869 q 405 878 401 878 l 410 877 q 414 863 414 868 l 413 828 q 376 819 397 822 l 345 813 q 300 806 328 810 l 296 803 l 294 794 q 389 644 317 746 q 427 583 408 612 q 466 520 433 576 q 473 508 470 514 q 486 490 479 498 q 500 467 497 473 q 524 435 513 446 l 602 543 q 687 667 630 580 l 745 769 q 758 798 758 789 q 756 810 758 802 q 739 818 746 817 q 711 821 736 819 q 684 825 696 823 q 663 829 671 827 q 659 880 661 838 l 798 872 q 814 869 804 871 l 847 869 l 859 870 q 915 876 880 873 q 935 878 925 876 l 934 827 l 925 824 q 847 799 868 814 q 765 688 817 776 q 703 593 757 677 q 591 434 696 584 l 731 432 l 803 433 q 827 430 814 433 l 827 366 q 564 370 727 366 l 564 361 l 564 306 l 564 288 q 562 263 562 275 z "},"":{"ha":637,"x_min":35,"x_max":629,"o":"m 75 557 l 220 557 l 220 206 q 231 93 220 115 q 280 60 246 60 q 337 79 310 60 q 389 135 364 98 l 389 557 l 534 557 l 534 168 q 545 75 534 93 q 565 60 553 60 q 584 73 575 60 q 605 138 599 93 l 629 138 q 588 23 626 62 q 496 -16 551 -16 q 429 7 456 -16 q 391 85 401 31 q 301 7 343 31 q 212 -16 258 -16 q 169 -8 186 -16 q 124 25 152 -1 l 124 7 q 142 -109 124 -36 q 155 -189 155 -165 q 137 -240 155 -220 q 92 -259 119 -259 q 51 -242 67 -259 q 35 -194 35 -224 q 51 -105 35 -166 q 69 -17 66 -43 q 75 89 75 30 l 75 132 l 75 557 z "},"":{"ha":694,"x_min":58,"x_max":663,"o":"m 256 780 l 227 780 q 324 926 262 879 q 463 972 385 972 q 614 903 566 972 q 663 706 663 834 q 591 285 663 462 q 429 37 519 109 q 272 -16 363 -16 q 157 11 206 -16 q 83 91 109 38 q 58 199 58 143 q 99 370 58 287 q 202 513 141 453 q 328 603 263 573 q 456 633 393 633 q 616 532 567 633 q 621 618 621 587 q 543 798 621 734 q 409 837 494 837 q 320 823 354 837 q 256 780 286 810 m 605 469 q 544 569 582 538 q 460 599 507 599 q 368 557 412 599 q 270 380 309 503 q 231 144 231 256 q 252 54 231 78 q 312 30 272 30 q 448 109 379 30 q 605 469 560 241 z "},"":{"ha":990,"x_min":29,"x_max":963,"o":"m 920 -348 l 29 -348 l 29 -323 l 479 279 l 29 876 l 29 901 l 896 901 l 914 673 l 887 673 q 834 806 876 766 q 718 846 793 846 l 216 846 l 597 340 l 171 -228 l 726 -228 q 829 -210 773 -228 q 893 -164 868 -197 q 936 -61 919 -132 l 963 -66 l 920 -348 z "},"":{"ha":1143,"x_min":31,"x_max":1112,"o":"m 841 848 l 302 848 l 302 -217 q 327 -298 302 -273 q 412 -322 352 -322 l 436 -322 l 436 -348 l 31 -348 l 31 -322 l 55 -322 q 140 -298 115 -322 q 165 -217 165 -274 l 165 771 q 140 852 165 827 q 55 876 115 876 l 31 876 l 31 901 l 1112 901 l 1112 876 l 1088 876 q 1004 852 1029 876 q 979 771 979 827 l 979 -217 q 1004 -298 979 -273 q 1088 -322 1029 -322 l 1112 -322 l 1112 -348 l 707 -348 l 707 -322 l 731 -322 q 816 -298 791 -322 q 841 -217 841 -274 l 841 848 z "},"":{"ha":752,"x_min":31,"x_max":700,"o":"m 700 634 l 700 494 l 554 494 q 530 206 530 287 q 548 118 530 142 q 589 99 562 99 q 635 119 618 99 q 669 214 662 151 l 694 214 q 642 25 689 85 q 551 -19 609 -19 q 459 31 496 -19 q 421 205 421 80 q 426 321 421 256 q 445 494 427 338 l 311 494 q 279 162 293 240 q 222 10 261 55 q 164 -19 197 -19 q 113 1 134 -19 q 92 50 92 22 q 129 151 92 86 q 175 261 165 216 q 199 494 196 357 q 106 477 135 494 q 56 415 77 460 l 31 415 q 97 558 58 506 q 171 623 136 610 q 271 634 198 634 l 700 634 z "},"":{"ha":376,"x_min":-2,"x_max":378,"o":"m 293 1263 q 350 1243 322 1263 q 378 1191 378 1222 q 360 1141 378 1161 q 315 1120 343 1120 q 264 1145 292 1120 q 237 1158 248 1158 q 210 1115 210 1158 q 216 1017 210 1087 q 241 567 241 738 q 233 247 241 519 q 180 -88 224 -26 q 78 -149 136 -149 q 21 -127 45 -149 q -2 -67 -2 -105 q 15 -19 -2 -38 q 59 0 31 0 q 106 -22 86 0 q 139 -43 125 -43 q 165 -2 165 -43 q 159 79 165 26 q 134 607 134 295 q 171 1149 134 1035 q 293 1263 208 1263 z "},"":{"ha":420,"x_min":32,"x_max":421,"o":"m 395 635 l 405 633 q 416 625 410 629 q 421 615 420 623 q 392 563 410 578 q 344 548 374 548 q 264 597 292 548 q 208 559 241 572 q 134 546 176 546 q 58 565 81 546 q 35 613 35 584 q 75 679 35 652 q 248 753 115 707 q 250 789 250 769 q 237 850 250 834 q 210 863 229 863 q 163 848 183 863 q 146 818 151 839 q 136 783 141 789 q 106 766 130 776 q 47 747 60 749 l 38 751 q 32 766 32 758 q 55 822 32 796 q 149 884 92 863 q 252 897 187 897 q 316 882 286 897 q 350 847 340 870 q 359 760 359 824 l 359 695 q 359 670 359 682 q 359 649 359 659 q 359 642 359 646 l 359 637 q 363 615 359 623 l 368 611 q 379 622 372 611 q 395 635 386 633 m 248 715 q 173 671 190 689 q 156 629 156 652 q 165 604 156 613 q 186 594 174 594 q 222 605 204 594 q 245 631 240 616 q 250 685 250 641 q 248 715 250 704 z "},"":{"ha":463,"x_min":24,"x_max":439,"o":"m 439 729 q 385 593 439 646 q 235 541 330 541 q 73 601 140 541 q 24 725 24 644 q 81 849 24 798 q 234 900 138 900 q 384 848 328 900 q 439 729 439 797 m 146 708 q 157 633 152 650 q 185 591 166 604 q 236 577 204 577 q 299 617 281 577 q 317 736 317 656 q 290 839 317 805 q 230 864 270 864 q 180 847 199 864 q 153 797 161 830 q 146 708 148 776 z "},"":{"ha":1099,"x_min":39,"x_max":1061,"o":"m 435 243 l 458 0 l 39 0 l 39 256 l 63 256 q 72 208 65 221 q 104 175 82 188 q 150 165 121 165 l 393 165 l 389 212 q 213 282 279 237 q 110 402 147 327 q 73 559 73 478 q 173 805 73 700 q 550 941 302 941 q 927 805 798 941 q 1027 559 1027 700 q 990 402 1027 478 q 887 282 953 327 q 711 212 821 237 l 707 165 l 947 165 q 995 174 979 165 q 1028 207 1017 187 q 1037 256 1035 221 l 1061 256 l 1061 0 l 642 0 l 665 243 q 749 319 722 267 q 789 545 789 398 q 760 742 789 673 q 673 849 730 811 q 550 888 616 888 q 427 849 484 888 q 340 741 370 811 q 311 551 311 671 q 351 320 311 399 q 435 243 378 267 z "},"":{"ha":969,"x_min":57,"x_max":922,"o":"m 507 515 q 532 533 520 525 q 676 579 608 579 q 775 561 728 579 q 856 509 823 543 q 905 433 888 475 q 922 354 922 391 q 920 335 922 347 q 911 330 916 330 q 891 332 904 330 q 849 335 878 334 l 722 338 q 541 334 574 338 q 541 302 541 313 q 592 139 541 194 q 723 85 644 85 q 882 136 805 85 q 921 111 911 124 q 852 45 896 75 q 757 -1 809 14 q 669 -12 723 -12 q 542 14 604 -12 q 440 92 480 40 l 421 116 q 401 83 410 92 l 389 69 q 338 28 371 50 q 274 -3 304 6 q 195 -12 243 -12 q 117 10 159 -12 q 68 111 68 49 q 83 158 68 134 q 136 209 98 183 q 258 273 165 229 q 393 345 304 294 q 394 394 394 382 q 370 500 394 470 q 308 530 346 530 q 259 517 282 530 q 224 486 235 505 q 211 439 218 475 q 201 399 203 402 q 180 384 199 395 q 117 352 149 366 q 79 338 85 338 q 59 349 70 338 l 57 361 q 73 417 57 382 q 136 496 90 452 q 232 558 183 541 q 341 576 281 576 q 429 561 387 576 q 507 515 471 546 m 543 382 q 578 381 571 381 q 669 382 647 381 l 775 387 l 775 397 q 737 492 775 451 q 659 534 699 534 q 579 502 616 534 q 542 399 542 470 q 543 382 542 394 m 395 290 q 297 235 366 276 q 235 184 252 208 q 224 145 224 169 q 244 87 224 107 q 293 66 263 66 q 341 80 319 66 q 375 115 363 94 q 391 173 387 137 q 396 258 396 228 q 395 290 396 268 z "},"":{"ha":724,"x_min":50,"x_max":675,"o":"m 176 530 q 238 564 214 555 q 326 581 263 572 l 338 581 q 374 583 368 583 q 549 534 465 583 l 630 625 l 665 595 q 616 537 651 576 q 587 503 603 523 q 638 437 613 474 q 668 358 662 386 q 675 285 675 330 q 635 130 675 200 q 516 19 595 59 q 352 -12 456 -12 q 288 -5 322 -12 q 233 12 268 -2 q 181 39 229 14 l 99 -53 l 65 -24 l 143 66 q 127 83 136 74 q 50 285 50 160 q 93 446 50 372 q 176 530 116 486 m 229 164 l 483 458 q 432 518 458 502 q 363 535 405 535 q 312 527 335 535 q 267 498 296 521 q 229 428 240 466 q 217 302 217 389 q 229 164 217 211 m 499 402 l 462 359 l 243 110 q 290 55 263 70 q 370 35 326 35 q 439 58 408 35 q 490 133 471 80 q 509 281 509 186 q 499 402 509 341 z "},"":{"ha":578,"x_min":60,"x_max":513,"o":"m 289 486 q 317 557 289 529 q 386 585 345 585 q 456 556 427 585 q 486 487 486 528 q 457 418 486 446 q 384 391 428 391 q 316 418 342 391 q 289 486 289 446 m 360 306 q 403 307 382 307 l 422 307 l 428 305 q 434 236 431 289 q 448 110 439 160 q 451 79 451 96 q 440 59 451 64 q 395 51 421 51 l 311 52 q 221 42 262 52 q 157 4 180 33 q 134 -71 134 -24 q 176 -161 134 -119 q 267 -202 218 -202 q 298 -199 285 -202 q 346 -184 305 -198 q 393 -168 386 -170 q 431 -165 410 -165 q 492 -184 472 -165 q 513 -239 513 -203 q 484 -307 513 -282 q 391 -332 456 -332 q 177 -258 273 -332 q 60 -10 60 -168 q 78 92 60 46 q 125 165 96 137 q 193 208 155 193 q 283 231 219 218 q 327 240 323 238 q 347 255 341 247 q 357 294 353 266 q 360 306 358 298 z "},"":{"ha":361,"x_min":81,"x_max":277,"o":"m 81 484 q 102 545 81 523 q 178 583 137 583 q 248 552 218 583 q 277 479 277 522 q 246 414 277 443 q 177 385 216 385 q 109 412 137 385 q 81 484 81 440 m 154 304 q 207 306 180 306 l 255 -34 q 271 -228 271 -147 q 248 -307 271 -283 q 172 -331 224 -331 q 110 -304 136 -331 q 85 -227 85 -277 q 98 -79 85 -181 q 154 304 133 197 z "},"":{"ha":926,"x_min":92,"x_max":835,"o":"m 92 671 l 835 671 l 835 235 l 728 235 l 728 565 l 92 565 l 92 671 z "},"":{"ha":767,"x_min":59,"x_max":764,"o":"m 714 1267 l 764 1267 l 553 -53 l 216 640 l 82 578 l 59 621 l 263 724 l 538 165 l 714 1267 z "},"":{"ha":984,"x_min":1,"x_max":983,"o":"m 484 492 l 363 494 l 381 556 l 503 557 l 558 688 q 642 808 598 763 q 734 875 686 854 q 842 896 782 896 q 946 864 909 896 q 983 789 983 832 q 964 739 983 758 q 914 719 944 719 q 857 748 881 719 q 832 806 842 766 q 820 840 825 834 q 801 848 812 848 q 758 822 780 848 q 673 623 713 767 q 652 557 660 579 l 772 555 l 754 494 l 634 493 l 496 40 q 422 -149 459 -82 q 345 -245 398 -191 q 243 -310 289 -291 q 146 -328 198 -328 q 35 -298 81 -328 q 1 -235 1 -269 q 21 -186 1 -207 q 74 -165 42 -165 q 118 -179 98 -165 q 149 -222 138 -194 q 176 -262 161 -250 q 202 -271 186 -271 q 240 -251 223 -271 q 309 -88 270 -216 l 484 492 z "},"":{"ha":926,"x_min":90,"x_max":836,"o":"m 793 730 l 836 730 q 780 558 834 619 q 646 497 725 497 q 566 509 608 497 q 390 578 524 522 q 250 618 294 618 q 175 591 205 618 q 134 498 146 564 l 90 498 q 148 674 96 618 q 275 730 199 730 q 349 721 313 730 q 534 651 417 702 q 632 614 600 623 q 676 608 652 608 q 754 640 722 608 q 793 730 786 671 m 793 385 l 836 385 q 780 213 834 274 q 646 152 725 152 q 566 164 608 152 q 390 233 524 176 q 250 273 294 273 q 175 245 205 273 q 134 153 145 218 l 90 153 q 148 329 96 273 q 274 385 199 385 q 349 376 313 385 q 534 306 416 357 q 632 269 600 277 q 676 263 652 263 q 754 294 722 263 q 793 385 786 326 z "},"":{"ha":854,"x_min":20,"x_max":833,"o":"m 833 0 l 20 0 l 446 941 l 833 0 m 673 56 l 403 711 l 104 56 l 673 56 z "},"":{"ha":637,"x_min":3,"x_max":598,"o":"m 3 283 l 125 410 q 261 551 218 510 q 336 549 309 550 q 250 397 316 505 l 184 285 q 283 117 220 231 l 329 34 q 336 18 332 28 l 322 17 l 300 18 l 266 17 q 3 283 109 170 m 288 283 q 447 458 296 294 q 528 551 494 511 l 542 551 q 595 549 559 551 q 583 522 589 533 l 476 301 q 471 284 473 291 l 529 171 q 547 134 541 149 q 573 78 563 98 q 598 18 587 50 q 562 18 568 18 q 531 18 550 18 l 432 129 l 288 283 z "},"":{"ha":637,"x_min":24,"x_max":617,"o":"m 437 282 q 326 473 407 327 q 285 551 291 536 l 294 551 q 359 550 324 551 q 486 421 362 546 q 617 282 574 333 l 455 113 q 359 17 439 96 l 285 19 q 317 80 309 66 l 390 201 l 437 282 m 24 551 q 56 551 50 551 q 91 550 71 551 l 172 459 l 333 284 q 178 115 311 258 q 91 18 136 71 l 25 20 l 151 283 q 24 551 47 478 z "},"":{"ha":1389,"x_min":132,"x_max":1257,"o":"m 1058 89 q 1087 159 1058 130 q 1157 188 1116 188 q 1227 159 1198 188 q 1257 90 1257 130 q 1227 19 1257 48 q 1158 -10 1198 -10 q 1087 19 1116 -10 q 1058 89 1058 47 m 132 89 q 161 158 132 129 q 231 186 190 186 q 301 158 273 186 q 330 88 330 129 q 301 18 330 47 q 231 -11 273 -11 q 160 18 189 -11 q 132 89 132 47 m 793 90 q 765 18 793 47 q 694 -11 736 -11 q 624 18 653 -11 q 595 88 595 47 q 624 157 595 128 q 694 186 653 186 q 764 158 735 186 q 793 90 793 130 z "},"":{"ha":347,"x_min":0,"x_max":0,"o":""},"":{"ha":911,"x_min":-18,"x_max":939,"o":"m -18 5 l -16 51 q 29 61 -3 55 q 93 79 81 71 q 120 119 104 87 l 257 477 l 418 899 q 460 899 440 899 l 491 899 l 497 886 l 615 607 q 687 434 655 518 q 742 298 719 351 q 779 202 755 266 q 817 115 791 168 q 837 82 830 87 q 877 68 849 72 q 936 53 904 65 q 939 20 939 31 q 939 5 939 15 q 828 9 888 5 q 720 14 768 14 q 642 13 666 14 l 527 7 l 494 5 q 496 51 494 29 l 571 67 q 610 81 605 76 q 617 96 617 87 q 614 115 617 105 l 587 181 l 533 314 l 274 315 q 215 155 260 282 q 202 106 202 119 q 212 81 202 89 q 271 63 227 68 q 319 56 277 62 q 320 22 320 31 q 319 6 320 14 q 118 18 277 6 l 90 13 q -5 5 40 5 l -18 5 m 301 386 q 488 384 460 384 l 505 385 q 452 525 485 445 q 399 648 420 606 l 301 386 m 307 1164 l 492 1164 q 506 1123 498 1145 q 524 1067 515 1091 q 562 946 555 975 l 508 948 l 307 1164 z "},"":{"ha":911,"x_min":-18,"x_max":939,"o":"m -18 5 l -16 51 q 29 61 -3 55 q 93 79 81 71 q 120 119 104 87 l 257 477 l 418 899 q 460 899 440 899 l 491 899 l 497 886 l 615 607 q 687 434 655 518 q 742 298 719 351 q 779 202 755 266 q 817 115 791 168 q 837 82 830 87 q 877 68 849 72 q 936 53 904 65 q 939 20 939 31 q 939 5 939 15 q 828 9 888 5 q 720 14 768 14 q 642 13 666 14 l 527 7 l 494 5 q 496 51 494 29 l 571 67 q 610 81 605 76 q 617 96 617 87 q 614 115 617 105 l 587 181 l 533 314 l 274 315 q 215 155 260 282 q 202 106 202 119 q 212 81 202 89 q 271 63 227 68 q 319 56 277 62 q 320 22 320 31 q 319 6 320 14 q 118 18 277 6 l 90 13 q -5 5 40 5 l -18 5 m 301 386 q 488 384 460 384 l 505 385 q 452 525 485 445 q 399 648 420 606 l 301 386 m 650 1150 l 670 1150 q 689 1149 677 1150 q 647 1017 688 1063 q 547 971 606 971 q 493 978 520 971 q 424 1004 475 983 q 366 1026 372 1025 q 338 1029 353 1029 q 301 1018 315 1029 q 279 972 288 1006 l 239 972 q 240 997 240 977 q 283 1105 241 1061 q 378 1149 326 1149 q 429 1143 405 1149 q 501 1117 454 1137 q 561 1094 548 1097 q 595 1090 579 1090 q 628 1101 615 1090 q 650 1150 641 1113 z "},"":{"ha":1099,"x_min":61,"x_max":1034,"o":"m 61 454 q 94 623 61 538 q 160 735 117 684 q 267 826 203 786 q 399 883 332 865 q 549 900 466 900 q 793 847 690 900 q 957 704 897 794 q 1034 458 1034 587 q 904 129 1034 266 q 541 -8 773 -8 q 433 -1 483 -8 q 366 14 395 5 q 309 34 315 31 q 190 120 235 76 q 114 220 145 164 q 75 332 97 251 q 61 454 61 385 m 523 833 q 418 805 464 833 q 350 745 373 778 q 295 622 311 688 q 279 459 279 555 q 283 376 279 401 q 288 348 285 368 q 302 275 294 298 q 343 168 331 189 q 404 100 363 134 q 463 67 424 82 q 540 53 501 53 q 676 87 613 53 q 777 203 739 121 q 814 417 814 286 q 807 564 814 471 l 804 577 q 797 605 802 583 q 701 774 772 716 q 523 833 630 833 m 743 1150 l 764 1150 q 783 1149 770 1150 q 741 1017 782 1063 q 641 971 699 971 q 587 978 614 971 q 517 1004 568 983 q 459 1026 466 1025 q 432 1029 446 1029 q 395 1018 408 1029 q 373 972 382 1006 l 333 972 q 334 997 334 977 q 377 1105 335 1061 q 472 1149 419 1149 q 523 1143 498 1149 q 594 1117 547 1137 q 654 1094 642 1097 q 688 1090 673 1090 q 722 1101 709 1090 q 743 1150 734 1113 z "},"":{"ha":1375,"x_min":71,"x_max":1310,"o":"m 1265 884 q 1271 864 1271 876 q 1272 831 1271 854 q 1274 738 1274 785 q 1274 690 1274 718 q 1224 688 1246 688 q 1206 732 1219 700 q 1174 795 1188 779 q 1138 815 1159 811 q 966 824 1093 824 q 869 815 881 824 q 857 777 857 807 q 859 555 857 593 q 861 532 861 537 l 860 505 l 863 492 q 946 491 901 491 q 1088 510 1071 491 q 1117 633 1099 521 l 1173 633 l 1175 313 q 1169 278 1175 294 q 1118 279 1131 278 l 1103 377 q 1081 414 1096 401 q 1053 423 1074 420 q 942 431 994 431 q 913 430 927 431 q 881 428 885 428 q 863 425 870 428 q 862 303 862 419 l 862 235 l 861 132 q 866 87 861 111 q 884 76 871 79 q 1000 72 903 72 q 1157 106 1103 72 q 1260 236 1211 140 l 1278 237 q 1310 234 1287 237 l 1310 220 q 1303 134 1310 203 q 1284 1 1297 64 l 1224 0 q 1200 1 1213 0 l 926 14 q 763 18 837 18 q 574 7 688 18 q 472 -1 503 -1 q 196 97 296 -1 q 71 429 71 218 q 204 781 71 663 q 504 898 337 898 q 605 890 524 898 q 704 883 686 883 l 762 884 l 980 882 l 1050 881 q 1175 886 1094 881 q 1230 888 1213 888 q 1265 884 1244 888 m 506 61 q 597 82 553 61 q 645 126 628 96 q 669 230 663 157 q 673 465 673 274 q 661 735 673 656 q 627 805 654 783 q 512 834 589 834 q 337 720 396 834 q 278 426 278 605 q 336 155 278 250 q 506 61 394 61 z "},"":{"ha":1013,"x_min":50,"x_max":972,"o":"m 968 339 l 958 339 l 911 340 l 882 339 l 830 341 l 757 341 l 659 342 q 621 341 642 342 l 621 328 q 635 190 621 239 q 667 136 645 155 l 670 134 q 715 106 695 113 q 764 98 735 98 q 935 155 851 98 q 972 121 946 146 q 921 66 958 100 q 829 13 884 33 q 718 -8 774 -8 q 617 5 655 -8 q 536 53 579 18 q 443 5 492 20 q 347 -9 393 -9 q 133 73 216 -9 q 50 277 50 156 q 138 494 50 406 q 349 583 226 583 q 447 566 404 583 q 537 509 490 549 q 624 566 582 549 q 726 582 667 582 q 901 512 833 582 q 968 339 968 443 m 348 42 q 423 66 394 42 q 464 136 452 90 q 475 283 475 182 q 431 495 475 439 q 348 535 400 535 q 302 525 324 535 q 262 493 281 514 q 239 451 252 483 q 227 399 234 437 q 216 273 216 336 q 235 136 216 204 q 275 66 248 84 q 348 42 310 42 m 622 387 q 640 386 634 386 l 654 387 l 782 389 l 821 390 q 789 495 814 470 q 717 532 754 532 q 651 499 677 532 q 622 387 624 467 z "},"":{"ha":694,"x_min":-8,"x_max":703,"o":"m -8 410 l 703 410 l 703 285 l -8 285 l -8 410 z "},"":{"ha":1389,"x_min":-8,"x_max":1397,"o":"m -8 410 l 1397 410 l 1397 285 l -8 285 l -8 410 z "},"":{"ha":680,"x_min":65,"x_max":641,"o":"m 275 890 q 288 879 283 887 q 303 840 303 852 l 302 834 q 271 813 295 829 q 212 763 229 786 q 189 702 189 732 q 242 636 189 659 q 292 604 277 621 q 311 552 311 581 q 281 483 311 513 q 211 454 252 454 q 110 504 155 454 q 65 631 65 554 q 129 802 65 727 q 275 890 193 878 m 596 889 q 621 873 610 887 q 637 840 637 853 l 634 831 q 541 757 562 785 q 519 695 519 729 q 528 665 519 675 q 581 629 539 650 q 641 545 641 598 q 610 481 641 509 q 536 452 580 452 q 438 501 481 452 q 394 621 394 549 q 419 735 394 679 q 492 830 444 791 q 596 889 541 869 z "},"":{"ha":680,"x_min":46,"x_max":626,"o":"m 53 505 q 79 525 60 515 q 142 578 117 545 q 166 641 166 611 q 130 697 166 677 q 64 741 77 724 q 46 793 46 764 q 75 860 46 832 q 146 888 104 888 q 246 838 201 888 q 291 713 291 788 q 253 576 291 638 q 151 477 215 513 q 87 453 110 453 q 68 463 76 453 q 53 505 58 475 m 382 507 q 404 522 391 515 q 471 576 444 544 q 498 640 498 608 q 487 677 498 663 q 435 712 475 692 q 407 728 411 724 q 385 757 393 741 q 377 793 377 773 q 406 858 377 829 q 479 886 435 886 q 580 836 534 886 q 626 710 626 785 q 592 588 626 647 q 496 486 559 530 q 414 454 449 454 q 398 465 406 454 q 382 502 382 487 l 382 507 z "},"":{"ha":347,"x_min":64,"x_max":310,"o":"m 274 890 q 287 879 282 887 q 302 840 302 852 l 300 834 q 269 813 294 829 q 211 763 227 786 q 188 702 188 732 q 241 636 188 659 q 290 604 276 621 q 310 552 310 581 q 280 483 310 513 q 210 454 250 454 q 109 504 154 454 q 64 631 64 554 q 127 802 64 727 q 274 890 191 878 z "},"":{"ha":347,"x_min":47,"x_max":292,"o":"m 54 505 q 81 525 62 515 q 143 578 119 545 q 168 641 168 611 q 131 697 168 677 q 65 741 79 724 q 47 793 47 764 q 77 860 47 832 q 148 888 106 888 q 247 838 202 888 q 292 713 292 788 q 254 576 292 638 q 153 477 216 513 q 88 453 111 453 q 69 463 77 453 q 54 505 59 475 z "},"":{"ha":926,"x_min":92,"x_max":835,"o":"m 528 725 q 508 678 528 698 q 461 659 488 659 q 414 678 433 659 q 395 725 395 698 q 414 772 395 753 q 461 791 433 791 q 508 772 488 791 q 528 725 528 753 m 92 492 l 835 492 l 835 391 l 92 391 l 92 492 m 529 163 q 509 116 529 136 q 462 96 490 96 q 414 116 434 96 q 395 163 395 136 q 414 211 395 191 q 462 231 434 231 q 509 211 490 231 q 529 163 529 191 z "},"":{"ha":686,"x_min":32,"x_max":656,"o":"m 372 964 l 656 481 l 372 0 l 297 0 l 32 481 l 297 964 l 372 964 m 336 899 l 105 481 l 336 64 l 579 481 l 336 899 z "},"":{"ha":651,"x_min":-10,"x_max":654,"o":"m -10 551 q 29 555 14 555 q 47 554 37 555 q 148 550 109 550 l 183 550 l 279 555 q 289 547 285 551 q 286 509 287 517 q 270 506 275 507 q 247 502 254 504 q 231 499 239 500 q 219 490 220 496 q 227 463 223 473 l 260 396 q 339 221 298 301 l 377 143 q 429 277 381 151 q 492 444 487 425 q 494 462 494 454 q 490 484 494 469 q 466 498 475 495 q 422 505 456 501 l 400 511 l 398 520 q 397 530 397 527 q 399 548 397 536 q 429 549 420 549 l 484 546 l 520 545 q 600 551 543 545 q 653 556 635 555 q 654 530 654 539 q 654 518 654 526 q 627 509 642 512 q 584 497 602 503 q 570 484 574 489 q 524 371 559 458 l 475 240 l 361 -30 l 283 -209 q 223 -298 258 -260 q 193 -319 210 -312 q 130 -330 165 -330 q 93 -326 127 -330 q 45 -296 65 -319 q 31 -262 31 -280 q 62 -193 31 -224 q 104 -175 91 -175 q 176 -207 135 -175 q 206 -222 195 -222 q 224 -210 218 -222 q 300 -47 283 -95 l 175 229 q 67 462 104 395 q 40 502 48 496 q 16 513 33 508 q -4 521 7 515 q -10 551 -7 536 m 391 759 q 415 822 391 798 q 474 847 439 847 q 534 822 509 847 q 558 763 558 798 q 534 703 558 728 q 474 679 509 679 q 415 703 440 679 q 391 759 391 728 m 249 847 q 305 822 281 847 q 329 762 329 797 q 304 703 329 728 q 245 678 280 678 q 185 703 210 678 q 161 762 161 727 q 186 822 161 797 q 243 847 210 847 l 249 847 z "},"":{"ha":911,"x_min":-26,"x_max":935,"o":"m -24 878 q 61 883 -5 883 l 68 882 q 92 879 85 879 l 98 880 q 154 875 109 878 q 288 869 238 869 q 394 876 342 869 q 405 878 401 878 l 410 877 q 414 863 414 868 l 413 828 q 376 819 397 822 l 345 813 q 300 806 328 810 l 296 803 l 294 794 q 389 644 317 746 q 427 583 408 612 q 466 520 433 576 q 473 508 469 514 q 486 490 479 498 q 500 467 497 473 q 524 434 514 446 l 594 533 q 684 663 629 578 l 687 667 l 745 769 q 758 798 758 789 q 756 810 758 802 q 739 818 746 817 q 711 821 736 819 q 684 825 696 823 q 663 829 671 827 q 659 880 661 838 l 798 872 q 814 869 804 871 l 847 869 l 859 870 q 915 876 880 873 q 935 878 925 876 l 934 827 l 925 824 q 847 799 868 814 q 765 688 817 776 l 677 555 q 574 408 597 448 q 564 385 568 399 l 564 363 l 564 304 l 564 288 q 562 252 562 271 l 564 78 q 572 71 567 73 q 615 64 581 68 q 688 52 680 57 q 693 39 693 49 q 692 22 693 33 q 691 3 692 16 l 613 5 l 541 11 l 490 14 l 415 12 l 359 12 q 328 9 349 12 q 277 3 294 3 l 231 4 q 230 26 230 18 q 231 48 230 33 l 355 74 q 371 81 363 77 q 372 119 372 112 q 370 261 372 223 q 369 304 369 298 l 369 320 q 324 418 369 363 q 300 450 305 442 l 168 652 l 105 752 q 63 808 102 758 q 39 823 51 819 q -22 837 33 825 q -26 848 -26 843 q -25 858 -26 852 q -24 878 -24 865 m 500 1055 q 525 1118 500 1093 q 584 1143 549 1143 q 644 1118 619 1143 q 668 1059 668 1093 q 644 999 668 1023 q 584 975 619 975 q 525 999 550 975 q 500 1055 500 1023 m 359 1143 q 415 1118 391 1143 q 439 1058 439 1093 q 414 999 439 1023 q 355 974 390 974 q 295 998 319 974 q 271 1058 271 1023 q 296 1118 271 1093 q 353 1143 320 1143 l 359 1143 z "},"":{"ha":275,"x_min":-204,"x_max":475,"o":"m -204 -18 q 397 906 -56 199 l 406 908 l 467 905 l 475 906 l -128 -18 q -148 -18 -141 -18 l -189 -16 l -204 -18 z "},"":{"ha":651,"x_min":-24,"x_max":623,"o":"m 281 574 l 292 574 q 401 571 383 571 l 419 572 q 496 564 446 572 q 478 488 496 535 q 387 485 425 485 l 301 485 l 281 484 l 275 484 l 275 416 q 296 418 283 418 l 371 415 l 390 416 q 467 408 427 416 q 461 374 467 390 q 449 332 460 371 q 370 330 425 330 l 278 329 q 318 140 283 222 q 416 57 352 57 q 557 241 490 57 q 623 248 576 246 q 615 181 621 214 q 607 126 610 148 q 595 64 604 104 q 584 45 593 54 q 548 20 576 37 q 489 -2 519 3 q 416 -8 459 -8 q 320 3 368 -8 q 240 36 273 15 q 179 87 207 57 q 130 156 151 118 q 89 247 108 193 q 71 328 71 301 l 71 332 l 37 332 l 5 334 l -8 332 l -24 332 q 1 407 -17 372 l 32 412 l 64 412 q 62 436 62 421 l 64 488 l 45 488 l 12 489 l -8 488 l -24 488 q 1 562 -17 527 q 32 567 12 564 q 75 571 53 571 l 75 575 q 193 813 105 724 q 396 903 281 903 q 575 863 499 903 q 608 660 608 736 l 546 660 q 397 832 484 832 q 281 574 304 832 z "},"":{"ha":391,"x_min":16,"x_max":349,"o":"m 277 559 l 289 559 l 345 557 l 349 557 q 301 467 337 523 q 239 363 266 411 q 220 329 225 338 q 197 288 203 303 q 244 211 231 239 q 342 35 263 180 l 349 20 q 331 18 335 18 q 278 20 287 18 q 233 66 254 42 q 127 170 207 90 q 16 290 111 185 l 205 489 q 254 536 228 508 q 277 559 270 549 z "},"":{"ha":391,"x_min":31,"x_max":364,"o":"m 31 17 q 146 217 41 41 l 185 283 q 166 313 180 290 q 136 363 146 344 q 44 526 101 420 q 31 555 36 541 l 102 555 q 128 528 109 547 q 161 494 147 508 q 364 283 254 408 l 167 76 q 146 59 155 67 l 104 15 l 31 17 z "},"":{"ha":795,"x_min":37,"x_max":759,"o":"m 43 505 q 82 525 54 507 q 105 539 96 534 q 121 548 115 544 q 136 587 127 563 q 228 768 180 709 q 356 869 276 827 q 368 874 362 871 q 424 891 386 884 q 497 899 463 899 q 625 874 589 899 q 660 819 660 849 q 636 767 660 792 q 571 741 612 741 q 539 747 555 741 q 497 771 524 753 q 387 819 427 819 q 336 799 361 819 q 301 745 310 779 q 287 689 292 726 q 282 537 282 652 l 283 531 q 328 529 309 529 q 530 543 487 529 q 629 613 573 557 q 649 615 643 615 q 665 614 652 615 q 678 614 669 614 l 678 589 l 677 486 l 678 382 l 677 300 l 678 197 q 678 126 679 146 q 677 98 677 107 q 683 77 677 82 q 730 62 691 69 q 743 60 734 62 q 758 50 751 56 q 759 17 759 26 q 757 4 759 11 q 716 7 740 4 q 606 12 673 12 q 507 8 587 12 l 458 5 l 450 5 q 436 8 445 5 q 435 18 435 14 q 441 42 435 35 q 460 52 447 50 q 524 72 517 66 q 530 100 528 75 q 532 127 530 109 l 531 386 q 529 473 531 456 q 486 470 513 472 q 408 466 441 466 l 317 467 l 281 465 l 281 457 l 283 342 l 281 277 l 283 189 q 281 131 283 166 q 280 98 280 106 q 292 59 280 68 q 353 48 304 50 q 366 47 358 48 q 368 22 368 31 q 368 4 368 16 l 333 3 l 284 7 q 237 9 253 9 q 153 5 225 9 q 67 1 81 1 q 41 2 56 1 q 39 24 39 15 q 44 41 39 36 q 121 67 56 44 q 132 74 125 69 q 139 213 139 103 q 136 298 139 222 l 137 356 q 134 445 138 365 q 132 465 133 452 l 87 463 l 63 460 q 42 465 57 460 q 37 481 37 475 q 43 505 37 490 z "},"":{"ha":795,"x_min":52,"x_max":764,"o":"m 54 47 q 79 54 68 51 q 135 75 127 68 q 137 99 137 83 l 136 127 l 136 142 q 138 169 138 164 l 134 316 l 134 342 l 134 455 l 134 470 l 108 472 l 75 471 l 64 471 q 57 508 57 494 q 61 519 57 511 q 119 560 104 541 q 159 654 146 597 q 193 743 172 710 q 252 815 222 791 q 337 859 281 840 q 416 873 376 873 q 471 871 430 873 q 515 869 490 869 q 578 876 553 869 q 625 899 595 880 l 672 898 l 672 888 l 673 871 q 673 838 673 846 l 673 734 l 673 715 l 677 166 l 677 92 q 680 78 678 87 q 707 56 694 59 l 761 42 q 764 31 764 39 q 764 20 764 27 q 763 5 763 15 l 723 5 l 661 12 q 578 13 604 13 l 526 14 q 481 10 507 14 q 463 8 469 8 q 450 9 457 8 q 448 33 448 27 q 454 50 448 39 q 482 60 469 57 q 525 79 502 66 q 529 97 529 87 l 529 148 q 530 180 529 165 l 530 221 l 529 274 l 530 317 l 528 477 q 501 479 505 479 l 456 479 l 408 481 q 283 477 343 481 l 283 469 l 283 420 l 283 396 l 281 319 l 282 293 l 281 271 l 281 196 l 280 121 q 281 98 281 105 q 281 86 281 94 q 283 73 281 81 q 304 67 294 69 q 359 53 334 61 q 363 20 359 41 q 365 7 363 16 q 215 16 245 16 q 120 10 174 16 q 68 6 82 6 l 54 6 q 52 38 52 26 l 54 47 m 281 545 l 332 544 l 349 544 q 448 546 408 546 l 504 545 l 526 546 q 528 562 528 554 l 527 584 l 527 620 q 521 703 527 657 q 507 763 515 749 q 466 799 494 783 q 408 814 439 814 q 330 785 355 814 q 279 608 279 731 q 280 578 279 595 l 281 545 z "},"":{"ha":694,"x_min":30,"x_max":665,"o":"m 306 56 q 288 176 304 73 q 271 290 271 279 l 293 431 q 304 525 304 505 q 68 468 101 468 q 41 479 47 468 q 30 572 30 497 q 39 628 30 614 q 62 638 46 638 q 105 633 75 638 q 306 593 135 627 q 286 690 305 614 q 267 786 274 732 q 259 869 259 840 q 275 899 259 889 q 326 906 283 903 l 353 905 l 393 905 q 428 896 417 905 q 439 868 439 886 q 403 659 439 807 q 391 593 393 616 l 532 625 q 614 637 593 637 q 650 619 637 637 q 663 546 663 602 q 660 500 663 509 q 643 478 653 484 q 608 469 625 469 q 471 501 585 469 q 389 523 401 520 q 406 438 390 514 q 431 288 431 317 q 395 90 431 265 q 391 57 392 73 l 460 77 q 610 111 581 111 q 643 102 627 111 q 659 78 654 94 q 665 20 665 54 q 652 -39 665 -16 q 614 -56 642 -56 q 471 -31 574 -56 q 391 -14 404 -16 q 417 -135 393 -30 q 441 -290 441 -240 q 425 -313 441 -307 q 364 -323 400 -323 q 274 -315 287 -323 q 260 -283 260 -307 q 265 -216 260 -250 q 288 -99 267 -206 q 304 -13 304 -20 q 189 -37 287 -16 q 62 -59 92 -59 q 39 -46 47 -59 q 31 22 31 -33 q 31 40 31 31 q 33 70 33 55 q 41 102 33 95 q 67 113 50 113 q 125 103 82 113 q 250 71 197 87 q 306 56 286 60 z "},"":{"ha":361,"x_min":85,"x_max":281,"o":"m 85 425 q 114 492 85 464 q 184 521 143 521 q 253 492 224 521 q 281 422 281 463 q 253 353 281 382 q 184 324 224 324 q 114 353 143 324 q 85 425 85 382 z "},"":{"ha":347,"x_min":56,"x_max":300,"o":"m 62 -198 q 89 -177 70 -187 q 151 -124 127 -158 q 176 -61 176 -91 q 139 -5 176 -24 q 73 39 87 22 q 56 92 56 62 q 85 158 56 130 q 156 186 114 186 q 255 136 210 186 q 300 11 300 85 q 262 -126 300 -64 q 161 -225 224 -189 q 96 -250 119 -250 q 77 -240 85 -250 q 62 -198 67 -228 z "},"":{"ha":680,"x_min":61,"x_max":635,"o":"m 102 -171 q 118 -162 102 -171 q 159 -119 135 -154 q 184 -58 184 -85 q 139 2 184 -19 q 78 44 94 24 q 61 92 61 65 q 90 159 61 131 q 161 187 119 187 q 263 138 219 187 q 308 14 308 89 q 293 -68 308 -25 q 253 -144 278 -111 q 206 -195 229 -178 q 141 -234 172 -221 q 100 -246 110 -246 q 79 -233 90 -246 q 68 -197 68 -219 q 102 -171 68 -187 m 635 16 q 601 -115 635 -52 q 496 -220 567 -178 q 429 -246 452 -246 q 413 -241 417 -246 l 394 -203 q 419 -177 394 -193 q 490 -117 470 -145 q 509 -57 509 -88 q 499 -23 509 -37 q 453 9 489 -10 q 405 43 416 28 q 388 93 388 65 q 417 157 388 129 q 492 186 447 186 q 591 136 546 186 q 635 16 635 85 z "},"":{"ha":1432,"x_min":43,"x_max":1387,"o":"m 155 -18 q 755 906 302 199 l 764 908 l 826 905 l 833 906 l 231 -18 q 173 -16 222 -18 q 155 -18 170 -16 m 43 660 q 50 726 43 701 q 74 799 66 783 q 110 850 93 835 q 163 886 136 875 q 220 898 190 898 q 344 836 292 898 q 396 666 396 774 q 381 558 396 605 q 339 479 366 511 q 292 441 318 454 q 234 422 258 422 q 146 438 176 422 q 74 517 104 461 q 43 660 43 574 m 161 679 q 163 614 163 631 q 172 496 164 511 l 194 468 q 216 461 203 461 q 250 476 235 461 q 272 538 265 490 q 279 638 279 587 l 277 684 l 277 732 q 258 838 277 808 q 221 858 244 858 q 188 844 202 858 q 165 785 173 829 q 161 679 163 768 m 594 230 q 601 295 594 271 q 625 369 616 353 q 661 420 644 405 q 714 456 688 445 q 772 467 741 467 q 895 406 843 467 q 947 236 947 345 q 932 128 947 175 q 890 50 917 81 q 843 11 869 24 q 785 -7 809 -7 q 697 8 726 -7 q 624 87 654 31 q 594 230 594 144 m 712 249 q 714 184 714 201 q 724 66 715 81 l 745 38 q 768 31 755 31 q 801 46 785 31 q 823 109 816 60 q 829 208 829 157 l 828 254 l 829 302 q 809 408 829 378 q 772 428 795 428 q 738 414 753 428 q 716 355 724 399 q 712 249 713 338 m 1034 230 q 1041 295 1034 271 q 1065 369 1057 353 q 1101 420 1084 405 q 1154 456 1127 445 q 1211 467 1181 467 q 1335 406 1282 467 q 1387 236 1387 345 q 1372 128 1387 175 q 1329 50 1357 81 q 1283 11 1309 24 q 1224 -7 1249 -7 q 1137 8 1166 -7 q 1064 87 1094 31 q 1034 230 1034 144 m 1152 249 q 1154 184 1154 201 q 1163 66 1154 81 l 1185 38 q 1207 31 1194 31 q 1240 46 1225 31 q 1262 109 1255 60 q 1269 208 1269 157 l 1268 254 l 1268 302 q 1249 408 1268 378 q 1212 428 1235 428 q 1178 414 1193 428 q 1156 355 1164 399 q 1152 249 1153 338 z "},"":{"ha":911,"x_min":-18,"x_max":939,"o":"m -18 5 l -16 51 q 29 61 -3 55 q 93 79 81 71 q 120 119 104 87 l 257 477 l 418 899 q 460 899 440 899 l 491 899 l 497 886 l 615 607 q 687 434 655 518 q 742 298 719 351 q 779 202 755 266 q 817 115 791 168 q 837 82 830 87 q 877 68 849 72 q 936 53 904 65 q 939 20 939 31 q 939 5 939 15 q 828 9 888 5 q 720 14 768 14 q 642 13 666 14 l 527 7 l 494 5 q 496 51 494 29 l 571 67 q 610 81 605 76 q 617 96 617 87 q 614 115 617 105 l 587 181 l 533 314 l 274 315 q 215 155 260 282 q 202 106 202 119 q 212 81 202 89 q 271 63 227 68 q 319 56 277 62 q 320 22 320 31 q 319 6 320 14 q 118 18 277 6 l 90 13 q -5 5 40 5 l -18 5 m 301 386 q 488 384 460 384 l 505 385 q 452 525 485 445 q 399 648 420 606 l 301 386 m 269 939 l 400 1175 q 426 1176 414 1176 l 545 1175 q 616 1044 575 1122 l 673 936 l 620 935 l 472 1065 q 415 1017 452 1051 q 323 937 377 982 l 269 939 z "},"":{"ha":984,"x_min":24,"x_max":932,"o":"m 28 882 q 95 876 66 880 q 219 869 149 869 q 345 873 243 869 q 618 879 496 879 l 741 880 q 863 870 782 880 q 875 833 875 857 l 875 694 l 876 666 q 876 654 876 662 l 848 652 q 825 654 842 652 q 808 694 819 667 l 781 742 q 738 804 766 772 q 694 810 721 809 q 653 813 688 810 q 517 819 590 819 q 370 816 435 819 q 368 682 368 799 l 369 568 l 369 483 q 398 481 386 481 q 571 486 519 481 q 635 499 623 490 q 656 528 647 507 q 680 628 663 543 l 689 629 l 728 628 q 731 536 731 568 q 730 445 731 465 q 729 413 729 425 q 731 354 729 395 q 733 294 733 314 l 733 279 l 685 279 q 675 324 682 290 q 650 403 661 387 q 623 421 642 415 q 523 426 610 426 q 369 420 420 426 q 368 397 368 403 q 371 263 368 317 l 370 117 q 388 81 370 91 q 558 67 416 67 q 718 81 652 67 q 798 127 764 92 q 875 254 844 172 q 909 256 896 256 q 932 256 917 256 q 928 227 930 239 l 924 207 l 899 79 l 887 1 q 817 -1 843 -1 q 614 6 779 -1 q 335 11 498 11 q 135 4 254 11 l 106 4 l 24 1 l 24 48 q 76 56 37 52 q 174 77 146 64 q 181 127 181 97 q 180 166 181 138 l 181 187 l 179 443 l 180 519 l 176 628 l 177 705 l 171 789 q 170 802 171 792 q 149 812 163 810 q 129 816 142 813 q 54 825 90 824 q 24 828 41 826 l 28 882 m 305 939 l 436 1175 q 462 1176 450 1176 l 581 1175 q 652 1044 611 1122 l 709 936 l 656 935 l 508 1065 q 451 1017 488 1051 q 359 937 413 982 l 305 939 z "},"":{"ha":911,"x_min":-18,"x_max":939,"o":"m -18 5 l -16 51 q 29 61 -3 55 q 93 79 81 71 q 120 119 104 87 l 257 477 l 418 899 q 460 899 440 899 l 491 899 l 497 886 l 615 607 q 687 434 655 518 q 742 298 719 351 q 779 202 755 266 q 817 115 791 168 q 837 82 830 87 q 877 68 849 72 q 936 53 904 65 q 939 20 939 31 q 939 5 939 15 q 828 9 888 5 q 720 14 768 14 q 642 13 666 14 l 527 7 l 494 5 q 496 51 494 29 l 571 67 q 610 81 605 76 q 617 96 617 87 q 614 115 617 105 l 587 181 l 533 314 l 274 315 q 215 155 260 282 q 202 106 202 119 q 212 81 202 89 q 271 63 227 68 q 319 56 277 62 q 320 22 320 31 q 319 6 320 14 q 118 18 277 6 l 90 13 q -5 5 40 5 l -18 5 m 301 386 q 488 384 460 384 l 505 385 q 452 525 485 445 q 399 648 420 606 l 301 386 m 384 946 q 453 1164 405 1021 l 639 1162 l 435 945 q 405 945 410 945 q 384 946 395 945 z "},"":{"ha":984,"x_min":24,"x_max":932,"o":"m 28 882 q 95 876 66 880 q 219 869 149 869 q 345 873 243 869 q 618 879 496 879 l 741 880 q 863 870 782 880 q 875 833 875 857 l 875 694 l 876 666 q 876 654 876 662 l 848 652 q 825 654 842 652 q 808 694 819 667 l 781 742 q 738 804 766 772 q 694 810 721 809 q 653 813 688 810 q 517 819 590 819 q 370 816 435 819 q 368 682 368 799 l 369 568 l 369 483 q 398 481 386 481 q 571 486 519 481 q 635 499 623 490 q 656 528 647 507 q 680 628 663 543 l 689 629 l 728 628 q 731 536 731 568 q 730 445 731 465 q 729 413 729 425 q 731 354 729 395 q 733 294 733 314 l 733 279 l 685 279 q 675 324 682 290 q 650 403 661 387 q 623 421 642 415 q 523 426 610 426 q 369 420 420 426 q 368 397 368 403 q 371 263 368 317 l 370 117 q 388 81 370 91 q 558 67 416 67 q 718 81 652 67 q 798 127 764 92 q 875 254 844 172 q 909 256 896 256 q 932 256 917 256 q 928 227 930 239 l 924 207 l 899 79 l 887 1 q 817 -1 843 -1 q 614 6 779 -1 q 335 11 498 11 q 135 4 254 11 l 106 4 l 24 1 l 24 48 q 76 56 37 52 q 174 77 146 64 q 181 127 181 97 q 180 166 181 138 l 181 187 l 179 443 l 180 519 l 176 628 l 177 705 l 171 789 q 170 802 171 792 q 149 812 163 810 q 129 816 142 813 q 54 825 90 824 q 24 828 41 826 l 28 882 m 536 1055 q 561 1118 536 1093 q 620 1143 585 1143 q 680 1118 655 1143 q 704 1059 704 1093 q 680 999 704 1023 q 620 975 655 975 q 561 999 586 975 q 536 1055 536 1023 m 395 1143 q 451 1118 427 1143 q 475 1058 475 1093 q 450 999 475 1023 q 391 974 426 974 q 331 998 355 974 q 307 1058 307 1023 q 332 1118 307 1093 q 389 1143 356 1143 l 395 1143 z "},"":{"ha":984,"x_min":24,"x_max":932,"o":"m 28 882 q 95 876 66 880 q 219 869 149 869 q 345 873 243 869 q 618 879 496 879 l 741 880 q 863 870 782 880 q 875 833 875 857 l 875 694 l 876 666 q 876 654 876 662 l 848 652 q 825 654 842 652 q 808 694 819 667 l 781 742 q 738 804 766 772 q 694 810 721 809 q 653 813 688 810 q 517 819 590 819 q 370 816 435 819 q 368 682 368 799 l 369 568 l 369 483 q 398 481 386 481 q 571 486 519 481 q 635 499 623 490 q 656 528 647 507 q 680 628 663 543 l 689 629 l 728 628 q 731 536 731 568 q 730 445 731 465 q 729 413 729 425 q 731 354 729 395 q 733 294 733 314 l 733 279 l 685 279 q 675 324 682 290 q 650 403 661 387 q 623 421 642 415 q 523 426 610 426 q 369 420 420 426 q 368 397 368 403 q 371 263 368 317 l 370 117 q 388 81 370 91 q 558 67 416 67 q 718 81 652 67 q 798 127 764 92 q 875 254 844 172 q 909 256 896 256 q 932 256 917 256 q 928 227 930 239 l 924 207 l 899 79 l 887 1 q 817 -1 843 -1 q 614 6 779 -1 q 335 11 498 11 q 135 4 254 11 l 106 4 l 24 1 l 24 48 q 76 56 37 52 q 174 77 146 64 q 181 127 181 97 q 180 166 181 138 l 181 187 l 179 443 l 180 519 l 176 628 l 177 705 l 171 789 q 170 802 171 792 q 149 812 163 810 q 129 816 142 813 q 54 825 90 824 q 24 828 41 826 l 28 882 m 342 1164 l 528 1164 q 542 1123 534 1145 q 559 1067 551 1091 q 597 946 591 975 l 544 948 l 342 1164 z "},"":{"ha":550,"x_min":56,"x_max":489,"o":"m 56 4 l 56 53 q 100 64 69 57 q 166 87 144 75 q 178 145 178 108 l 178 225 l 179 380 l 178 416 q 183 555 183 551 l 182 645 l 184 682 l 180 759 l 180 788 q 175 810 179 795 q 85 826 147 823 q 61 828 70 827 l 59 888 l 253 880 q 298 878 289 878 q 426 884 338 878 q 488 888 475 887 q 489 866 489 875 q 488 836 489 854 q 426 818 460 827 q 368 801 391 810 q 364 750 364 783 q 366 703 364 721 q 364 526 364 588 l 365 347 l 363 256 l 364 121 l 363 95 q 366 79 363 90 q 441 67 408 71 q 483 62 448 66 q 486 28 486 41 q 485 5 486 20 q 471 4 476 5 q 446 3 450 3 q 429 5 441 3 q 338 14 419 6 l 218 16 q 114 9 182 16 q 56 4 69 5 m 203 946 q 272 1164 224 1021 l 458 1162 l 254 945 q 224 945 229 945 q 203 946 214 945 z "},"":{"ha":550,"x_min":56,"x_max":492,"o":"m 56 4 l 56 53 q 100 64 69 57 q 166 87 144 75 q 178 145 178 108 l 178 225 l 179 380 l 178 416 q 183 555 183 551 l 182 645 l 184 682 l 180 759 l 180 788 q 175 810 179 795 q 85 826 147 823 q 61 828 70 827 l 59 888 l 253 880 q 298 878 289 878 q 426 884 338 878 q 488 888 475 887 q 489 866 489 875 q 488 836 489 854 q 426 818 460 827 q 368 801 391 810 q 364 750 364 783 q 366 703 364 721 q 364 526 364 588 l 365 347 l 363 256 l 364 121 l 363 95 q 366 79 363 90 q 441 67 408 71 q 483 62 448 66 q 486 28 486 41 q 485 5 486 20 q 471 4 476 5 q 446 3 450 3 q 429 5 441 3 q 338 14 419 6 l 218 16 q 114 9 182 16 q 56 4 69 5 m 88 939 l 219 1175 q 245 1176 233 1176 l 364 1175 q 435 1044 394 1122 l 492 936 l 439 935 l 291 1065 q 234 1017 271 1051 q 142 937 196 982 l 88 939 z "},"":{"ha":550,"x_min":56,"x_max":489,"o":"m 56 4 l 56 53 q 100 64 69 57 q 166 87 144 75 q 178 145 178 108 l 178 225 l 179 380 l 178 416 q 183 555 183 551 l 182 645 l 184 682 l 180 759 l 180 788 q 175 810 179 795 q 85 826 147 823 q 61 828 70 827 l 59 888 l 253 880 q 298 878 289 878 q 426 884 338 878 q 488 888 475 887 q 489 866 489 875 q 488 836 489 854 q 426 818 460 827 q 368 801 391 810 q 364 750 364 783 q 366 703 364 721 q 364 526 364 588 l 365 347 l 363 256 l 364 121 l 363 95 q 366 79 363 90 q 441 67 408 71 q 483 62 448 66 q 486 28 486 41 q 485 5 486 20 q 471 4 476 5 q 446 3 450 3 q 429 5 441 3 q 338 14 419 6 l 218 16 q 114 9 182 16 q 56 4 69 5 m 319 1055 q 343 1118 319 1093 q 403 1143 368 1143 q 463 1118 438 1143 q 487 1059 487 1093 q 463 999 487 1023 q 403 975 438 975 q 344 999 369 975 q 319 1055 319 1023 m 178 1143 q 234 1118 210 1143 q 258 1058 258 1093 q 233 999 258 1023 q 174 974 209 974 q 114 998 138 974 q 90 1058 90 1023 q 115 1118 90 1093 q 172 1143 139 1143 l 178 1143 z "},"":{"ha":550,"x_min":56,"x_max":489,"o":"m 56 4 l 56 53 q 100 64 69 57 q 166 87 144 75 q 178 145 178 108 l 178 225 l 179 380 l 178 416 q 183 555 183 551 l 182 645 l 184 682 l 180 759 l 180 788 q 175 810 179 795 q 85 826 147 823 q 61 828 70 827 l 59 888 l 253 880 q 298 878 289 878 q 426 884 338 878 q 488 888 475 887 q 489 866 489 875 q 488 836 489 854 q 426 818 460 827 q 368 801 391 810 q 364 750 364 783 q 366 703 364 721 q 364 526 364 588 l 365 347 l 363 256 l 364 121 l 363 95 q 366 79 363 90 q 441 67 408 71 q 483 62 448 66 q 486 28 486 41 q 485 5 486 20 q 471 4 476 5 q 446 3 450 3 q 429 5 441 3 q 338 14 419 6 l 218 16 q 114 9 182 16 q 56 4 69 5 m 125 1164 l 311 1164 q 325 1123 317 1145 q 342 1067 334 1091 q 380 946 374 975 l 327 948 l 125 1164 z "},"":{"ha":1099,"x_min":61,"x_max":1034,"o":"m 61 454 q 94 623 61 538 q 160 735 117 684 q 267 826 203 786 q 399 883 332 865 q 549 900 466 900 q 793 847 690 900 q 957 704 897 794 q 1034 458 1034 587 q 904 129 1034 266 q 541 -8 773 -8 q 433 -1 483 -8 q 366 14 395 5 q 309 34 315 31 q 190 120 235 76 q 114 220 145 164 q 75 332 97 251 q 61 454 61 385 m 523 833 q 418 805 464 833 q 350 745 373 778 q 295 622 311 688 q 279 459 279 555 q 283 376 279 401 q 288 348 285 368 q 302 275 294 298 q 343 168 331 189 q 404 100 363 134 q 463 67 424 82 q 540 53 501 53 q 676 87 613 53 q 777 203 739 121 q 814 417 814 286 q 807 564 814 471 l 804 577 q 797 605 802 583 q 701 774 772 716 q 523 833 630 833 m 477 946 q 547 1164 498 1021 l 732 1162 l 528 945 q 498 945 503 945 q 477 946 489 945 z "},"":{"ha":1099,"x_min":61,"x_max":1034,"o":"m 61 454 q 94 623 61 538 q 160 735 117 684 q 267 826 203 786 q 399 883 332 865 q 549 900 466 900 q 793 847 690 900 q 957 704 897 794 q 1034 458 1034 587 q 904 129 1034 266 q 541 -8 773 -8 q 433 -1 483 -8 q 366 14 395 5 q 309 34 315 31 q 190 120 235 76 q 114 220 145 164 q 75 332 97 251 q 61 454 61 385 m 523 833 q 418 805 464 833 q 350 745 373 778 q 295 622 311 688 q 279 459 279 555 q 283 376 279 401 q 288 348 285 368 q 302 275 294 298 q 343 168 331 189 q 404 100 363 134 q 463 67 424 82 q 540 53 501 53 q 676 87 613 53 q 777 203 739 121 q 814 417 814 286 q 807 564 814 471 l 804 577 q 797 605 802 583 q 701 774 772 716 q 523 833 630 833 m 363 939 l 494 1175 q 519 1176 507 1176 l 639 1175 q 710 1044 669 1122 l 766 936 l 713 935 l 566 1065 q 508 1017 546 1051 q 416 937 471 982 l 363 939 z "},"":{"ha":1099,"x_min":61,"x_max":1034,"o":"m 61 454 q 94 623 61 538 q 160 735 117 684 q 267 826 203 786 q 399 883 332 865 q 549 900 466 900 q 793 847 690 900 q 957 704 897 794 q 1034 458 1034 587 q 904 129 1034 266 q 541 -8 773 -8 q 433 -1 483 -8 q 366 14 395 5 q 309 34 315 31 q 190 120 235 76 q 114 220 145 164 q 75 332 97 251 q 61 454 61 385 m 523 833 q 418 805 464 833 q 350 745 373 778 q 295 622 311 688 q 279 459 279 555 q 283 376 279 401 q 288 348 285 368 q 302 275 294 298 q 343 168 331 189 q 404 100 363 134 q 463 67 424 82 q 540 53 501 53 q 676 87 613 53 q 777 203 739 121 q 814 417 814 286 q 807 564 814 471 l 804 577 q 797 605 802 583 q 701 774 772 716 q 523 833 630 833 m 400 1164 l 585 1164 q 600 1123 592 1145 q 617 1067 609 1091 q 655 946 648 975 l 602 948 l 400 1164 z "},"":{"ha":1056,"x_min":24,"x_max":998,"o":"m 26 825 l 24 879 q 50 880 37 880 q 121 878 83 880 q 226 873 210 873 q 332 875 280 873 q 424 878 384 878 q 479 880 465 879 l 478 871 l 479 831 l 479 826 q 401 821 441 821 q 351 806 363 821 q 342 725 342 796 q 343 690 342 703 l 344 665 l 342 602 l 347 547 l 344 430 l 353 260 q 385 137 356 186 q 446 81 407 101 q 558 52 503 52 q 680 69 623 52 q 742 100 713 79 q 783 139 772 121 q 817 209 808 176 q 830 348 830 254 q 812 718 830 512 l 810 753 q 795 807 808 793 q 746 828 773 828 l 682 827 l 673 829 l 675 880 l 728 880 l 858 875 q 982 881 923 875 l 994 880 q 998 848 998 857 q 995 830 998 841 q 942 821 970 823 q 892 811 897 815 q 882 786 882 803 q 884 751 882 774 q 886 692 886 734 q 887 654 886 668 q 888 627 887 641 q 891 528 890 578 l 898 390 q 888 205 898 252 q 863 131 879 158 q 791 56 838 90 q 676 2 745 22 q 515 -18 607 -18 q 334 10 410 -18 q 221 84 259 38 q 168 203 182 130 q 158 347 158 253 l 159 670 q 148 800 159 785 q 55 823 133 821 q 26 825 38 823 m 456 946 q 525 1164 477 1021 l 711 1162 l 507 945 q 477 945 481 945 q 456 946 467 945 z "},"":{"ha":1056,"x_min":24,"x_max":998,"o":"m 26 825 l 24 879 q 50 880 37 880 q 121 878 83 880 q 226 873 210 873 q 332 875 280 873 q 424 878 384 878 q 479 880 465 879 l 478 871 l 479 831 l 479 826 q 401 821 441 821 q 351 806 363 821 q 342 725 342 796 q 343 690 342 703 l 344 665 l 342 602 l 347 547 l 344 430 l 353 260 q 385 137 356 186 q 446 81 407 101 q 558 52 503 52 q 680 69 623 52 q 742 100 713 79 q 783 139 772 121 q 817 209 808 176 q 830 348 830 254 q 812 718 830 512 l 810 753 q 795 807 808 793 q 746 828 773 828 l 682 827 l 673 829 l 675 880 l 728 880 l 858 875 q 982 881 923 875 l 994 880 q 998 848 998 857 q 995 830 998 841 q 942 821 970 823 q 892 811 897 815 q 882 786 882 803 q 884 751 882 774 q 886 692 886 734 q 887 654 886 668 q 888 627 887 641 q 891 528 890 578 l 898 390 q 888 205 898 252 q 863 131 879 158 q 791 56 838 90 q 676 2 745 22 q 515 -18 607 -18 q 334 10 410 -18 q 221 84 259 38 q 168 203 182 130 q 158 347 158 253 l 159 670 q 148 800 159 785 q 55 823 133 821 q 26 825 38 823 m 341 939 l 472 1175 q 498 1176 486 1176 l 617 1175 q 688 1044 647 1122 l 745 936 l 692 935 l 544 1065 q 487 1017 524 1051 q 395 937 449 982 l 341 939 z "},"":{"ha":1056,"x_min":24,"x_max":998,"o":"m 26 825 l 24 879 q 50 880 37 880 q 121 878 83 880 q 226 873 210 873 q 332 875 280 873 q 424 878 384 878 q 479 880 465 879 l 478 871 l 479 831 l 479 826 q 401 821 441 821 q 351 806 363 821 q 342 725 342 796 q 343 690 342 703 l 344 665 l 342 602 l 347 547 l 344 430 l 353 260 q 385 137 356 186 q 446 81 407 101 q 558 52 503 52 q 680 69 623 52 q 742 100 713 79 q 783 139 772 121 q 817 209 808 176 q 830 348 830 254 q 812 718 830 512 l 810 753 q 795 807 808 793 q 746 828 773 828 l 682 827 l 673 829 l 675 880 l 728 880 l 858 875 q 982 881 923 875 l 994 880 q 998 848 998 857 q 995 830 998 841 q 942 821 970 823 q 892 811 897 815 q 882 786 882 803 q 884 751 882 774 q 886 692 886 734 q 887 654 886 668 q 888 627 887 641 q 891 528 890 578 l 898 390 q 888 205 898 252 q 863 131 879 158 q 791 56 838 90 q 676 2 745 22 q 515 -18 607 -18 q 334 10 410 -18 q 221 84 259 38 q 168 203 182 130 q 158 347 158 253 l 159 670 q 148 800 159 785 q 55 823 133 821 q 26 825 38 823 m 378 1164 l 564 1164 q 578 1123 570 1145 q 595 1067 587 1091 q 633 946 627 975 l 580 948 l 378 1164 z "},"":{"ha":391,"x_min":22,"x_max":373,"o":"m 22 48 q 61 53 33 50 q 111 63 101 57 q 125 84 121 69 q 130 175 130 99 l 127 245 l 128 360 q 127 413 128 385 q 126 431 126 425 q 119 464 126 457 q 67 481 105 477 l 29 487 l 29 522 q 103 534 91 530 q 170 563 140 545 q 230 612 201 581 l 272 611 q 275 572 275 580 l 275 514 q 277 444 275 500 l 273 175 l 273 79 q 275 64 273 71 q 370 44 300 58 q 373 24 373 31 q 371 5 373 18 l 330 5 l 203 9 q 75 8 93 9 q 32 4 36 4 l 23 5 q 22 32 22 22 l 22 48 z "},"":{"ha":463,"x_min":45,"x_max":448,"o":"m 45 643 l 176 880 q 201 880 189 880 l 321 880 q 392 748 351 827 l 448 640 l 395 640 l 248 770 q 190 721 228 755 q 98 641 153 686 l 45 643 z "},"":{"ha":463,"x_min":15,"x_max":465,"o":"m 425 854 l 446 854 q 465 854 452 854 q 422 721 464 767 q 323 675 381 675 q 269 682 296 675 q 199 708 250 687 q 141 730 148 729 q 114 734 128 734 q 77 722 90 734 q 55 677 64 711 l 15 676 q 16 701 16 682 q 59 809 17 766 q 154 853 101 853 q 205 847 180 853 q 276 821 229 841 q 336 798 323 802 q 370 794 355 794 q 404 806 391 794 q 425 854 416 817 z "},"":{"ha":463,"x_min":69,"x_max":420,"o":"m 69 673 l 69 756 l 420 756 l 420 673 l 69 673 z "},"":{"ha":463,"x_min":73,"x_max":404,"o":"m 73 864 q 101 865 92 865 l 125 865 q 163 784 134 809 q 237 758 191 758 q 316 786 287 758 q 349 864 345 814 l 404 864 l 404 853 q 385 759 404 806 q 325 686 366 713 q 239 660 284 660 q 121 713 168 660 q 73 864 73 766 z "},"":{"ha":463,"x_min":156,"x_max":323,"o":"m 243 847 q 299 822 275 847 q 323 762 323 797 q 299 703 323 728 q 239 678 275 678 q 180 703 204 678 q 156 762 156 727 q 180 822 156 797 q 237 847 205 847 l 243 847 z "},"":{"ha":463,"x_min":119,"x_max":344,"o":"m 119 762 q 151 842 119 808 q 231 875 184 875 q 311 842 278 875 q 344 762 344 809 q 311 682 344 715 q 231 649 278 649 q 152 683 185 649 q 119 762 119 716 m 231 701 q 274 719 256 701 q 292 762 292 737 q 274 805 292 787 q 232 823 256 823 q 188 806 206 823 q 170 762 170 788 q 188 719 170 737 q 231 701 205 701 z "},"":{"ha":463,"x_min":61,"x_max":404,"o":"m 315 11 l 388 11 q 357 -22 377 -2 q 337 -46 337 -42 q 345 -59 337 -51 q 394 -121 384 -100 q 404 -170 404 -142 q 340 -279 404 -240 q 200 -317 277 -317 q 84 -290 128 -317 q 61 -258 61 -276 q 83 -219 61 -240 q 125 -198 105 -198 q 146 -203 134 -198 q 196 -235 157 -209 q 259 -261 234 -261 q 296 -249 283 -261 q 309 -220 309 -237 q 290 -179 309 -199 q 212 -139 271 -159 q 192 -128 198 -134 q 188 -120 188 -124 q 229 -74 188 -103 q 315 11 260 -52 z "},"":{"ha":463,"x_min":102,"x_max":599,"o":"m 102 650 q 172 868 123 725 l 357 866 l 153 650 q 123 649 128 649 q 102 650 114 649 m 344 650 q 413 868 365 725 l 599 866 l 395 650 q 365 649 370 649 q 344 650 355 649 z "},"":{"ha":463,"x_min":69,"x_max":394,"o":"m 194 12 l 253 12 q 189 -90 189 -39 q 214 -165 189 -127 q 279 -223 239 -204 q 374 -243 319 -242 l 394 -265 q 337 -299 360 -290 q 258 -313 298 -313 q 124 -262 179 -313 q 69 -148 69 -211 q 194 12 69 -48 z "},"":{"ha":463,"x_min":43,"x_max":446,"o":"m 43 881 l 97 882 q 202 790 111 869 l 245 754 l 395 882 l 446 881 l 317 643 q 203 642 242 642 q 172 646 191 642 l 43 881 z "},"":{"ha":868,"x_min":16,"x_max":880,"o":"m 179 328 l 16 193 l 16 236 q 19 288 16 253 q 102 357 64 323 q 179 424 120 374 l 178 472 q 180 578 178 536 l 182 705 q 172 783 176 776 q 134 802 168 790 q 108 811 130 802 q 77 821 91 818 q 44 835 54 827 q 42 862 42 852 q 43 878 42 867 q 56 882 50 882 q 174 876 73 882 l 271 877 l 342 876 q 463 882 390 876 q 488 884 485 884 q 503 878 498 884 q 508 852 508 871 q 500 828 508 836 q 470 820 496 823 l 387 800 q 374 795 382 798 q 371 787 372 790 l 370 767 l 368 725 q 368 712 368 721 l 369 705 l 368 686 q 366 651 366 660 l 369 582 l 457 656 q 522 702 478 673 l 522 606 q 458 557 484 583 q 406 513 439 538 q 368 481 393 503 q 366 417 367 446 l 364 96 q 371 69 363 75 l 435 66 l 475 67 l 518 66 q 689 91 627 66 q 751 129 736 110 q 788 173 774 149 q 821 252 802 197 l 842 252 q 879 250 859 252 q 880 231 880 237 q 867 60 880 182 q 858 -1 862 10 q 838 -3 842 -3 l 812 -3 l 778 -4 q 697 1 772 -4 q 568 6 684 3 q 340 10 452 10 l 202 6 q 52 -1 122 4 q 41 -1 45 -1 q 29 -1 37 -1 q 27 13 27 7 q 32 54 27 41 q 92 65 54 60 q 136 72 130 71 q 172 80 163 72 q 176 107 176 96 l 175 194 l 178 281 q 179 328 179 295 z "},"":{"ha":448,"x_min":-26,"x_max":480,"o":"m 158 384 l -26 231 l -26 275 q -23 326 -26 292 q 60 396 23 362 q 158 480 74 410 l 156 663 l 156 690 q 147 772 156 745 q 96 787 123 787 q 66 790 80 787 q 64 815 64 807 q 65 827 64 821 q 177 855 119 833 q 264 899 234 876 l 283 899 q 301 899 290 899 q 305 603 305 664 l 412 693 q 480 741 434 710 l 480 645 q 418 598 441 621 q 353 543 395 574 q 304 503 337 530 l 304 218 l 305 119 l 305 103 q 315 62 305 74 q 349 51 323 53 q 406 44 363 50 q 409 21 409 30 q 408 2 409 14 l 355 5 q 241 8 309 8 l 216 9 q 105 3 178 9 l 55 3 l 52 34 q 92 47 68 44 q 145 61 138 52 q 159 133 159 79 l 159 235 l 159 324 l 158 384 z "},"":{"ha":709,"x_min":69,"x_max":662,"o":"m 573 863 q 585 793 580 840 q 593 684 593 723 q 591 658 593 672 l 584 656 l 535 659 l 527 661 q 467 782 497 750 q 346 836 416 836 q 240 801 279 836 q 201 715 201 766 q 240 631 201 671 q 401 555 278 591 q 502 515 443 543 q 591 456 560 488 q 647 375 631 414 q 662 278 662 336 q 638 153 662 214 q 597 91 625 120 q 534 43 576 71 q 445 3 491 16 q 328 -9 399 -9 q 214 5 280 -9 l 133 28 q 90 45 99 38 q 84 58 87 48 l 84 66 q 81 159 84 73 q 79 221 79 203 l 79 247 l 142 248 q 184 157 174 173 q 230 101 205 123 q 291 67 256 80 q 368 55 326 55 q 448 71 404 55 q 519 122 492 86 q 546 198 546 157 q 499 291 546 248 q 346 361 471 317 q 173 440 221 406 q 97 533 125 475 q 69 644 69 591 q 146 827 69 752 q 374 903 224 903 q 471 891 407 903 q 573 863 509 884 m 166 1177 l 220 1177 q 325 1086 234 1164 l 368 1050 l 517 1178 l 569 1177 l 440 939 q 326 938 365 938 q 295 941 313 938 l 166 1177 z "},"":{"ha":578,"x_min":61,"x_max":519,"o":"m 61 194 q 91 198 81 198 q 105 197 96 198 l 111 191 q 159 113 148 126 q 206 68 183 85 q 255 45 222 57 q 302 37 277 37 q 376 65 345 37 q 406 124 406 92 q 395 161 406 146 q 349 191 383 176 q 263 216 332 199 q 181 238 195 233 q 124 272 149 250 q 87 321 100 294 q 69 387 69 359 q 84 472 69 439 q 126 530 99 505 q 185 564 146 549 q 271 580 225 580 q 384 571 335 580 q 467 545 433 562 q 478 473 471 529 q 486 406 486 416 q 484 396 486 401 q 454 391 466 391 q 435 392 448 391 q 418 420 429 401 q 352 506 386 481 q 273 530 317 530 q 194 503 226 530 q 171 450 171 484 q 195 404 171 427 q 278 368 219 380 q 409 329 367 349 q 495 262 470 300 q 519 172 519 223 q 460 41 519 94 q 287 -12 401 -12 q 209 -5 272 -12 q 142 9 180 -1 q 92 28 132 12 q 82 38 85 33 q 73 95 79 44 q 61 194 62 178 m 101 881 l 155 882 q 260 790 169 869 l 303 754 l 452 882 l 504 881 l 375 643 q 260 642 300 642 q 230 646 248 642 l 101 881 z "},"":{"ha":926,"x_min":31,"x_max":862,"o":"m 33 7 q 31 61 31 31 q 219 312 75 124 l 260 365 q 293 408 272 378 q 375 515 324 452 q 504 687 425 578 q 557 759 537 732 q 598 813 587 795 l 581 813 l 522 814 q 339 804 446 814 q 195 781 231 794 q 147 752 167 770 q 94 694 109 717 q 83 678 88 686 q 54 675 57 675 q 37 677 47 675 q 96 914 41 704 l 137 917 q 166 863 159 869 q 217 853 180 853 q 229 854 224 853 l 234 854 q 496 867 288 858 q 701 873 628 873 l 752 872 l 839 873 q 841 845 840 858 q 793 777 838 836 q 744 709 762 735 l 713 664 l 711 661 l 522 413 l 376 218 q 273 78 315 138 q 378 71 315 71 l 425 71 l 454 69 q 587 77 536 69 q 672 104 637 85 q 736 151 707 122 q 814 253 765 179 q 845 255 836 255 l 862 255 l 850 110 l 850 104 q 840 3 850 90 l 568 11 q 514 12 534 12 l 435 12 l 359 12 l 345 12 l 159 7 q 115 5 134 5 q 79 5 99 5 q 33 7 52 7 m 275 1177 l 328 1177 q 433 1086 342 1164 l 477 1050 l 626 1178 l 677 1177 l 549 939 q 434 938 473 938 q 404 941 422 938 l 275 1177 z "},"":{"ha":651,"x_min":41,"x_max":595,"o":"m 393 502 q 304 503 357 503 q 180 488 210 503 q 106 414 134 465 l 87 388 l 41 389 q 48 418 42 401 q 94 563 63 455 q 114 622 104 600 l 128 622 q 155 621 137 622 q 159 591 158 608 q 165 555 159 570 l 174 552 l 208 550 l 587 557 q 591 532 591 541 q 590 519 591 529 q 477 379 495 404 q 267 102 380 246 l 253 86 l 230 59 l 254 58 q 409 72 298 58 q 465 86 452 77 q 533 182 481 97 q 549 207 543 198 l 592 206 l 585 149 q 581 111 583 125 q 576 75 580 96 q 570 27 572 54 q 568 5 569 16 l 284 7 l 66 6 l 41 7 l 41 45 q 65 77 56 65 l 193 235 l 299 374 q 393 502 351 442 m 193 881 l 246 882 q 351 790 260 869 l 395 754 l 544 882 l 595 881 l 467 643 q 352 642 391 642 q 321 646 340 642 l 193 881 z "},"":{"ha":752,"x_min":322,"x_max":430,"o":"m 322 895 l 430 895 l 430 403 l 322 403 l 322 895 m 322 146 l 430 146 l 430 -346 l 322 -346 l 322 146 z "},"":{"ha":1085,"x_min":34,"x_max":1023,"o":"m 179 407 l 41 407 l 41 469 l 180 469 l 180 510 l 178 623 l 178 684 l 177 744 l 178 771 q 168 798 178 789 q 142 803 163 803 q 101 799 124 803 q 47 793 71 798 q 35 791 43 793 l 34 851 q 149 876 74 864 q 452 897 272 897 q 673 880 603 897 q 845 801 779 853 q 978 639 934 731 q 1023 439 1023 547 q 963 204 1023 302 q 791 47 903 106 q 578 5 713 5 l 439 11 l 398 13 l 343 12 l 327 13 l 270 12 l 195 12 q 125 7 191 12 q 68 5 104 6 q 36 5 47 5 q 35 60 35 20 q 77 68 45 62 q 159 96 138 79 q 176 146 172 109 q 180 353 180 184 l 179 407 m 363 407 l 365 323 q 363 246 363 256 q 398 119 363 153 q 536 72 448 72 q 635 85 604 72 q 741 153 702 111 q 800 274 780 196 q 821 436 821 353 q 777 660 821 572 q 657 790 733 747 q 483 834 581 834 q 363 815 414 834 q 361 785 361 794 l 363 670 l 362 570 q 364 469 364 521 l 621 469 l 621 407 l 363 407 z "},"":{"ha":724,"x_min":47,"x_max":670,"o":"m 519 901 l 543 863 l 439 797 q 670 317 670 621 q 635 140 670 211 q 532 29 600 70 q 358 -12 463 -12 q 210 20 271 -12 q 86 129 125 63 q 47 286 47 195 q 85 438 47 369 q 196 545 124 507 q 349 583 267 583 q 465 551 412 583 q 351 741 426 664 l 201 651 l 179 688 l 318 776 q 214 855 292 800 l 233 899 q 397 827 324 871 l 519 901 m 212 293 q 251 84 212 134 q 360 34 290 34 q 464 87 424 34 q 505 281 505 140 q 466 484 505 432 q 355 535 427 535 q 250 487 287 535 q 212 293 212 439 z "},"":{"ha":911,"x_min":-26,"x_max":935,"o":"m -24 878 q 61 883 -5 883 l 68 882 q 92 879 85 879 l 98 880 q 154 875 109 878 q 288 869 238 869 q 394 876 342 869 q 405 878 401 878 l 410 877 q 414 863 414 868 l 413 828 q 376 819 397 822 l 345 813 q 300 806 328 810 l 296 803 l 294 794 q 389 644 317 746 q 427 583 408 612 q 466 520 433 576 q 473 508 469 514 q 486 490 479 498 q 500 467 497 473 q 524 434 514 446 l 594 533 q 684 663 629 578 l 687 667 l 745 769 q 758 798 758 789 q 756 810 758 802 q 739 818 746 817 q 711 821 736 819 q 684 825 696 823 q 663 829 671 827 q 659 880 661 838 l 798 872 q 814 869 804 871 l 847 869 l 859 870 q 915 876 880 873 q 935 878 925 876 l 934 827 l 925 824 q 847 799 868 814 q 765 688 817 776 l 677 555 q 574 408 597 448 q 564 385 568 399 l 564 363 l 564 304 l 564 288 q 562 252 562 271 l 564 78 q 572 71 567 73 q 615 64 581 68 q 688 52 680 57 q 693 39 693 49 q 692 22 693 33 q 691 3 692 16 l 613 5 l 541 11 l 490 14 l 415 12 l 359 12 q 328 9 349 12 q 277 3 294 3 l 231 4 q 230 26 230 18 q 231 48 230 33 l 355 74 q 371 81 363 77 q 372 119 372 112 q 370 261 372 223 q 369 304 369 298 l 369 320 q 324 418 369 363 q 300 450 305 442 l 168 652 l 105 752 q 63 808 102 758 q 39 823 51 819 q -22 837 33 825 q -26 848 -26 843 q -25 858 -26 852 q -24 878 -24 865 m 384 946 q 453 1164 405 1021 l 639 1162 l 435 945 q 405 945 410 945 q 384 946 395 945 z "},"":{"ha":651,"x_min":-10,"x_max":654,"o":"m -10 551 q 29 555 14 555 q 47 554 37 555 q 148 550 109 550 l 183 550 l 279 555 q 289 547 285 551 q 286 509 287 517 q 270 506 275 507 q 247 502 254 504 q 231 499 239 500 q 219 490 220 496 q 227 463 223 473 l 260 396 q 339 221 298 301 l 377 143 q 429 277 381 151 q 492 444 487 425 q 494 462 494 454 q 490 484 494 469 q 466 498 475 495 q 422 505 456 501 l 400 511 l 398 520 q 397 530 397 527 q 399 548 397 536 q 429 549 420 549 l 484 546 l 520 545 q 600 551 543 545 q 653 556 635 555 q 654 530 654 539 q 654 518 654 526 q 627 509 642 512 q 584 497 602 503 q 570 484 574 489 q 524 371 559 458 l 475 240 l 361 -30 l 283 -209 q 223 -298 258 -260 q 193 -319 210 -312 q 130 -330 165 -330 q 93 -326 127 -330 q 45 -296 65 -319 q 31 -262 31 -280 q 62 -193 31 -224 q 104 -175 91 -175 q 176 -207 135 -175 q 206 -222 195 -222 q 224 -210 218 -222 q 300 -47 283 -95 l 175 229 q 67 462 104 395 q 40 502 48 496 q 16 513 33 508 q -4 521 7 515 q -10 551 -7 536 m 254 650 q 323 868 275 725 l 509 866 l 304 650 q 275 649 279 649 q 254 650 265 649 z "},"":{"ha":854,"x_min":33,"x_max":818,"o":"m 358 678 l 469 684 q 517 684 479 684 q 750 605 682 684 q 818 444 818 526 q 743 251 818 325 q 551 178 667 178 q 363 224 474 178 l 362 212 l 361 138 q 366 78 361 118 l 500 61 q 503 35 503 45 q 500 7 503 25 q 474 4 483 4 q 395 9 453 4 q 262 14 336 14 q 102 3 178 14 q 61 0 89 1 q 58 29 58 20 q 60 48 58 35 l 101 62 q 175 93 144 75 q 181 129 181 113 q 180 144 181 136 q 180 203 180 165 l 178 394 l 170 609 q 163 774 165 762 q 146 805 158 794 q 108 821 135 817 q 33 837 52 831 l 33 888 l 196 878 q 317 880 301 878 q 491 888 394 884 l 490 837 q 416 821 473 831 q 374 801 386 816 q 357 747 361 787 l 358 678 m 358 589 l 361 471 q 359 446 359 449 l 361 416 q 362 386 362 406 l 362 278 q 460 268 426 268 q 572 311 532 268 q 612 434 612 353 q 590 542 612 500 q 538 600 568 585 q 439 621 494 621 q 395 617 413 621 q 366 606 377 613 q 358 589 361 597 z "},"":{"ha":767,"x_min":-2,"x_max":715,"o":"m -2 -340 l -2 -310 q 16 -300 10 -302 l 68 -281 q 100 -266 96 -270 q 106 -258 104 -262 q 115 -214 113 -238 l 112 -87 l 110 67 q 106 214 106 162 l 108 476 l 106 665 l 106 690 q 97 772 106 746 q 46 787 73 786 q 16 789 30 787 q 14 815 14 806 q 15 827 14 820 q 126 855 69 833 q 214 899 184 876 l 233 899 q 251 899 239 899 q 252 861 252 873 l 250 699 q 252 509 250 636 q 349 556 311 545 q 471 572 404 572 q 594 537 541 572 q 606 530 598 534 q 655 483 640 505 q 704 388 689 435 q 715 300 715 353 q 697 180 715 229 q 634 82 679 132 q 538 12 589 33 q 431 -9 487 -9 q 351 -3 375 -9 q 261 35 306 10 q 259 20 259 24 l 261 2 q 262 -16 262 -5 q 260 -70 262 -21 l 262 -193 q 262 -220 262 -197 l 262 -228 q 265 -264 262 -253 q 277 -279 268 -271 q 290 -286 283 -282 q 327 -294 311 -290 q 360 -300 342 -298 q 366 -320 366 -308 q 366 -342 366 -328 l 353 -342 q 298 -340 314 -342 l 196 -332 l 171 -332 l 147 -331 l 123 -333 l 87 -335 q 42 -338 66 -336 q 7 -341 18 -341 l -2 -340 m 255 144 q 258 132 258 136 q 277 88 266 101 q 326 56 298 64 q 397 44 366 44 q 466 59 432 44 q 519 99 499 74 q 528 109 522 102 q 535 125 532 119 q 562 237 562 178 q 497 422 562 347 q 368 476 452 476 q 256 450 319 476 q 254 302 254 424 l 256 171 q 255 144 256 166 z "},"":{"ha":926,"x_min":92,"x_max":835,"o":"m 92 495 l 835 495 l 835 388 l 92 388 l 92 495 z "},"":{"ha":926,"x_min":119,"x_max":809,"o":"m 119 710 l 194 785 l 464 515 l 734 785 l 809 710 l 540 439 l 806 173 l 731 98 l 465 365 l 196 98 l 121 173 l 389 439 l 119 710 z "},"":{"ha":434,"x_min":60,"x_max":359,"o":"m 208 896 q 241 897 237 897 l 286 896 q 288 870 288 878 l 287 848 l 287 823 l 286 777 l 286 743 l 283 509 q 286 479 283 481 q 311 471 291 473 q 357 464 321 470 q 359 447 359 453 q 357 433 359 442 q 281 435 313 433 q 253 435 258 435 q 170 433 176 433 l 151 434 l 142 433 l 123 434 l 97 433 q 96 449 96 444 q 97 463 96 454 q 142 473 132 471 q 171 480 165 475 q 176 499 176 486 l 176 520 l 178 542 l 177 609 q 178 629 177 618 l 178 637 l 177 675 l 178 692 q 177 718 177 714 q 178 747 177 724 l 178 810 q 82 763 137 784 q 75 772 77 770 q 60 796 65 785 q 144 840 115 821 q 208 896 183 868 z "},"":{"ha":434,"x_min":33,"x_max":399,"o":"m 382 431 l 347 431 l 291 432 l 261 431 l 219 433 q 190 432 212 433 q 172 431 177 431 l 131 432 l 66 431 l 33 431 l 33 460 q 121 551 90 524 q 161 589 138 565 l 223 656 q 253 708 243 681 q 264 753 264 735 q 243 818 264 796 q 185 839 222 839 q 126 817 150 839 q 98 749 103 794 l 54 749 q 52 778 52 766 q 97 858 52 820 q 221 895 142 895 q 339 858 297 895 q 380 770 380 821 q 351 692 380 731 q 143 510 321 652 l 167 509 l 245 511 l 287 510 q 330 517 318 509 q 346 545 337 522 q 353 562 348 550 q 389 564 359 563 q 399 559 393 563 l 399 550 q 382 431 399 533 z "},"":{"ha":434,"x_min":28,"x_max":392,"o":"m 157 638 l 130 667 q 230 742 206 714 q 245 781 245 760 q 229 815 245 800 q 193 831 214 831 q 106 777 147 831 l 69 794 q 122 862 96 843 q 228 895 169 895 q 321 870 291 895 q 351 811 351 845 q 335 763 351 786 q 272 709 319 739 q 361 667 330 701 q 392 591 392 633 q 334 470 392 520 q 170 420 277 420 q 53 445 92 420 q 28 479 28 460 q 42 505 28 493 q 78 516 55 516 q 146 478 114 516 q 191 456 164 456 q 230 468 210 456 q 263 508 251 480 q 275 572 275 536 q 254 634 275 611 q 208 656 233 656 q 157 638 189 656 z "},"":{"ha":1158,"x_min":65,"x_max":1119,"o":"m 213 896 q 245 897 241 897 l 290 896 q 293 870 293 878 l 292 848 l 292 823 l 290 777 l 291 743 l 288 509 q 291 479 288 481 q 316 471 296 473 q 361 464 326 470 q 363 447 363 453 q 362 433 363 442 q 286 435 318 433 q 258 435 262 435 q 174 433 181 433 l 156 434 l 146 433 l 128 434 l 102 433 q 101 449 101 444 q 102 463 101 454 q 146 473 137 471 q 175 480 170 475 q 181 499 181 486 l 181 520 l 182 542 l 182 609 q 182 629 182 618 l 183 637 l 182 675 l 183 692 q 182 718 182 714 q 183 747 182 724 l 183 810 q 87 763 142 784 q 79 772 82 770 q 65 796 70 785 q 149 840 120 821 q 213 896 188 868 m 254 -18 q 855 906 401 199 l 864 908 l 925 905 l 932 906 l 330 -18 q 310 -18 317 -18 l 269 -16 l 254 -18 m 1101 -1 l 1067 -1 l 1010 -1 l 981 -1 l 939 0 q 909 -1 932 0 q 892 -1 897 -1 l 850 -1 l 786 -1 l 752 -1 l 752 27 q 841 118 810 91 q 880 157 858 132 l 943 224 q 973 275 962 248 q 983 321 983 302 q 962 385 983 363 q 905 406 941 406 q 846 384 869 406 q 818 316 823 361 l 773 316 q 771 345 771 334 q 817 425 771 387 q 941 463 862 463 q 1058 425 1017 463 q 1100 337 1100 388 q 1070 259 1100 298 q 863 77 1040 220 l 886 77 l 965 78 l 1006 77 q 1049 84 1038 77 q 1065 112 1057 89 q 1073 129 1067 117 q 1109 131 1079 130 q 1119 127 1113 130 l 1119 117 q 1101 -1 1119 100 z "},"":{"ha":1158,"x_min":64,"x_max":1117,"o":"m 212 896 q 245 897 241 897 l 290 896 q 292 870 292 878 l 291 848 l 291 823 l 290 777 l 290 743 l 288 509 q 290 479 288 481 q 315 471 295 473 q 361 464 326 470 q 363 447 363 453 q 361 433 363 442 q 285 435 317 433 q 257 435 262 435 q 174 433 180 433 l 155 434 l 146 433 l 127 434 l 101 433 q 100 449 100 444 q 101 463 100 454 q 146 473 136 471 q 175 480 169 475 q 180 499 180 486 l 180 520 l 182 542 l 181 609 q 182 629 181 618 l 182 637 l 181 675 l 182 692 q 181 718 181 714 q 182 747 181 724 l 182 810 q 86 763 141 784 q 79 772 81 770 q 64 796 69 785 q 148 840 119 821 q 212 896 187 868 m 253 -18 q 854 906 401 199 l 863 908 l 924 905 l 932 906 l 329 -18 q 309 -18 316 -18 l 269 -16 l 253 -18 m 1117 179 l 1117 112 q 1082 111 1095 111 l 1053 111 l 1053 49 q 1052 26 1053 45 q 1051 -5 1051 16 l 1023 -5 l 980 -5 q 951 -7 972 -5 l 951 67 q 950 111 951 89 l 878 111 l 783 113 q 756 111 774 113 q 755 136 755 128 l 756 170 q 822 263 768 190 q 914 381 875 336 q 983 467 953 427 l 1001 468 q 1020 469 1014 469 q 1055 467 1030 469 q 1057 454 1057 458 l 1055 433 q 1055 420 1055 427 q 1055 410 1055 415 l 1056 396 l 1055 347 l 1055 234 l 1054 178 l 1090 178 q 1117 179 1100 178 m 951 179 l 954 201 l 952 228 l 953 253 l 952 279 l 954 359 q 876 260 932 336 q 865 245 871 254 q 846 218 856 231 q 820 180 831 199 l 917 180 q 937 179 929 179 l 951 179 z "},"":{"ha":1158,"x_min":33,"x_max":1118,"o":"m 161 638 l 134 667 q 234 742 210 714 q 249 781 249 760 q 233 815 249 800 q 197 831 218 831 q 111 777 151 831 l 73 794 q 126 862 100 843 q 232 895 173 895 q 325 870 295 895 q 355 811 355 845 q 339 763 355 786 q 276 709 323 739 q 365 667 334 701 q 396 591 396 633 q 338 470 396 520 q 174 420 281 420 q 57 445 96 420 q 33 479 33 460 q 46 505 33 493 q 82 516 59 516 q 150 478 118 516 q 195 456 168 456 q 234 468 214 456 q 267 508 255 480 q 279 572 279 536 q 258 634 279 611 q 212 656 237 656 q 161 638 193 656 m 253 -18 q 854 906 401 199 l 863 908 l 924 905 l 932 906 l 329 -18 q 309 -18 316 -18 l 269 -16 l 253 -18 m 1118 179 l 1118 112 q 1082 111 1096 111 l 1054 111 l 1054 49 q 1053 26 1054 45 q 1052 -5 1052 16 l 1024 -5 l 981 -5 q 951 -7 972 -5 l 952 67 q 951 111 952 89 l 879 111 l 783 113 q 757 111 774 113 q 756 136 756 128 l 757 170 q 822 263 769 190 q 915 381 876 336 q 983 467 954 427 l 1002 468 q 1021 469 1015 469 q 1056 467 1031 469 q 1057 454 1057 458 l 1056 433 q 1055 420 1055 427 q 1056 410 1055 415 l 1057 396 l 1055 347 l 1055 234 l 1055 178 l 1091 178 q 1118 179 1101 178 m 952 179 l 954 201 l 953 228 l 954 253 l 953 279 l 954 359 q 877 260 933 336 q 866 245 872 254 q 846 218 857 231 q 821 180 831 199 l 918 180 q 938 179 930 179 l 952 179 z "},"":{"ha":1013,"x_min":38,"x_max":1015,"o":"m 747 606 l 795 608 q 798 582 798 592 q 798 564 798 574 q 797 524 797 540 q 798 468 797 517 q 838 532 825 515 q 874 565 844 539 q 926 582 897 582 q 989 557 963 582 q 1015 501 1015 533 q 995 444 1015 469 q 942 418 975 418 q 881 443 913 418 q 851 458 862 458 q 817 427 833 458 q 801 361 801 396 l 802 342 q 806 107 805 293 q 819 73 808 90 q 844 60 832 64 q 888 53 857 56 q 926 44 919 50 q 932 26 932 39 q 928 6 932 18 l 865 6 l 735 13 q 646 9 686 13 l 635 9 q 564 5 630 9 q 562 22 562 16 q 564 37 562 27 q 587 48 573 45 q 653 75 622 56 q 659 185 659 92 q 653 374 659 354 q 624 415 642 407 q 420 431 589 431 q 362 426 395 431 q 357 360 357 397 l 361 157 q 373 87 361 100 q 424 71 380 79 l 437 70 q 491 61 468 68 l 509 57 q 512 30 512 39 q 510 4 512 20 l 497 5 l 476 4 l 380 9 q 228 9 363 9 q 157 5 191 9 q 98 -1 103 -1 q 38 0 54 -1 l 39 49 q 89 59 54 52 q 158 75 123 66 l 171 83 q 178 138 178 110 l 178 142 l 175 299 l 176 365 l 173 462 l 174 577 l 166 804 q 100 823 156 814 q 61 834 87 826 l 45 838 l 45 886 l 134 882 q 374 874 216 874 q 539 878 453 874 l 552 879 l 585 878 l 599 879 l 627 879 l 749 883 q 770 884 757 883 q 795 886 783 886 q 800 846 799 866 l 810 718 q 806 687 810 698 q 770 684 782 684 q 749 690 757 684 q 733 720 745 694 q 685 801 705 789 q 573 814 665 814 l 479 811 q 385 804 420 810 q 363 798 378 803 q 355 758 355 782 l 357 677 l 355 585 q 359 498 355 514 q 370 493 366 494 l 418 492 l 500 492 q 586 499 525 492 q 649 515 622 503 q 703 554 658 519 q 728 582 715 563 q 747 606 739 597 z "},"":{"ha":1013,"x_min":64,"x_max":988,"o":"m 878 825 q 888 748 882 806 q 895 663 895 690 q 890 638 895 653 q 840 644 861 639 q 768 743 789 723 q 667 808 728 781 q 562 827 621 827 q 363 726 449 827 q 277 423 277 624 q 310 240 277 329 q 411 101 344 151 q 569 50 478 50 q 663 62 613 50 q 703 83 688 67 q 718 116 714 94 q 723 228 723 155 q 721 325 723 298 q 712 338 716 335 q 684 348 707 341 l 624 364 q 600 376 604 369 q 598 389 598 385 q 603 415 598 398 q 620 419 615 419 q 748 414 694 419 q 789 412 767 412 l 897 414 l 942 415 q 987 414 950 416 q 988 384 988 396 q 983 367 988 376 q 944 350 972 360 q 913 336 916 340 q 905 319 907 331 q 903 239 903 308 q 903 143 903 159 q 900 86 900 93 q 893 55 900 61 q 775 12 874 36 q 546 -12 677 -12 q 387 2 454 -12 q 272 45 319 17 q 163 138 208 83 q 95 255 117 192 q 64 433 64 345 q 110 635 64 533 q 205 769 144 709 q 359 863 267 828 q 559 899 451 899 q 604 895 573 899 q 758 874 686 895 q 878 825 830 854 m 347 1160 q 376 1160 366 1160 l 400 1160 q 437 1079 409 1105 q 511 1054 466 1054 q 590 1082 562 1054 q 623 1160 619 1109 l 678 1160 l 678 1149 q 659 1055 678 1101 q 600 982 640 1008 q 513 956 559 956 q 395 1008 443 956 q 347 1160 348 1061 z "},"":{"ha":752,"x_min":34,"x_max":749,"o":"m 196 -87 q 74 -33 104 -64 q 43 36 43 -2 q 60 83 43 66 q 208 174 76 99 q 116 252 141 214 q 83 348 83 300 q 101 439 83 391 q 205 542 139 508 q 376 576 271 576 q 448 571 418 576 q 496 556 463 568 l 522 547 q 582 502 556 525 q 676 526 640 513 q 720 533 701 533 q 741 522 733 533 q 749 467 749 510 q 739 415 749 430 q 718 401 729 401 q 694 410 714 401 q 621 433 648 431 q 637 344 637 386 q 608 249 637 294 q 529 178 579 204 q 389 140 459 140 q 328 142 345 140 q 262 155 304 145 q 181 100 204 123 q 170 75 170 90 q 181 50 170 61 q 221 35 193 39 q 236 33 227 35 q 332 30 272 30 q 380 32 339 30 q 399 33 391 33 q 627 -19 562 33 q 691 -145 691 -71 q 668 -223 691 -185 q 607 -286 646 -262 q 495 -329 568 -310 q 339 -348 422 -348 q 177 -330 249 -348 q 65 -273 106 -313 q 34 -209 34 -243 q 60 -150 34 -176 q 196 -87 86 -123 m 366 186 q 443 225 411 186 q 475 346 475 264 q 447 492 475 454 q 366 529 418 529 q 330 526 359 529 q 270 479 297 519 q 243 372 243 439 q 248 300 243 354 q 258 260 250 277 q 283 219 270 233 q 320 195 297 204 q 366 186 342 186 m 404 -302 q 560 -248 505 -290 q 595 -193 595 -220 q 588 -163 595 -178 q 561 -135 581 -149 q 517 -116 542 -121 q 426 -109 483 -109 l 342 -108 q 195 -135 233 -108 q 157 -207 157 -162 q 178 -254 157 -231 q 249 -291 199 -277 q 355 -304 298 -304 q 404 -302 372 -304 m 217 864 q 245 865 236 865 l 270 865 q 307 784 279 809 q 381 758 336 758 q 460 786 431 758 q 493 864 489 814 l 548 864 l 548 853 q 529 759 548 806 q 469 686 510 713 q 383 660 429 660 q 265 713 313 660 q 217 864 218 766 z "},"":{"ha":550,"x_min":56,"x_max":489,"o":"m 56 4 l 56 53 q 100 64 69 57 q 166 87 144 75 q 178 145 178 108 l 178 225 l 179 380 l 178 416 q 183 555 183 551 l 182 645 l 184 682 l 180 759 l 180 788 q 175 810 179 795 q 85 826 147 823 q 61 828 70 827 l 59 888 l 253 880 q 298 878 289 878 q 426 884 338 878 q 488 888 475 887 q 489 866 489 875 q 488 836 489 854 q 426 818 460 827 q 368 801 391 810 q 364 750 364 783 q 366 703 364 721 q 364 526 364 588 l 365 347 l 363 256 l 364 121 l 363 95 q 366 79 363 90 q 441 67 408 71 q 483 62 448 66 q 486 28 486 41 q 485 5 486 20 q 471 4 476 5 q 446 3 450 3 q 429 5 441 3 q 338 14 419 6 l 218 16 q 114 9 182 16 q 56 4 69 5 m 287 1084 q 343 1059 319 1084 q 367 1000 367 1034 q 342 940 367 965 q 283 916 318 916 q 223 940 248 916 q 199 1000 199 964 q 224 1059 199 1034 q 281 1084 248 1084 l 287 1084 z "},"":{"ha":709,"x_min":69,"x_max":662,"o":"m 573 863 q 585 793 580 840 q 593 684 593 723 q 591 658 593 672 l 584 656 l 535 659 l 527 661 q 467 782 497 750 q 346 836 416 836 q 240 801 279 836 q 201 715 201 766 q 240 631 201 671 q 401 555 278 591 q 502 515 443 543 q 591 456 560 488 q 647 375 631 414 q 662 278 662 336 q 638 153 662 214 q 597 91 625 120 q 534 43 576 71 q 445 3 491 16 q 328 -9 399 -9 q 214 5 280 -9 l 133 28 q 90 45 99 38 q 84 58 87 48 l 84 66 q 81 159 84 73 q 79 221 79 203 l 79 247 l 142 248 q 184 157 174 173 q 230 101 205 123 q 291 67 256 80 q 368 55 326 55 q 448 71 404 55 q 519 122 492 86 q 546 198 546 157 q 499 291 546 248 q 346 361 471 317 q 173 440 221 406 q 97 533 125 475 q 69 644 69 591 q 146 827 69 752 q 374 903 224 903 q 471 891 407 903 q 573 863 509 884 m 396 11 l 469 11 q 438 -22 458 -2 q 418 -46 418 -42 q 426 -59 418 -51 q 475 -121 465 -100 q 486 -170 486 -142 q 422 -279 486 -240 q 281 -317 358 -317 q 165 -290 210 -317 q 142 -258 142 -276 q 164 -219 142 -240 q 207 -198 186 -198 q 227 -203 216 -198 q 277 -235 239 -209 q 340 -261 315 -261 q 377 -249 364 -261 q 391 -220 391 -237 q 372 -179 391 -199 q 293 -139 353 -159 q 273 -128 279 -134 q 269 -120 269 -124 q 311 -74 269 -103 q 396 11 342 -52 z "},"":{"ha":578,"x_min":61,"x_max":519,"o":"m 61 194 q 91 198 81 198 q 105 197 96 198 l 111 191 q 159 113 148 126 q 206 68 183 85 q 255 45 222 57 q 302 37 277 37 q 376 65 345 37 q 406 124 406 92 q 395 161 406 146 q 349 191 383 176 q 263 216 332 199 q 181 238 195 233 q 124 272 149 250 q 87 321 100 294 q 69 387 69 359 q 84 472 69 439 q 126 530 99 505 q 185 564 146 549 q 271 580 225 580 q 384 571 335 580 q 467 545 433 562 q 478 473 471 529 q 486 406 486 416 q 484 396 486 401 q 454 391 466 391 q 435 392 448 391 q 418 420 429 401 q 352 506 386 481 q 273 530 317 530 q 194 503 226 530 q 171 450 171 484 q 195 404 171 427 q 278 368 219 380 q 409 329 367 349 q 495 262 470 300 q 519 172 519 223 q 460 41 519 94 q 287 -12 401 -12 q 209 -5 272 -12 q 142 9 180 -1 q 92 28 132 12 q 82 38 85 33 q 73 95 79 44 q 61 194 62 178 m 315 11 l 388 11 q 357 -22 377 -2 q 337 -46 337 -42 q 345 -59 337 -51 q 394 -121 384 -100 q 404 -170 404 -142 q 340 -279 404 -240 q 200 -317 277 -317 q 84 -290 128 -317 q 61 -258 61 -276 q 83 -219 61 -240 q 125 -198 105 -198 q 146 -203 134 -198 q 196 -235 157 -209 q 259 -261 234 -261 q 296 -249 283 -261 q 309 -220 309 -237 q 290 -179 309 -199 q 212 -139 271 -159 q 192 -128 198 -134 q 188 -120 188 -124 q 229 -74 188 -103 q 315 11 260 -52 z "},"":{"ha":941,"x_min":63,"x_max":897,"o":"m 833 868 q 869 752 842 848 q 882 660 882 709 l 821 660 q 686 792 755 752 q 532 833 617 833 q 362 751 427 833 q 275 441 275 640 q 290 277 275 326 q 351 147 314 197 q 426 87 380 109 q 553 56 486 56 q 697 103 628 56 q 831 241 767 149 q 897 247 856 246 q 888 193 894 221 q 872 107 886 182 l 866 87 l 857 55 q 740 7 815 23 q 556 -9 665 -9 q 398 7 473 -9 q 271 56 324 22 q 150 162 194 105 q 84 286 106 219 q 63 437 63 353 q 196 770 63 639 q 536 902 330 902 q 695 893 621 902 q 833 868 769 885 m 466 946 q 535 1164 487 1021 l 721 1162 l 517 945 q 487 945 492 945 q 466 946 477 945 z "},"":{"ha":651,"x_min":54,"x_max":622,"o":"m 581 181 q 597 173 591 175 q 622 156 612 166 q 533 39 604 88 q 355 -11 463 -11 q 220 18 287 -11 q 115 93 154 46 q 69 181 84 129 q 54 270 54 233 q 73 370 54 314 q 136 475 92 426 q 249 554 181 525 q 403 583 317 583 q 566 547 520 583 q 612 473 612 510 q 594 417 612 437 q 543 396 575 396 q 491 414 515 396 q 452 476 468 433 q 421 522 440 507 q 376 535 402 535 q 262 480 312 535 q 212 332 212 426 q 273 152 212 218 q 412 85 334 85 q 478 94 451 85 q 524 120 495 100 q 552 149 532 125 q 581 181 573 173 m 254 650 q 323 868 275 725 l 509 866 l 304 650 q 275 649 279 649 q 254 650 265 649 z "},"":{"ha":941,"x_min":63,"x_max":897,"o":"m 833 868 q 869 752 842 848 q 882 660 882 709 l 821 660 q 686 792 755 752 q 532 833 617 833 q 362 751 427 833 q 275 441 275 640 q 290 277 275 326 q 351 147 314 197 q 426 87 380 109 q 553 56 486 56 q 697 103 628 56 q 831 241 767 149 q 897 247 856 246 q 888 193 894 221 q 872 107 886 182 l 866 87 l 857 55 q 740 7 815 23 q 556 -9 665 -9 q 398 7 473 -9 q 271 56 324 22 q 150 162 194 105 q 84 286 106 219 q 63 437 63 353 q 196 770 63 639 q 536 902 330 902 q 695 893 621 902 q 833 868 769 885 m 330 1177 l 383 1177 q 488 1086 397 1164 l 532 1050 l 681 1178 l 732 1177 l 604 939 q 489 938 528 938 q 458 941 477 938 l 330 1177 z "},"":{"ha":651,"x_min":54,"x_max":622,"o":"m 581 181 q 597 173 591 175 q 622 156 612 166 q 533 39 604 88 q 355 -11 463 -11 q 220 18 287 -11 q 115 93 154 46 q 69 181 84 129 q 54 270 54 233 q 73 370 54 314 q 136 475 92 426 q 249 554 181 525 q 403 583 317 583 q 566 547 520 583 q 612 473 612 510 q 594 417 612 437 q 543 396 575 396 q 491 414 515 396 q 452 476 468 433 q 421 522 440 507 q 376 535 402 535 q 262 480 312 535 q 212 332 212 426 q 273 152 212 218 q 412 85 334 85 q 478 94 451 85 q 524 120 495 100 q 552 149 532 125 q 581 181 573 173 m 138 881 l 191 882 q 296 790 205 869 l 340 754 l 489 882 l 541 881 l 412 643 q 297 642 336 642 q 267 646 285 642 l 138 881 z "},"":{"ha":767,"x_min":53,"x_max":774,"o":"m 513 657 l 259 657 l 259 719 l 511 719 q 493 806 507 786 q 459 822 483 821 q 419 830 435 823 l 419 863 q 452 867 432 867 q 532 881 473 867 l 555 886 l 622 901 q 647 906 642 906 q 658 905 650 906 q 662 884 662 890 l 661 873 l 661 861 q 663 760 661 842 l 663 719 l 774 719 l 774 657 l 664 656 l 665 601 q 664 558 665 597 q 663 473 663 530 q 663 456 663 463 l 663 431 q 663 414 663 420 q 665 385 663 404 l 665 348 l 664 334 q 663 279 663 314 q 664 216 663 244 q 665 195 665 204 l 665 144 q 666 85 665 119 q 726 75 678 78 q 752 71 741 74 q 755 56 755 61 q 751 38 755 50 q 692 28 723 31 q 560 -5 600 16 q 534 -16 541 -16 q 517 -14 526 -16 q 517 1 517 -2 q 515 60 517 47 q 490 46 505 55 q 408 8 445 19 q 322 -2 370 -2 q 186 31 237 -2 q 82 144 111 78 q 53 290 53 211 q 80 408 53 347 q 134 483 94 439 q 216 547 174 527 q 330 573 258 566 l 368 573 q 510 522 442 573 l 511 538 l 511 584 l 513 657 m 388 75 q 412 74 402 74 q 460 83 435 74 q 514 111 486 93 q 515 139 515 134 q 509 398 515 354 q 464 489 500 457 q 375 521 427 521 q 318 510 345 521 q 275 479 292 499 q 237 411 250 449 q 219 312 219 358 q 266 143 219 201 q 388 75 313 84 z "},"":{"ha":463,"x_min":48,"x_max":420,"o":"m 52 349 l 265 349 l 374 350 q 415 347 396 350 q 419 300 417 315 l 420 288 l 417 253 q 416 233 416 245 l 416 220 l 49 220 q 48 250 48 239 q 50 288 48 267 q 50 303 50 298 l 50 337 l 52 349 z "},"":{"ha":694,"x_min":-8,"x_max":703,"o":"m -8 1018 l 703 1018 l 703 948 l -8 948 l -8 1018 z "},"":{"ha":463,"x_min":383,"x_max":579,"o":"m 477 548 q 550 521 520 548 q 579 459 579 494 q 561 392 579 414 q 482 353 528 353 q 411 381 439 353 q 383 451 383 409 q 397 502 383 479 q 437 539 407 519 q 477 548 450 548 z "},"":{"ha":434,"x_min":37,"x_max":398,"o":"m 398 609 l 398 542 q 363 541 376 541 l 334 541 l 334 479 q 333 456 334 475 q 332 425 332 446 l 304 425 l 261 425 q 232 422 253 425 l 233 497 q 231 541 233 519 l 159 541 l 64 543 q 37 541 55 543 q 37 566 37 558 l 37 600 q 103 693 50 620 q 195 811 156 766 q 264 897 234 857 l 282 898 q 301 899 295 899 q 336 897 311 899 q 338 884 338 888 l 336 863 q 336 850 336 857 q 336 840 336 845 l 337 826 l 336 777 l 336 664 l 335 608 l 372 608 q 398 609 381 608 m 233 609 l 235 631 l 233 658 l 234 683 l 233 709 l 235 789 q 157 690 214 766 q 146 675 153 684 q 127 648 137 661 q 101 610 112 629 l 198 610 q 218 609 210 609 l 233 609 z "},"":{"ha":911,"x_min":-18,"x_max":939,"o":"m -18 5 l -16 51 q 29 61 -3 55 q 93 79 81 71 q 120 119 104 87 l 257 477 l 418 899 q 460 899 440 899 l 491 899 l 497 886 l 615 607 q 687 434 655 518 q 742 298 719 351 q 779 202 755 266 q 817 115 791 168 q 837 82 830 87 q 877 68 849 72 q 936 53 904 65 q 939 20 939 31 q 939 5 939 15 q 828 9 888 5 q 720 14 768 14 q 642 13 666 14 l 527 7 l 494 5 q 496 51 494 29 l 571 67 q 610 81 605 76 q 617 96 617 87 q 614 115 617 105 l 587 181 l 533 314 l 274 315 q 215 155 260 282 q 202 106 202 119 q 212 81 202 89 q 271 63 227 68 q 319 56 277 62 q 320 22 320 31 q 319 6 320 14 q 118 18 277 6 l 90 13 q -5 5 40 5 l -18 5 m 301 386 q 488 384 460 384 l 505 385 q 452 525 485 445 q 399 648 420 606 l 301 386 m 286 952 l 286 1036 l 637 1036 l 637 952 l 286 952 z "},"":{"ha":665,"x_min":68,"x_max":651,"o":"m 627 132 l 643 121 q 650 110 649 117 l 651 106 q 608 23 635 46 q 543 1 582 1 q 474 23 503 1 q 421 100 445 45 q 339 23 392 49 q 210 -3 286 -3 q 106 26 139 -3 q 73 104 73 56 q 82 149 73 126 q 114 195 92 172 q 185 245 136 218 q 237 268 193 249 l 406 336 q 408 388 408 361 q 385 513 408 479 q 338 533 372 533 q 275 520 304 533 q 234 487 247 507 q 218 431 224 472 q 209 396 213 401 q 172 373 199 383 q 136 357 145 362 q 77 340 99 340 q 68 363 68 348 q 84 429 68 401 q 158 506 109 469 q 250 557 207 543 q 392 576 308 576 q 485 556 446 576 q 539 497 524 536 q 555 355 555 458 l 553 243 l 554 161 l 554 140 q 562 101 554 112 q 582 91 570 91 q 595 95 589 91 l 615 127 l 627 132 m 405 289 q 318 246 366 276 q 250 185 269 216 q 237 130 237 163 q 254 82 237 101 q 295 63 272 63 q 359 85 333 63 q 401 131 395 114 q 408 229 408 149 q 405 289 408 259 m 170 673 l 170 756 l 521 756 l 521 673 l 170 673 z "},"":{"ha":911,"x_min":-18,"x_max":939,"o":"m -18 5 l -16 51 q 29 61 -3 55 q 93 79 81 71 q 120 119 104 87 l 257 477 l 418 899 q 460 899 440 899 l 491 899 l 497 886 l 615 607 q 687 434 655 518 q 742 298 719 351 q 779 202 755 266 q 817 115 791 168 q 837 82 830 87 q 877 68 849 72 q 936 53 904 65 q 939 20 939 31 q 939 5 939 15 q 828 9 888 5 q 720 14 768 14 q 642 13 666 14 l 527 7 l 494 5 q 496 51 494 29 l 571 67 q 610 81 605 76 q 617 96 617 87 q 614 115 617 105 l 587 181 l 533 314 l 274 315 q 215 155 260 282 q 202 106 202 119 q 212 81 202 89 q 271 63 227 68 q 319 56 277 62 q 320 22 320 31 q 319 6 320 14 q 118 18 277 6 l 90 13 q -5 5 40 5 l -18 5 m 301 386 q 488 384 460 384 l 505 385 q 452 525 485 445 q 399 648 420 606 l 301 386 m 311 1143 q 340 1144 330 1144 l 364 1144 q 401 1063 373 1088 q 475 1038 430 1038 q 554 1065 526 1038 q 587 1143 583 1093 l 642 1143 l 642 1133 q 623 1039 642 1085 q 564 966 604 992 q 477 939 523 939 q 359 992 407 939 q 311 1143 312 1045 z "}}}
